M48
; DRILL file {KiCad (6.0.4-0)} date Freitag, 29. Juli 2022 um 09:17:40
; FORMAT={-:-/ absolute / metric / decimal}
; #@! TF.CreationDate,2022-07-29T09:17:40+02:00
; #@! TF.GenerationSoftware,Kicad,Pcbnew,(6.0.4-0)
; #@! TF.FileFunction,Plated,1,2,PTH
FMAT,2
METRIC
; #@! TA.AperFunction,Plated,PTH,ComponentDrill
T1C0.780
; #@! TA.AperFunction,Plated,PTH,ComponentDrill
T2C0.800
; #@! TA.AperFunction,Plated,PTH,ComponentDrill
T3C0.900
; #@! TA.AperFunction,Plated,PTH,ComponentDrill
T4C1.000
; #@! TA.AperFunction,Plated,PTH,ComponentDrill
T5C1.200
; #@! TA.AperFunction,Plated,PTH,ComponentDrill
T6C1.300
; #@! TA.AperFunction,Plated,PTH,ComponentDrill
T7C1.320
; #@! TA.AperFunction,Plated,PTH,ComponentDrill
T8C1.600
%
G90
G05
T1
X207.01Y-49.37
X207.01Y-57.31
X207.01Y-64.61
X207.01Y-72.55
X207.01Y-79.85
X207.01Y-87.79
X207.01Y-95.09
X207.01Y-103.03
X207.01Y-110.33
X207.01Y-118.27
X209.55Y-49.37
X209.55Y-57.31
X209.55Y-64.61
X209.55Y-72.55
X209.55Y-79.85
X209.55Y-87.79
X209.55Y-95.09
X209.55Y-103.03
X209.55Y-110.33
X209.55Y-118.27
X212.09Y-49.37
X212.09Y-57.31
X212.09Y-64.61
X212.09Y-72.55
X212.09Y-79.85
X212.09Y-87.79
X212.09Y-95.09
X212.09Y-103.03
X212.09Y-110.33
X212.09Y-118.27
X214.63Y-49.37
X214.63Y-57.31
X214.63Y-64.61
X214.63Y-72.55
X214.63Y-79.85
X214.63Y-87.79
X214.63Y-95.09
X214.63Y-103.03
X214.63Y-110.33
X214.63Y-118.27
X217.17Y-49.37
X217.17Y-57.31
X217.17Y-64.61
X217.17Y-72.55
X217.17Y-79.85
X217.17Y-87.79
X217.17Y-95.09
X217.17Y-103.03
X217.17Y-110.33
X217.17Y-118.27
X219.71Y-49.37
X219.71Y-57.31
X219.71Y-64.61
X219.71Y-72.55
X219.71Y-79.85
X219.71Y-87.79
X219.71Y-95.09
X219.71Y-103.03
X219.71Y-110.33
X219.71Y-118.27
X222.25Y-49.37
X222.25Y-57.31
X222.25Y-64.61
X222.25Y-72.55
X222.25Y-79.85
X222.25Y-87.79
X222.25Y-95.09
X222.25Y-103.03
X222.25Y-110.33
X222.25Y-118.27
X224.79Y-49.37
X224.79Y-57.31
X224.79Y-64.61
X224.79Y-72.55
X224.79Y-79.85
X224.79Y-87.79
X224.79Y-95.09
X224.79Y-103.03
X224.79Y-110.33
X224.79Y-118.27
T2
X132.08Y-80.65
X132.08Y-83.15
T3
X172.42Y-60.96
X172.42Y-63.5
X172.42Y-66.04
X172.42Y-68.58
X172.42Y-71.12
X172.42Y-73.66
X172.42Y-76.2
X172.42Y-78.74
X172.42Y-81.28
X172.42Y-83.82
X172.42Y-86.36
X172.42Y-88.9
X172.42Y-91.44
X172.42Y-93.98
X172.42Y-96.52
X172.42Y-99.06
X172.42Y-101.6
X172.42Y-104.14
X172.42Y-106.68
X198.42Y-60.96
X198.42Y-63.5
X198.42Y-66.04
X198.42Y-68.58
X198.42Y-71.12
X198.42Y-73.66
X198.42Y-76.2
X198.42Y-78.74
X198.42Y-81.28
X198.42Y-83.82
X198.42Y-86.36
X198.42Y-88.9
X198.42Y-91.44
X198.42Y-93.98
X198.42Y-96.52
X198.42Y-99.06
X198.42Y-101.6
X198.42Y-104.14
X198.42Y-106.68
T4
X132.08Y-96.6
X132.08Y-101.6
X233.68Y-58.42
X233.68Y-60.96
X233.68Y-63.5
X233.68Y-66.04
X233.68Y-68.58
X233.68Y-71.12
X233.68Y-73.66
X233.68Y-76.2
X233.68Y-78.74
X233.68Y-81.28
X233.68Y-83.82
X233.68Y-86.36
X233.68Y-88.9
X233.68Y-91.44
X233.68Y-93.98
X233.68Y-96.52
X233.68Y-99.06
X233.68Y-101.6
X233.68Y-104.14
X233.68Y-106.68
X233.68Y-109.22
X233.68Y-111.76
T5
X152.4Y-85.5
X152.4Y-87.2
X152.4Y-88.9
X152.4Y-90.6
X152.4Y-92.3
T6
X142.24Y-86.36
X142.24Y-91.36
T7
X149.86Y-116.84
X154.86Y-116.84
T8
X162.56Y-86.36
X162.56Y-101.6
T0
M30
