G04 #@! TF.GenerationSoftware,KiCad,Pcbnew,(6.0.4-0)*
G04 #@! TF.CreationDate,2022-07-29T09:17:33+02:00*
G04 #@! TF.ProjectId,LED-Clock,4c45442d-436c-46f6-936b-2e6b69636164,rev?*
G04 #@! TF.SameCoordinates,Original*
G04 #@! TF.FileFunction,Copper,L1,Top*
G04 #@! TF.FilePolarity,Positive*
%FSLAX46Y46*%
G04 Gerber Fmt 4.6, Leading zero omitted, Abs format (unit mm)*
G04 Created by KiCad (PCBNEW (6.0.4-0)) date 2022-07-29 09:17:33*
%MOMM*%
%LPD*%
G01*
G04 APERTURE LIST*
G04 #@! TA.AperFunction,ComponentPad*
%ADD10O,2.900000X1.450000*%
G04 #@! TD*
G04 #@! TA.AperFunction,ComponentPad*
%ADD11R,1.130000X1.130000*%
G04 #@! TD*
G04 #@! TA.AperFunction,ComponentPad*
%ADD12C,1.130000*%
G04 #@! TD*
G04 #@! TA.AperFunction,ComponentPad*
%ADD13R,1.700000X1.700000*%
G04 #@! TD*
G04 #@! TA.AperFunction,ComponentPad*
%ADD14O,1.700000X1.700000*%
G04 #@! TD*
G04 #@! TA.AperFunction,ComponentPad*
%ADD15R,1.600000X1.600000*%
G04 #@! TD*
G04 #@! TA.AperFunction,ComponentPad*
%ADD16C,1.600000*%
G04 #@! TD*
G04 #@! TA.AperFunction,ComponentPad*
%ADD17C,2.600000*%
G04 #@! TD*
G04 #@! TA.AperFunction,ComponentPad*
%ADD18R,1.980000X3.960000*%
G04 #@! TD*
G04 #@! TA.AperFunction,ComponentPad*
%ADD19O,1.980000X3.960000*%
G04 #@! TD*
G04 #@! TA.AperFunction,ComponentPad*
%ADD20R,1.350000X1.350000*%
G04 #@! TD*
G04 #@! TA.AperFunction,ComponentPad*
%ADD21C,1.350000*%
G04 #@! TD*
G04 #@! TA.AperFunction,ComponentPad*
%ADD22R,2.000000X2.000000*%
G04 #@! TD*
G04 #@! TA.AperFunction,ComponentPad*
%ADD23C,2.000000*%
G04 #@! TD*
G04 #@! TA.AperFunction,ComponentPad*
%ADD24R,3.200000X3.200000*%
G04 #@! TD*
G04 #@! TA.AperFunction,ComponentPad*
%ADD25O,3.200000X3.200000*%
G04 #@! TD*
G04 #@! TA.AperFunction,Conductor*
%ADD26C,0.609600*%
G04 #@! TD*
G04 #@! TA.AperFunction,Conductor*
%ADD27C,0.250000*%
G04 #@! TD*
G04 APERTURE END LIST*
D10*
X152400000Y-85500000D03*
X152400000Y-87200000D03*
X152400000Y-88900000D03*
X152400000Y-90600000D03*
X152400000Y-92300000D03*
D11*
X224790000Y-79850000D03*
D12*
X222250000Y-79850000D03*
X219710000Y-79850000D03*
X217170000Y-79850000D03*
X214630000Y-79850000D03*
X212090000Y-79850000D03*
X209550000Y-79850000D03*
X207010000Y-79850000D03*
X207010000Y-87790000D03*
X209550000Y-87790000D03*
X212090000Y-87790000D03*
X214630000Y-87790000D03*
X217170000Y-87790000D03*
X219710000Y-87790000D03*
X222250000Y-87790000D03*
X224790000Y-87790000D03*
D13*
X233680000Y-58420000D03*
D14*
X233680000Y-60960000D03*
X233680000Y-63500000D03*
X233680000Y-66040000D03*
X233680000Y-68580000D03*
X233680000Y-71120000D03*
X233680000Y-73660000D03*
X233680000Y-76200000D03*
X233680000Y-78740000D03*
X233680000Y-81280000D03*
X233680000Y-83820000D03*
X233680000Y-86360000D03*
X233680000Y-88900000D03*
X233680000Y-91440000D03*
X233680000Y-93980000D03*
X233680000Y-96520000D03*
X233680000Y-99060000D03*
X233680000Y-101600000D03*
X233680000Y-104140000D03*
X233680000Y-106680000D03*
X233680000Y-109220000D03*
X233680000Y-111760000D03*
D11*
X224790000Y-64610000D03*
D12*
X222250000Y-64610000D03*
X219710000Y-64610000D03*
X217170000Y-64610000D03*
X214630000Y-64610000D03*
X212090000Y-64610000D03*
X209550000Y-64610000D03*
X207010000Y-64610000D03*
X207010000Y-72550000D03*
X209550000Y-72550000D03*
X212090000Y-72550000D03*
X214630000Y-72550000D03*
X217170000Y-72550000D03*
X219710000Y-72550000D03*
X222250000Y-72550000D03*
X224790000Y-72550000D03*
D15*
X132080000Y-80650000D03*
D16*
X132080000Y-83150000D03*
D17*
X142240000Y-86360000D03*
X142240000Y-91360000D03*
D18*
X149860000Y-116840000D03*
D19*
X154860000Y-116840000D03*
D11*
X224790000Y-49370000D03*
D12*
X222250000Y-49370000D03*
X219710000Y-49370000D03*
X217170000Y-49370000D03*
X214630000Y-49370000D03*
X212090000Y-49370000D03*
X209550000Y-49370000D03*
X207010000Y-49370000D03*
X207010000Y-57310000D03*
X209550000Y-57310000D03*
X212090000Y-57310000D03*
X214630000Y-57310000D03*
X217170000Y-57310000D03*
X219710000Y-57310000D03*
X222250000Y-57310000D03*
X224790000Y-57310000D03*
D11*
X224790000Y-110330000D03*
D12*
X222250000Y-110330000D03*
X219710000Y-110330000D03*
X217170000Y-110330000D03*
X214630000Y-110330000D03*
X212090000Y-110330000D03*
X209550000Y-110330000D03*
X207010000Y-110330000D03*
X207010000Y-118270000D03*
X209550000Y-118270000D03*
X212090000Y-118270000D03*
X214630000Y-118270000D03*
X217170000Y-118270000D03*
X219710000Y-118270000D03*
X222250000Y-118270000D03*
X224790000Y-118270000D03*
D20*
X198420000Y-60960000D03*
D21*
X198420000Y-63500000D03*
X198420000Y-66040000D03*
X198420000Y-68580000D03*
X198420000Y-71120000D03*
X198420000Y-73660000D03*
X198420000Y-76200000D03*
X198420000Y-78740000D03*
X198420000Y-81280000D03*
X198420000Y-83820000D03*
X198420000Y-86360000D03*
X198420000Y-88900000D03*
X198420000Y-91440000D03*
X198420000Y-93980000D03*
X198420000Y-96520000D03*
X198420000Y-99060000D03*
X198420000Y-101600000D03*
X198420000Y-104140000D03*
X198420000Y-106680000D03*
D20*
X172420000Y-106680000D03*
D21*
X172420000Y-104140000D03*
X172420000Y-101600000D03*
X172420000Y-99060000D03*
X172420000Y-96520000D03*
X172420000Y-93980000D03*
X172420000Y-91440000D03*
X172420000Y-88900000D03*
X172420000Y-86360000D03*
X172420000Y-83820000D03*
X172420000Y-81280000D03*
X172420000Y-78740000D03*
X172420000Y-76200000D03*
X172420000Y-73660000D03*
X172420000Y-71120000D03*
X172420000Y-68580000D03*
X172420000Y-66040000D03*
X172420000Y-63500000D03*
X172420000Y-60960000D03*
D22*
X132080000Y-101600000D03*
D23*
X132080000Y-96600000D03*
D24*
X162560000Y-86360000D03*
D25*
X162560000Y-101600000D03*
D11*
X224790000Y-95090000D03*
D12*
X222250000Y-95090000D03*
X219710000Y-95090000D03*
X217170000Y-95090000D03*
X214630000Y-95090000D03*
X212090000Y-95090000D03*
X209550000Y-95090000D03*
X207010000Y-95090000D03*
X207010000Y-103030000D03*
X209550000Y-103030000D03*
X212090000Y-103030000D03*
X214630000Y-103030000D03*
X217170000Y-103030000D03*
X219710000Y-103030000D03*
X222250000Y-103030000D03*
X224790000Y-103030000D03*
D26*
X154535946Y-90600000D02*
X170615946Y-106680000D01*
X152400000Y-90600000D02*
X143000000Y-90600000D01*
X143000000Y-90600000D02*
X142240000Y-91360000D01*
X170615946Y-106680000D02*
X172420000Y-106680000D01*
X152400000Y-90600000D02*
X154535946Y-90600000D01*
D27*
X229181181Y-60271181D02*
X229870000Y-60960000D01*
X226163322Y-53443323D02*
X229181181Y-56461182D01*
X217170000Y-49370000D02*
X220980000Y-53180000D01*
X229870000Y-60960000D02*
X233680000Y-60960000D01*
X220980000Y-53180000D02*
X225900000Y-53180000D01*
X225900000Y-53180000D02*
X226163322Y-53443323D01*
X229181181Y-56461182D02*
X229181181Y-60271181D01*
X229685238Y-61409520D02*
X229683803Y-61409520D01*
X218889520Y-53629520D02*
X214630000Y-49370000D01*
X231775718Y-63500000D02*
X229685238Y-61409520D01*
X225713802Y-53629520D02*
X218889520Y-53629520D01*
X228731661Y-60457378D02*
X228731661Y-56647379D01*
X229683803Y-61409520D02*
X228731661Y-60457378D01*
X233680000Y-63500000D02*
X231775718Y-63500000D01*
X228731661Y-56647379D02*
X225713802Y-53629520D01*
X225527604Y-54079040D02*
X215320960Y-54079040D01*
X215320960Y-54079040D02*
X212090000Y-57310000D01*
X228282141Y-60643576D02*
X228282141Y-56833577D01*
X229497605Y-61859040D02*
X228282141Y-60643576D01*
X233680000Y-66040000D02*
X229499040Y-61859040D01*
X228282141Y-56833577D02*
X225527604Y-54079040D01*
X229499040Y-61859040D02*
X229497605Y-61859040D01*
X225341406Y-54528560D02*
X219951440Y-54528560D01*
X231589520Y-66489520D02*
X231589520Y-64585238D01*
X233680000Y-68580000D02*
X231589520Y-66489520D01*
X227832621Y-60829773D02*
X227832621Y-57019775D01*
X231589520Y-64585238D02*
X229312842Y-62308560D01*
X229311408Y-62308560D02*
X227832621Y-60829773D01*
X229312842Y-62308560D02*
X229311408Y-62308560D01*
X219951440Y-54528560D02*
X217170000Y-57310000D01*
X227832621Y-57019775D02*
X225341406Y-54528560D01*
X219710000Y-64610000D02*
X218600000Y-63500000D01*
X218600000Y-63500000D02*
X198420000Y-63500000D01*
X227331436Y-68580000D02*
X229049520Y-70298084D01*
X229049520Y-70299520D02*
X229870000Y-71120000D01*
X217170000Y-64770000D02*
X220980000Y-68580000D01*
X229870000Y-71120000D02*
X233680000Y-71120000D01*
X217170000Y-64610000D02*
X217170000Y-64770000D01*
X220980000Y-68580000D02*
X227331436Y-68580000D01*
X229049520Y-70298084D02*
X229049520Y-70299520D01*
X219049520Y-69029520D02*
X227145238Y-69029520D01*
X228600000Y-70485718D02*
X231774282Y-73660000D01*
X231774282Y-73660000D02*
X233680000Y-73660000D01*
X214630000Y-64610000D02*
X219049520Y-69029520D01*
X227145238Y-69029520D02*
X228600000Y-70484282D01*
X228600000Y-70484282D02*
X228600000Y-70485718D01*
X210660000Y-66040000D02*
X198420000Y-66040000D01*
X212090000Y-64610000D02*
X210660000Y-66040000D01*
X209550000Y-72550000D02*
X208440000Y-73660000D01*
X208440000Y-73660000D02*
X198420000Y-73660000D01*
X233678566Y-76200000D02*
X226957604Y-69479040D01*
X215160960Y-69479040D02*
X212090000Y-72550000D01*
X226957604Y-69479040D02*
X215160960Y-69479040D01*
X233680000Y-76200000D02*
X233678566Y-76200000D01*
X231140000Y-74297154D02*
X231140000Y-76200000D01*
X219791440Y-69928560D02*
X226771406Y-69928560D01*
X231140000Y-76200000D02*
X233680000Y-78740000D01*
X217170000Y-72550000D02*
X219791440Y-69928560D01*
X226771406Y-69928560D02*
X231140000Y-74297154D01*
X203050480Y-74109520D02*
X198420000Y-78740000D01*
X219710000Y-72550000D02*
X218150480Y-74109520D01*
X218150480Y-74109520D02*
X203050480Y-74109520D01*
X218820489Y-78960489D02*
X200739511Y-78960489D01*
X200739511Y-78960489D02*
X198420000Y-81280000D01*
X219710000Y-79850000D02*
X218820489Y-78960489D01*
X231589520Y-83370480D02*
X220610480Y-83370480D01*
X233680000Y-81280000D02*
X231589520Y-83370480D01*
X220610480Y-83370480D02*
X217170000Y-79930000D01*
X217170000Y-79930000D02*
X217170000Y-79850000D01*
X233680000Y-83820000D02*
X218600000Y-83820000D01*
X218600000Y-83820000D02*
X214630000Y-79850000D01*
X208120000Y-83820000D02*
X198420000Y-83820000D01*
X212090000Y-79850000D02*
X208120000Y-83820000D01*
X200960000Y-88900000D02*
X198420000Y-86360000D01*
X209550000Y-87790000D02*
X208440000Y-88900000D01*
X208440000Y-88900000D02*
X200960000Y-88900000D01*
X233680000Y-86360000D02*
X231589520Y-84269520D01*
X231589520Y-84269520D02*
X215610480Y-84269520D01*
X215610480Y-84269520D02*
X212090000Y-87790000D01*
X220240960Y-84719040D02*
X217170000Y-87790000D01*
X233680000Y-88900000D02*
X229499040Y-84719040D01*
X229499040Y-84719040D02*
X220240960Y-84719040D01*
X198869520Y-89349520D02*
X198420000Y-88900000D01*
X218150480Y-89349520D02*
X198869520Y-89349520D01*
X219710000Y-87790000D02*
X218150480Y-89349520D01*
X217170000Y-95250000D02*
X217170000Y-95090000D01*
X226959038Y-95620960D02*
X223969518Y-98610480D01*
X233680000Y-91440000D02*
X229499040Y-95620960D01*
X220530480Y-98610480D02*
X217170000Y-95250000D01*
X223969518Y-98610480D02*
X220530480Y-98610480D01*
X229499040Y-95620960D02*
X226959038Y-95620960D01*
X224155716Y-99060000D02*
X218440000Y-99060000D01*
X227145236Y-96070480D02*
X224155716Y-99060000D01*
X218440000Y-99060000D02*
X214630000Y-95250000D01*
X231775718Y-93980000D02*
X229685237Y-96070480D01*
X214630000Y-95250000D02*
X214630000Y-95090000D01*
X229685237Y-96070480D02*
X227145236Y-96070480D01*
X233680000Y-93980000D02*
X231775718Y-93980000D01*
X224341914Y-99509520D02*
X215610480Y-99509520D01*
X215610480Y-99509520D02*
X212090000Y-103030000D01*
X233680000Y-96520000D02*
X227331436Y-96520000D01*
X227331436Y-96520000D02*
X224341914Y-99509520D01*
X220080960Y-99959040D02*
X217170000Y-102870000D01*
X233680000Y-99060000D02*
X231589520Y-96969520D01*
X224528111Y-99959040D02*
X220080960Y-99959040D01*
X231589520Y-96969520D02*
X227517631Y-96969520D01*
X217170000Y-102870000D02*
X217170000Y-103030000D01*
X227517631Y-96969520D02*
X224528111Y-99959040D01*
X221140000Y-114300000D02*
X217170000Y-110330000D01*
X231140000Y-106044282D02*
X222884282Y-114300000D01*
X233680000Y-101600000D02*
X231140000Y-104140000D01*
X222884282Y-114300000D02*
X221140000Y-114300000D01*
X231140000Y-104140000D02*
X231140000Y-106044282D01*
X231140000Y-106680000D02*
X231140000Y-106680718D01*
X226151687Y-111669031D02*
X226150969Y-111669031D01*
X233680000Y-104140000D02*
X231140000Y-106680000D01*
X226150969Y-111669031D02*
X223070480Y-114749520D01*
X231140000Y-106680718D02*
X226151687Y-111669031D01*
X218889520Y-114749520D02*
X214630000Y-110490000D01*
X223070480Y-114749520D02*
X218889520Y-114749520D01*
X214630000Y-110490000D02*
X214630000Y-110330000D01*
X223257396Y-115199040D02*
X215160960Y-115199040D01*
X231589520Y-106866197D02*
X231589520Y-106866916D01*
X231589520Y-106866916D02*
X223257396Y-115199040D01*
X231775717Y-106680000D02*
X231589520Y-106866197D01*
X215160960Y-115199040D02*
X212090000Y-118270000D01*
X233680000Y-106680000D02*
X231775717Y-106680000D01*
X223443593Y-115648560D02*
X219631440Y-115648560D01*
X229872154Y-109220000D02*
X223443593Y-115648560D01*
X217170000Y-118110000D02*
X217170000Y-118270000D01*
X233680000Y-109220000D02*
X229872154Y-109220000D01*
X219631440Y-115648560D02*
X217170000Y-118110000D01*
X209550000Y-103030000D02*
X205580000Y-99060000D01*
X205580000Y-99060000D02*
X198420000Y-99060000D01*
X212090000Y-95090000D02*
X210660000Y-96520000D01*
X210660000Y-96520000D02*
X198420000Y-96520000D01*
X219710000Y-95090000D02*
X216060000Y-91440000D01*
X216060000Y-91440000D02*
X198420000Y-91440000D01*
X219710000Y-103030000D02*
X218820489Y-103919511D01*
X186755229Y-97519511D02*
X173419511Y-84183793D01*
X173419511Y-84183793D02*
X173419511Y-82279511D01*
X211721551Y-103919511D02*
X205321551Y-97519511D01*
X173419511Y-82279511D02*
X172420000Y-81280000D01*
X218820489Y-103919511D02*
X211721551Y-103919511D01*
X205321551Y-97519511D02*
X186755229Y-97519511D01*
X212090000Y-110330000D02*
X204900489Y-103140489D01*
X191104771Y-103140489D02*
X174324282Y-86360000D01*
X204900489Y-103140489D02*
X191104771Y-103140489D01*
X174324282Y-86360000D02*
X172420000Y-86360000D01*
X175709520Y-74814762D02*
X174324282Y-76200000D01*
X209550000Y-57310000D02*
X206899511Y-59960489D01*
X206899511Y-59960489D02*
X184850947Y-59960489D01*
X175709520Y-69101916D02*
X175709520Y-74814762D01*
X174324282Y-76200000D02*
X172420000Y-76200000D01*
X184850947Y-59960489D02*
X175709520Y-69101916D01*
X176159040Y-69288114D02*
X176159040Y-75000960D01*
X197420489Y-61959511D02*
X195870987Y-60410009D01*
X185037145Y-60410009D02*
X176159040Y-69288114D01*
X219710000Y-57310000D02*
X216609991Y-60410009D01*
X195870987Y-60410009D02*
X185037145Y-60410009D01*
X201209991Y-60410009D02*
X199660489Y-61959511D01*
X199660489Y-61959511D02*
X197420489Y-61959511D01*
X176159040Y-75000960D02*
X172420000Y-78740000D01*
X216609991Y-60410009D02*
X201209991Y-60410009D01*
X175260000Y-68915718D02*
X175260000Y-72889755D01*
X174489755Y-73660000D02*
X172720000Y-73660000D01*
X201949031Y-59510969D02*
X184664749Y-59510969D01*
X212090000Y-49370000D02*
X201949031Y-59510969D01*
X184664749Y-59510969D02*
X175260000Y-68915718D01*
X175260000Y-72889755D02*
X174489755Y-73660000D01*
X174810480Y-70149520D02*
X173840000Y-71120000D01*
X174810480Y-68729521D02*
X174810480Y-70149520D01*
X173840000Y-71120000D02*
X172420000Y-71120000D01*
X219710000Y-49370000D02*
X218820489Y-48480489D01*
X202979511Y-48480489D02*
X192398551Y-59061449D01*
X192398551Y-59061449D02*
X184478552Y-59061449D01*
X184478552Y-59061449D02*
X174810480Y-68729521D01*
X218820489Y-48480489D02*
X202979511Y-48480489D01*
X219710000Y-118270000D02*
X218820489Y-119159511D01*
X176228564Y-88900000D02*
X172420000Y-88900000D01*
X218820489Y-119159511D02*
X211721551Y-119159511D01*
X206120489Y-110309469D02*
X201491509Y-105680489D01*
X193009053Y-105680489D02*
X176228564Y-88900000D01*
X211721551Y-119159511D02*
X206120489Y-113558449D01*
X201491509Y-105680489D02*
X193009053Y-105680489D01*
X206120489Y-113558449D02*
X206120489Y-110309469D01*
X218820489Y-109440489D02*
X211836207Y-109440489D01*
X211836207Y-109440489D02*
X205086686Y-102690969D01*
X219710000Y-110330000D02*
X218820489Y-109440489D01*
X205086686Y-102690969D02*
X191290969Y-102690969D01*
X191290969Y-102690969D02*
X172420000Y-83820000D01*
X202854813Y-107679511D02*
X194372357Y-107679511D01*
X194372357Y-107679511D02*
X178132846Y-91440000D01*
X209550000Y-117623678D02*
X205670969Y-113744646D01*
X209550000Y-118270000D02*
X209550000Y-117623678D01*
X205670969Y-113744646D02*
X205670969Y-110495667D01*
X205670969Y-110495667D02*
X202854813Y-107679511D01*
X178132846Y-91440000D02*
X172420000Y-91440000D01*
M02*
