G04 #@! TF.GenerationSoftware,KiCad,Pcbnew,(6.0.4-0)*
G04 #@! TF.CreationDate,2022-07-29T09:17:34+02:00*
G04 #@! TF.ProjectId,LED-Clock,4c45442d-436c-46f6-936b-2e6b69636164,rev?*
G04 #@! TF.SameCoordinates,Original*
G04 #@! TF.FileFunction,Legend,Top*
G04 #@! TF.FilePolarity,Positive*
%FSLAX46Y46*%
G04 Gerber Fmt 4.6, Leading zero omitted, Abs format (unit mm)*
G04 Created by KiCad (PCBNEW (6.0.4-0)) date 2022-07-29 09:17:34*
%MOMM*%
%LPD*%
G01*
G04 APERTURE LIST*
%ADD10C,0.300000*%
%ADD11C,0.150000*%
%ADD12C,0.127000*%
%ADD13C,0.200000*%
%ADD14C,0.120000*%
%ADD15O,2.900000X1.450000*%
%ADD16C,3.200000*%
%ADD17R,1.130000X1.130000*%
%ADD18C,1.130000*%
%ADD19R,1.700000X1.700000*%
%ADD20O,1.700000X1.700000*%
%ADD21R,1.600000X1.600000*%
%ADD22C,1.600000*%
%ADD23C,2.600000*%
%ADD24R,1.980000X3.960000*%
%ADD25O,1.980000X3.960000*%
%ADD26C,2.250000*%
%ADD27R,1.350000X1.350000*%
%ADD28C,1.350000*%
%ADD29R,2.000000X2.000000*%
%ADD30C,2.000000*%
%ADD31R,3.200000X3.200000*%
%ADD32O,3.200000X3.200000*%
G04 APERTURE END LIST*
D10*
X182205714Y-79965357D02*
X182705714Y-79965357D01*
X182920000Y-80751071D02*
X182205714Y-80751071D01*
X182205714Y-79251071D01*
X182920000Y-79251071D01*
X183491428Y-80679642D02*
X183705714Y-80751071D01*
X184062857Y-80751071D01*
X184205714Y-80679642D01*
X184277142Y-80608214D01*
X184348571Y-80465357D01*
X184348571Y-80322500D01*
X184277142Y-80179642D01*
X184205714Y-80108214D01*
X184062857Y-80036785D01*
X183777142Y-79965357D01*
X183634285Y-79893928D01*
X183562857Y-79822500D01*
X183491428Y-79679642D01*
X183491428Y-79536785D01*
X183562857Y-79393928D01*
X183634285Y-79322500D01*
X183777142Y-79251071D01*
X184134285Y-79251071D01*
X184348571Y-79322500D01*
X184991428Y-80751071D02*
X184991428Y-79251071D01*
X185562857Y-79251071D01*
X185705714Y-79322500D01*
X185777142Y-79393928D01*
X185848571Y-79536785D01*
X185848571Y-79751071D01*
X185777142Y-79893928D01*
X185705714Y-79965357D01*
X185562857Y-80036785D01*
X184991428Y-80036785D01*
X186348571Y-79251071D02*
X187277142Y-79251071D01*
X186777142Y-79822500D01*
X186991428Y-79822500D01*
X187134285Y-79893928D01*
X187205714Y-79965357D01*
X187277142Y-80108214D01*
X187277142Y-80465357D01*
X187205714Y-80608214D01*
X187134285Y-80679642D01*
X186991428Y-80751071D01*
X186562857Y-80751071D01*
X186420000Y-80679642D01*
X186348571Y-80608214D01*
X187848571Y-79393928D02*
X187920000Y-79322500D01*
X188062857Y-79251071D01*
X188420000Y-79251071D01*
X188562857Y-79322500D01*
X188634285Y-79393928D01*
X188705714Y-79536785D01*
X188705714Y-79679642D01*
X188634285Y-79893928D01*
X187777142Y-80751071D01*
X188705714Y-80751071D01*
X180598571Y-83166071D02*
X180598571Y-81666071D01*
X181455714Y-83166071D01*
X181455714Y-81666071D01*
X182384285Y-83166071D02*
X182241428Y-83094642D01*
X182170000Y-83023214D01*
X182098571Y-82880357D01*
X182098571Y-82451785D01*
X182170000Y-82308928D01*
X182241428Y-82237500D01*
X182384285Y-82166071D01*
X182598571Y-82166071D01*
X182741428Y-82237500D01*
X182812857Y-82308928D01*
X182884285Y-82451785D01*
X182884285Y-82880357D01*
X182812857Y-83023214D01*
X182741428Y-83094642D01*
X182598571Y-83166071D01*
X182384285Y-83166071D01*
X184170000Y-83166071D02*
X184170000Y-81666071D01*
X184170000Y-83094642D02*
X184027142Y-83166071D01*
X183741428Y-83166071D01*
X183598571Y-83094642D01*
X183527142Y-83023214D01*
X183455714Y-82880357D01*
X183455714Y-82451785D01*
X183527142Y-82308928D01*
X183598571Y-82237500D01*
X183741428Y-82166071D01*
X184027142Y-82166071D01*
X184170000Y-82237500D01*
X185455714Y-83094642D02*
X185312857Y-83166071D01*
X185027142Y-83166071D01*
X184884285Y-83094642D01*
X184812857Y-82951785D01*
X184812857Y-82380357D01*
X184884285Y-82237500D01*
X185027142Y-82166071D01*
X185312857Y-82166071D01*
X185455714Y-82237500D01*
X185527142Y-82380357D01*
X185527142Y-82523214D01*
X184812857Y-82666071D01*
X186170000Y-83166071D02*
X186170000Y-81666071D01*
X186670000Y-82737500D01*
X187170000Y-81666071D01*
X187170000Y-83166071D01*
X188741428Y-83023214D02*
X188670000Y-83094642D01*
X188455714Y-83166071D01*
X188312857Y-83166071D01*
X188098571Y-83094642D01*
X187955714Y-82951785D01*
X187884285Y-82808928D01*
X187812857Y-82523214D01*
X187812857Y-82308928D01*
X187884285Y-82023214D01*
X187955714Y-81880357D01*
X188098571Y-81737500D01*
X188312857Y-81666071D01*
X188455714Y-81666071D01*
X188670000Y-81737500D01*
X188741428Y-81808928D01*
X189384285Y-81666071D02*
X189384285Y-82880357D01*
X189455714Y-83023214D01*
X189527142Y-83094642D01*
X189670000Y-83166071D01*
X189955714Y-83166071D01*
X190098571Y-83094642D01*
X190170000Y-83023214D01*
X190241428Y-82880357D01*
X190241428Y-81666071D01*
X153567142Y-108057142D02*
X154710000Y-108057142D01*
X154138571Y-108628571D02*
X154138571Y-107485714D01*
X155352857Y-107271428D02*
X155424285Y-107200000D01*
X155567142Y-107128571D01*
X155924285Y-107128571D01*
X156067142Y-107200000D01*
X156138571Y-107271428D01*
X156210000Y-107414285D01*
X156210000Y-107557142D01*
X156138571Y-107771428D01*
X155281428Y-108628571D01*
X156210000Y-108628571D01*
X157138571Y-107128571D02*
X157281428Y-107128571D01*
X157424285Y-107200000D01*
X157495714Y-107271428D01*
X157567142Y-107414285D01*
X157638571Y-107700000D01*
X157638571Y-108057142D01*
X157567142Y-108342857D01*
X157495714Y-108485714D01*
X157424285Y-108557142D01*
X157281428Y-108628571D01*
X157138571Y-108628571D01*
X156995714Y-108557142D01*
X156924285Y-108485714D01*
X156852857Y-108342857D01*
X156781428Y-108057142D01*
X156781428Y-107700000D01*
X156852857Y-107414285D01*
X156924285Y-107271428D01*
X156995714Y-107200000D01*
X157138571Y-107128571D01*
X158067142Y-107128571D02*
X158567142Y-108628571D01*
X159067142Y-107128571D01*
X147447142Y-107200000D02*
X147304285Y-107128571D01*
X147090000Y-107128571D01*
X146875714Y-107200000D01*
X146732857Y-107342857D01*
X146661428Y-107485714D01*
X146590000Y-107771428D01*
X146590000Y-107985714D01*
X146661428Y-108271428D01*
X146732857Y-108414285D01*
X146875714Y-108557142D01*
X147090000Y-108628571D01*
X147232857Y-108628571D01*
X147447142Y-108557142D01*
X147518571Y-108485714D01*
X147518571Y-107985714D01*
X147232857Y-107985714D01*
X148161428Y-108628571D02*
X148161428Y-107128571D01*
X149018571Y-108628571D01*
X149018571Y-107128571D01*
X149732857Y-108628571D02*
X149732857Y-107128571D01*
X150090000Y-107128571D01*
X150304285Y-107200000D01*
X150447142Y-107342857D01*
X150518571Y-107485714D01*
X150590000Y-107771428D01*
X150590000Y-107985714D01*
X150518571Y-108271428D01*
X150447142Y-108414285D01*
X150304285Y-108557142D01*
X150090000Y-108628571D01*
X149732857Y-108628571D01*
D11*
X237460357Y-57590100D02*
X237317500Y-57514861D01*
X237103214Y-57514861D01*
X236888928Y-57590100D01*
X236746071Y-57740576D01*
X236674642Y-57891052D01*
X236603214Y-58192004D01*
X236603214Y-58417719D01*
X236674642Y-58718671D01*
X236746071Y-58869147D01*
X236888928Y-59019623D01*
X237103214Y-59094861D01*
X237246071Y-59094861D01*
X237460357Y-59019623D01*
X237531785Y-58944385D01*
X237531785Y-58417719D01*
X237246071Y-58417719D01*
X238174642Y-59094861D02*
X238174642Y-57514861D01*
X239031785Y-59094861D01*
X239031785Y-57514861D01*
X239746071Y-59094861D02*
X239746071Y-57514861D01*
X240103214Y-57514861D01*
X240317500Y-57590100D01*
X240460357Y-57740576D01*
X240531785Y-57891052D01*
X240603214Y-58192004D01*
X240603214Y-58417719D01*
X240531785Y-58718671D01*
X240460357Y-58869147D01*
X240317500Y-59019623D01*
X240103214Y-59094861D01*
X239746071Y-59094861D01*
X236960357Y-60058661D02*
X237103214Y-60058661D01*
X237246071Y-60133900D01*
X237317500Y-60209138D01*
X237388928Y-60359614D01*
X237460357Y-60660566D01*
X237460357Y-61036757D01*
X237388928Y-61337709D01*
X237317500Y-61488185D01*
X237246071Y-61563423D01*
X237103214Y-61638661D01*
X236960357Y-61638661D01*
X236817500Y-61563423D01*
X236746071Y-61488185D01*
X236674642Y-61337709D01*
X236603214Y-61036757D01*
X236603214Y-60660566D01*
X236674642Y-60359614D01*
X236746071Y-60209138D01*
X236817500Y-60133900D01*
X236960357Y-60058661D01*
X237460357Y-64182461D02*
X236603214Y-64182461D01*
X237031785Y-64182461D02*
X237031785Y-62602461D01*
X236888928Y-62828176D01*
X236746071Y-62978652D01*
X236603214Y-63053890D01*
X236603214Y-65296738D02*
X236674642Y-65221500D01*
X236817500Y-65146261D01*
X237174642Y-65146261D01*
X237317500Y-65221500D01*
X237388928Y-65296738D01*
X237460357Y-65447214D01*
X237460357Y-65597690D01*
X237388928Y-65823404D01*
X236531785Y-66726261D01*
X237460357Y-66726261D01*
X236531785Y-67690061D02*
X237460357Y-67690061D01*
X236960357Y-68291966D01*
X237174642Y-68291966D01*
X237317500Y-68367204D01*
X237388928Y-68442442D01*
X237460357Y-68592919D01*
X237460357Y-68969109D01*
X237388928Y-69119585D01*
X237317500Y-69194823D01*
X237174642Y-69270061D01*
X236746071Y-69270061D01*
X236603214Y-69194823D01*
X236531785Y-69119585D01*
X237317500Y-70760528D02*
X237317500Y-71813861D01*
X236960357Y-70158623D02*
X236603214Y-71287195D01*
X237531785Y-71287195D01*
X237460357Y-74357661D02*
X236603214Y-74357661D01*
X237031785Y-74357661D02*
X237031785Y-72777661D01*
X236888928Y-73003376D01*
X236746071Y-73153852D01*
X236603214Y-73229090D01*
X238388928Y-72777661D02*
X238531785Y-72777661D01*
X238674642Y-72852900D01*
X238746071Y-72928138D01*
X238817500Y-73078614D01*
X238888928Y-73379566D01*
X238888928Y-73755757D01*
X238817500Y-74056709D01*
X238746071Y-74207185D01*
X238674642Y-74282423D01*
X238531785Y-74357661D01*
X238388928Y-74357661D01*
X238246071Y-74282423D01*
X238174642Y-74207185D01*
X238103214Y-74056709D01*
X238031785Y-73755757D01*
X238031785Y-73379566D01*
X238103214Y-73078614D01*
X238174642Y-72928138D01*
X238246071Y-72852900D01*
X238388928Y-72777661D01*
X237460357Y-76901461D02*
X236603214Y-76901461D01*
X237031785Y-76901461D02*
X237031785Y-75321461D01*
X236888928Y-75547176D01*
X236746071Y-75697652D01*
X236603214Y-75772890D01*
X238888928Y-76901461D02*
X238031785Y-76901461D01*
X238460357Y-76901461D02*
X238460357Y-75321461D01*
X238317500Y-75547176D01*
X238174642Y-75697652D01*
X238031785Y-75772890D01*
X237460357Y-79445261D02*
X236603214Y-79445261D01*
X237031785Y-79445261D02*
X237031785Y-77865261D01*
X236888928Y-78090976D01*
X236746071Y-78241452D01*
X236603214Y-78316690D01*
X238031785Y-78015738D02*
X238103214Y-77940500D01*
X238246071Y-77865261D01*
X238603214Y-77865261D01*
X238746071Y-77940500D01*
X238817500Y-78015738D01*
X238888928Y-78166214D01*
X238888928Y-78316690D01*
X238817500Y-78542404D01*
X237960357Y-79445261D01*
X238888928Y-79445261D01*
X237460357Y-81989061D02*
X236603214Y-81989061D01*
X237031785Y-81989061D02*
X237031785Y-80409061D01*
X236888928Y-80634776D01*
X236746071Y-80785252D01*
X236603214Y-80860490D01*
X237960357Y-80409061D02*
X238888928Y-80409061D01*
X238388928Y-81010966D01*
X238603214Y-81010966D01*
X238746071Y-81086204D01*
X238817500Y-81161442D01*
X238888928Y-81311919D01*
X238888928Y-81688109D01*
X238817500Y-81838585D01*
X238746071Y-81913823D01*
X238603214Y-81989061D01*
X238174642Y-81989061D01*
X238031785Y-81913823D01*
X237960357Y-81838585D01*
X237460357Y-84532861D02*
X236603214Y-84532861D01*
X237031785Y-84532861D02*
X237031785Y-82952861D01*
X236888928Y-83178576D01*
X236746071Y-83329052D01*
X236603214Y-83404290D01*
X238746071Y-83479528D02*
X238746071Y-84532861D01*
X238388928Y-82877623D02*
X238031785Y-84006195D01*
X238960357Y-84006195D01*
X236603214Y-85647138D02*
X236674642Y-85571900D01*
X236817500Y-85496661D01*
X237174642Y-85496661D01*
X237317500Y-85571900D01*
X237388928Y-85647138D01*
X237460357Y-85797614D01*
X237460357Y-85948090D01*
X237388928Y-86173804D01*
X236531785Y-87076661D01*
X237460357Y-87076661D01*
X238388928Y-85496661D02*
X238531785Y-85496661D01*
X238674642Y-85571900D01*
X238746071Y-85647138D01*
X238817500Y-85797614D01*
X238888928Y-86098566D01*
X238888928Y-86474757D01*
X238817500Y-86775709D01*
X238746071Y-86926185D01*
X238674642Y-87001423D01*
X238531785Y-87076661D01*
X238388928Y-87076661D01*
X238246071Y-87001423D01*
X238174642Y-86926185D01*
X238103214Y-86775709D01*
X238031785Y-86474757D01*
X238031785Y-86098566D01*
X238103214Y-85797614D01*
X238174642Y-85647138D01*
X238246071Y-85571900D01*
X238388928Y-85496661D01*
X236603214Y-88190938D02*
X236674642Y-88115700D01*
X236817500Y-88040461D01*
X237174642Y-88040461D01*
X237317500Y-88115700D01*
X237388928Y-88190938D01*
X237460357Y-88341414D01*
X237460357Y-88491890D01*
X237388928Y-88717604D01*
X236531785Y-89620461D01*
X237460357Y-89620461D01*
X238888928Y-89620461D02*
X238031785Y-89620461D01*
X238460357Y-89620461D02*
X238460357Y-88040461D01*
X238317500Y-88266176D01*
X238174642Y-88416652D01*
X238031785Y-88491890D01*
X236603214Y-90734738D02*
X236674642Y-90659500D01*
X236817500Y-90584261D01*
X237174642Y-90584261D01*
X237317500Y-90659500D01*
X237388928Y-90734738D01*
X237460357Y-90885214D01*
X237460357Y-91035690D01*
X237388928Y-91261404D01*
X236531785Y-92164261D01*
X237460357Y-92164261D01*
X238031785Y-90734738D02*
X238103214Y-90659500D01*
X238246071Y-90584261D01*
X238603214Y-90584261D01*
X238746071Y-90659500D01*
X238817500Y-90734738D01*
X238888928Y-90885214D01*
X238888928Y-91035690D01*
X238817500Y-91261404D01*
X237960357Y-92164261D01*
X238888928Y-92164261D01*
X236603214Y-93278538D02*
X236674642Y-93203300D01*
X236817500Y-93128061D01*
X237174642Y-93128061D01*
X237317500Y-93203300D01*
X237388928Y-93278538D01*
X237460357Y-93429014D01*
X237460357Y-93579490D01*
X237388928Y-93805204D01*
X236531785Y-94708061D01*
X237460357Y-94708061D01*
X237960357Y-93128061D02*
X238888928Y-93128061D01*
X238388928Y-93729966D01*
X238603214Y-93729966D01*
X238746071Y-93805204D01*
X238817500Y-93880442D01*
X238888928Y-94030919D01*
X238888928Y-94407109D01*
X238817500Y-94557585D01*
X238746071Y-94632823D01*
X238603214Y-94708061D01*
X238174642Y-94708061D01*
X238031785Y-94632823D01*
X237960357Y-94557585D01*
X236603214Y-95822338D02*
X236674642Y-95747100D01*
X236817500Y-95671861D01*
X237174642Y-95671861D01*
X237317500Y-95747100D01*
X237388928Y-95822338D01*
X237460357Y-95972814D01*
X237460357Y-96123290D01*
X237388928Y-96349004D01*
X236531785Y-97251861D01*
X237460357Y-97251861D01*
X238746071Y-96198528D02*
X238746071Y-97251861D01*
X238388928Y-95596623D02*
X238031785Y-96725195D01*
X238960357Y-96725195D01*
X236531785Y-98215661D02*
X237460357Y-98215661D01*
X236960357Y-98817566D01*
X237174642Y-98817566D01*
X237317500Y-98892804D01*
X237388928Y-98968042D01*
X237460357Y-99118519D01*
X237460357Y-99494709D01*
X237388928Y-99645185D01*
X237317500Y-99720423D01*
X237174642Y-99795661D01*
X236746071Y-99795661D01*
X236603214Y-99720423D01*
X236531785Y-99645185D01*
X238388928Y-98215661D02*
X238531785Y-98215661D01*
X238674642Y-98290900D01*
X238746071Y-98366138D01*
X238817500Y-98516614D01*
X238888928Y-98817566D01*
X238888928Y-99193757D01*
X238817500Y-99494709D01*
X238746071Y-99645185D01*
X238674642Y-99720423D01*
X238531785Y-99795661D01*
X238388928Y-99795661D01*
X238246071Y-99720423D01*
X238174642Y-99645185D01*
X238103214Y-99494709D01*
X238031785Y-99193757D01*
X238031785Y-98817566D01*
X238103214Y-98516614D01*
X238174642Y-98366138D01*
X238246071Y-98290900D01*
X238388928Y-98215661D01*
X236531785Y-100759461D02*
X237460357Y-100759461D01*
X236960357Y-101361366D01*
X237174642Y-101361366D01*
X237317500Y-101436604D01*
X237388928Y-101511842D01*
X237460357Y-101662319D01*
X237460357Y-102038509D01*
X237388928Y-102188985D01*
X237317500Y-102264223D01*
X237174642Y-102339461D01*
X236746071Y-102339461D01*
X236603214Y-102264223D01*
X236531785Y-102188985D01*
X238888928Y-102339461D02*
X238031785Y-102339461D01*
X238460357Y-102339461D02*
X238460357Y-100759461D01*
X238317500Y-100985176D01*
X238174642Y-101135652D01*
X238031785Y-101210890D01*
X236531785Y-103303261D02*
X237460357Y-103303261D01*
X236960357Y-103905166D01*
X237174642Y-103905166D01*
X237317500Y-103980404D01*
X237388928Y-104055642D01*
X237460357Y-104206119D01*
X237460357Y-104582309D01*
X237388928Y-104732785D01*
X237317500Y-104808023D01*
X237174642Y-104883261D01*
X236746071Y-104883261D01*
X236603214Y-104808023D01*
X236531785Y-104732785D01*
X238031785Y-103453738D02*
X238103214Y-103378500D01*
X238246071Y-103303261D01*
X238603214Y-103303261D01*
X238746071Y-103378500D01*
X238817500Y-103453738D01*
X238888928Y-103604214D01*
X238888928Y-103754690D01*
X238817500Y-103980404D01*
X237960357Y-104883261D01*
X238888928Y-104883261D01*
X236531785Y-105847061D02*
X237460357Y-105847061D01*
X236960357Y-106448966D01*
X237174642Y-106448966D01*
X237317500Y-106524204D01*
X237388928Y-106599442D01*
X237460357Y-106749919D01*
X237460357Y-107126109D01*
X237388928Y-107276585D01*
X237317500Y-107351823D01*
X237174642Y-107427061D01*
X236746071Y-107427061D01*
X236603214Y-107351823D01*
X236531785Y-107276585D01*
X237960357Y-105847061D02*
X238888928Y-105847061D01*
X238388928Y-106448966D01*
X238603214Y-106448966D01*
X238746071Y-106524204D01*
X238817500Y-106599442D01*
X238888928Y-106749919D01*
X238888928Y-107126109D01*
X238817500Y-107276585D01*
X238746071Y-107351823D01*
X238603214Y-107427061D01*
X238174642Y-107427061D01*
X238031785Y-107351823D01*
X237960357Y-107276585D01*
X236531785Y-108390861D02*
X237460357Y-108390861D01*
X236960357Y-108992766D01*
X237174642Y-108992766D01*
X237317500Y-109068004D01*
X237388928Y-109143242D01*
X237460357Y-109293719D01*
X237460357Y-109669909D01*
X237388928Y-109820385D01*
X237317500Y-109895623D01*
X237174642Y-109970861D01*
X236746071Y-109970861D01*
X236603214Y-109895623D01*
X236531785Y-109820385D01*
X238746071Y-108917528D02*
X238746071Y-109970861D01*
X238388928Y-108315623D02*
X238031785Y-109444195D01*
X238960357Y-109444195D01*
X236674642Y-111912757D02*
X237817500Y-111912757D01*
X237246071Y-112514661D02*
X237246071Y-111310852D01*
X238460357Y-111085138D02*
X238531785Y-111009900D01*
X238674642Y-110934661D01*
X239031785Y-110934661D01*
X239174642Y-111009900D01*
X239246071Y-111085138D01*
X239317500Y-111235614D01*
X239317500Y-111386090D01*
X239246071Y-111611804D01*
X238388928Y-112514661D01*
X239317500Y-112514661D01*
X240246071Y-110934661D02*
X240388928Y-110934661D01*
X240531785Y-111009900D01*
X240603214Y-111085138D01*
X240674642Y-111235614D01*
X240746071Y-111536566D01*
X240746071Y-111912757D01*
X240674642Y-112213709D01*
X240603214Y-112364185D01*
X240531785Y-112439423D01*
X240388928Y-112514661D01*
X240246071Y-112514661D01*
X240103214Y-112439423D01*
X240031785Y-112364185D01*
X239960357Y-112213709D01*
X239888928Y-111912757D01*
X239888928Y-111536566D01*
X239960357Y-111235614D01*
X240031785Y-111085138D01*
X240103214Y-111009900D01*
X240246071Y-110934661D01*
X241174642Y-110934661D02*
X241674642Y-112514661D01*
X242174642Y-110934661D01*
X155907380Y-88254523D02*
X156907380Y-87921190D01*
X155907380Y-87587857D01*
X156907380Y-86683095D02*
X156431190Y-87016428D01*
X156907380Y-87254523D02*
X155907380Y-87254523D01*
X155907380Y-86873571D01*
X155955000Y-86778333D01*
X156002619Y-86730714D01*
X156097857Y-86683095D01*
X156240714Y-86683095D01*
X156335952Y-86730714D01*
X156383571Y-86778333D01*
X156431190Y-86873571D01*
X156431190Y-87254523D01*
X156907380Y-85730714D02*
X156907380Y-86302142D01*
X156907380Y-86016428D02*
X155907380Y-86016428D01*
X156050238Y-86111666D01*
X156145476Y-86206904D01*
X156193095Y-86302142D01*
X226187380Y-83156904D02*
X226996904Y-83156904D01*
X227092142Y-83109285D01*
X227139761Y-83061666D01*
X227187380Y-82966428D01*
X227187380Y-82775952D01*
X227139761Y-82680714D01*
X227092142Y-82633095D01*
X226996904Y-82585476D01*
X226187380Y-82585476D01*
X226187380Y-82204523D02*
X226187380Y-81585476D01*
X226568333Y-81918809D01*
X226568333Y-81775952D01*
X226615952Y-81680714D01*
X226663571Y-81633095D01*
X226758809Y-81585476D01*
X226996904Y-81585476D01*
X227092142Y-81633095D01*
X227139761Y-81680714D01*
X227187380Y-81775952D01*
X227187380Y-82061666D01*
X227139761Y-82156904D01*
X227092142Y-82204523D01*
X233346666Y-55102380D02*
X233346666Y-55816666D01*
X233299047Y-55959523D01*
X233203809Y-56054761D01*
X233060952Y-56102380D01*
X232965714Y-56102380D01*
X233775238Y-55197619D02*
X233822857Y-55150000D01*
X233918095Y-55102380D01*
X234156190Y-55102380D01*
X234251428Y-55150000D01*
X234299047Y-55197619D01*
X234346666Y-55292857D01*
X234346666Y-55388095D01*
X234299047Y-55530952D01*
X233727619Y-56102380D01*
X234346666Y-56102380D01*
X226187380Y-67916904D02*
X226996904Y-67916904D01*
X227092142Y-67869285D01*
X227139761Y-67821666D01*
X227187380Y-67726428D01*
X227187380Y-67535952D01*
X227139761Y-67440714D01*
X227092142Y-67393095D01*
X226996904Y-67345476D01*
X226187380Y-67345476D01*
X226282619Y-66916904D02*
X226235000Y-66869285D01*
X226187380Y-66774047D01*
X226187380Y-66535952D01*
X226235000Y-66440714D01*
X226282619Y-66393095D01*
X226377857Y-66345476D01*
X226473095Y-66345476D01*
X226615952Y-66393095D01*
X227187380Y-66964523D01*
X227187380Y-66345476D01*
X136187142Y-82696666D02*
X136234761Y-82744285D01*
X136282380Y-82887142D01*
X136282380Y-82982380D01*
X136234761Y-83125238D01*
X136139523Y-83220476D01*
X136044285Y-83268095D01*
X135853809Y-83315714D01*
X135710952Y-83315714D01*
X135520476Y-83268095D01*
X135425238Y-83220476D01*
X135330000Y-83125238D01*
X135282380Y-82982380D01*
X135282380Y-82887142D01*
X135330000Y-82744285D01*
X135377619Y-82696666D01*
X136282380Y-81744285D02*
X136282380Y-82315714D01*
X136282380Y-82030000D02*
X135282380Y-82030000D01*
X135425238Y-82125238D01*
X135520476Y-82220476D01*
X135568095Y-82315714D01*
X148692380Y-89026666D02*
X148692380Y-89502857D01*
X147692380Y-89502857D01*
X148692380Y-88169523D02*
X148692380Y-88740952D01*
X148692380Y-88455238D02*
X147692380Y-88455238D01*
X147835238Y-88550476D01*
X147930476Y-88645714D01*
X147978095Y-88740952D01*
X226187380Y-52676904D02*
X226996904Y-52676904D01*
X227092142Y-52629285D01*
X227139761Y-52581666D01*
X227187380Y-52486428D01*
X227187380Y-52295952D01*
X227139761Y-52200714D01*
X227092142Y-52153095D01*
X226996904Y-52105476D01*
X226187380Y-52105476D01*
X227187380Y-51105476D02*
X227187380Y-51676904D01*
X227187380Y-51391190D02*
X226187380Y-51391190D01*
X226330238Y-51486428D01*
X226425476Y-51581666D01*
X226473095Y-51676904D01*
X226187380Y-113636904D02*
X226996904Y-113636904D01*
X227092142Y-113589285D01*
X227139761Y-113541666D01*
X227187380Y-113446428D01*
X227187380Y-113255952D01*
X227139761Y-113160714D01*
X227092142Y-113113095D01*
X226996904Y-113065476D01*
X226187380Y-113065476D01*
X226187380Y-112160714D02*
X226187380Y-112351190D01*
X226235000Y-112446428D01*
X226282619Y-112494047D01*
X226425476Y-112589285D01*
X226615952Y-112636904D01*
X226996904Y-112636904D01*
X227092142Y-112589285D01*
X227139761Y-112541666D01*
X227187380Y-112446428D01*
X227187380Y-112255952D01*
X227139761Y-112160714D01*
X227092142Y-112113095D01*
X226996904Y-112065476D01*
X226758809Y-112065476D01*
X226663571Y-112113095D01*
X226615952Y-112160714D01*
X226568333Y-112255952D01*
X226568333Y-112446428D01*
X226615952Y-112541666D01*
X226663571Y-112589285D01*
X226758809Y-112636904D01*
X173583095Y-53887380D02*
X173583095Y-54696904D01*
X173630714Y-54792142D01*
X173678333Y-54839761D01*
X173773571Y-54887380D01*
X173964047Y-54887380D01*
X174059285Y-54839761D01*
X174106904Y-54792142D01*
X174154523Y-54696904D01*
X174154523Y-53887380D01*
X175059285Y-54220714D02*
X175059285Y-54887380D01*
X174821190Y-53839761D02*
X174583095Y-54554047D01*
X175202142Y-54554047D01*
X126187142Y-99266666D02*
X126234761Y-99314285D01*
X126282380Y-99457142D01*
X126282380Y-99552380D01*
X126234761Y-99695238D01*
X126139523Y-99790476D01*
X126044285Y-99838095D01*
X125853809Y-99885714D01*
X125710952Y-99885714D01*
X125520476Y-99838095D01*
X125425238Y-99790476D01*
X125330000Y-99695238D01*
X125282380Y-99552380D01*
X125282380Y-99457142D01*
X125330000Y-99314285D01*
X125377619Y-99266666D01*
X125377619Y-98885714D02*
X125330000Y-98838095D01*
X125282380Y-98742857D01*
X125282380Y-98504761D01*
X125330000Y-98409523D01*
X125377619Y-98361904D01*
X125472857Y-98314285D01*
X125568095Y-98314285D01*
X125710952Y-98361904D01*
X126282380Y-98933333D01*
X126282380Y-98314285D01*
X166732380Y-94718095D02*
X165732380Y-94718095D01*
X165732380Y-94480000D01*
X165780000Y-94337142D01*
X165875238Y-94241904D01*
X165970476Y-94194285D01*
X166160952Y-94146666D01*
X166303809Y-94146666D01*
X166494285Y-94194285D01*
X166589523Y-94241904D01*
X166684761Y-94337142D01*
X166732380Y-94480000D01*
X166732380Y-94718095D01*
X166732380Y-93194285D02*
X166732380Y-93765714D01*
X166732380Y-93480000D02*
X165732380Y-93480000D01*
X165875238Y-93575238D01*
X165970476Y-93670476D01*
X166018095Y-93765714D01*
X165612380Y-86621904D02*
X164612380Y-86621904D01*
X165612380Y-86050476D02*
X165040952Y-86479047D01*
X164612380Y-86050476D02*
X165183809Y-86621904D01*
X226187380Y-98396904D02*
X226996904Y-98396904D01*
X227092142Y-98349285D01*
X227139761Y-98301666D01*
X227187380Y-98206428D01*
X227187380Y-98015952D01*
X227139761Y-97920714D01*
X227092142Y-97873095D01*
X226996904Y-97825476D01*
X226187380Y-97825476D01*
X226187380Y-96873095D02*
X226187380Y-97349285D01*
X226663571Y-97396904D01*
X226615952Y-97349285D01*
X226568333Y-97254047D01*
X226568333Y-97015952D01*
X226615952Y-96920714D01*
X226663571Y-96873095D01*
X226758809Y-96825476D01*
X226996904Y-96825476D01*
X227092142Y-96873095D01*
X227139761Y-96920714D01*
X227187380Y-97015952D01*
X227187380Y-97254047D01*
X227139761Y-97349285D01*
X227092142Y-97396904D01*
D12*
X150722500Y-83820000D02*
X155167500Y-83820000D01*
X155167500Y-93980000D02*
X150722500Y-93980000D01*
X155167500Y-93980000D02*
X155167500Y-83820000D01*
D13*
X152927500Y-83177500D02*
G75*
G03*
X152927500Y-83177500I-100000J0D01*
G01*
D12*
X206125000Y-80645000D02*
X206125000Y-86995000D01*
X225675000Y-80645000D02*
X225675000Y-86995000D01*
D13*
X224890000Y-78785000D02*
G75*
G03*
X224890000Y-78785000I-100000J0D01*
G01*
D14*
X232350000Y-59690000D02*
X232350000Y-113090000D01*
X233680000Y-57090000D02*
X235010000Y-57090000D01*
X235010000Y-59690000D02*
X235010000Y-113090000D01*
X232350000Y-59690000D02*
X235010000Y-59690000D01*
X235010000Y-57090000D02*
X235010000Y-58420000D01*
X232350000Y-113090000D02*
X235010000Y-113090000D01*
D12*
X225675000Y-65405000D02*
X225675000Y-71755000D01*
X206125000Y-65405000D02*
X206125000Y-71755000D01*
D13*
X224890000Y-63545000D02*
G75*
G03*
X224890000Y-63545000I-100000J0D01*
G01*
D14*
X133580000Y-84021000D02*
X133120000Y-84021000D01*
X133779000Y-83861000D02*
X133120000Y-83861000D01*
X131040000Y-83901000D02*
X130427000Y-83901000D01*
X134649000Y-82140000D02*
X133120000Y-82140000D01*
X134560000Y-82621000D02*
X133120000Y-82621000D01*
X131040000Y-83461000D02*
X130015000Y-83461000D01*
X131040000Y-83141000D02*
X129812000Y-83141000D01*
X133733000Y-83901000D02*
X133120000Y-83901000D01*
X134660000Y-81900000D02*
X129500000Y-81900000D01*
X134051000Y-83581000D02*
X133120000Y-83581000D01*
X133906000Y-83741000D02*
X133120000Y-83741000D01*
X133865000Y-83781000D02*
X133120000Y-83781000D01*
X133555000Y-79095225D02*
X133555000Y-79595225D01*
X131040000Y-82741000D02*
X129638000Y-82741000D01*
X134600000Y-82460000D02*
X133120000Y-82460000D01*
X131040000Y-83821000D02*
X130337000Y-83821000D01*
X131040000Y-83501000D02*
X130045000Y-83501000D01*
X134571000Y-82580000D02*
X133120000Y-82580000D01*
X134409000Y-83021000D02*
X133120000Y-83021000D01*
X132995000Y-84341000D02*
X131165000Y-84341000D01*
X131040000Y-82460000D02*
X129560000Y-82460000D01*
X131040000Y-82180000D02*
X129515000Y-82180000D01*
X131040000Y-83381000D02*
X129958000Y-83381000D01*
X134304000Y-83221000D02*
X133120000Y-83221000D01*
X131040000Y-84181000D02*
X130829000Y-84181000D01*
X134390000Y-83061000D02*
X133120000Y-83061000D01*
X131040000Y-82340000D02*
X129537000Y-82340000D01*
X134445000Y-82941000D02*
X133120000Y-82941000D01*
X131040000Y-84141000D02*
X130761000Y-84141000D01*
X131040000Y-83621000D02*
X130143000Y-83621000D01*
X131040000Y-83181000D02*
X129833000Y-83181000D01*
X134630000Y-82300000D02*
X133120000Y-82300000D01*
X132885000Y-84381000D02*
X131275000Y-84381000D01*
X132364000Y-84501000D02*
X131796000Y-84501000D01*
X133091000Y-84301000D02*
X131069000Y-84301000D01*
X133981000Y-83661000D02*
X133120000Y-83661000D01*
X131040000Y-83701000D02*
X130216000Y-83701000D01*
X131040000Y-83941000D02*
X130475000Y-83941000D01*
X131040000Y-82941000D02*
X129715000Y-82941000D01*
X134229000Y-83341000D02*
X133120000Y-83341000D01*
X134202000Y-83381000D02*
X133120000Y-83381000D01*
X131040000Y-83341000D02*
X129931000Y-83341000D01*
X131040000Y-82260000D02*
X129524000Y-82260000D01*
X134659000Y-81980000D02*
X129501000Y-81980000D01*
X134370000Y-83101000D02*
X133120000Y-83101000D01*
X133523000Y-84061000D02*
X133120000Y-84061000D01*
X131040000Y-84061000D02*
X130637000Y-84061000D01*
X133634000Y-83981000D02*
X133120000Y-83981000D01*
X134175000Y-83421000D02*
X133120000Y-83421000D01*
X131040000Y-83861000D02*
X130381000Y-83861000D01*
X131040000Y-82661000D02*
X129612000Y-82661000D01*
X134656000Y-82060000D02*
X129504000Y-82060000D01*
X133805000Y-79345225D02*
X133305000Y-79345225D01*
X132598000Y-84461000D02*
X131562000Y-84461000D01*
X134115000Y-83501000D02*
X133120000Y-83501000D01*
X131040000Y-82981000D02*
X129732000Y-82981000D01*
X131040000Y-83061000D02*
X129770000Y-83061000D01*
X131040000Y-82380000D02*
X129544000Y-82380000D01*
X134645000Y-82180000D02*
X133120000Y-82180000D01*
X131040000Y-83661000D02*
X130179000Y-83661000D01*
X134548000Y-82661000D02*
X133120000Y-82661000D01*
X134581000Y-82540000D02*
X133120000Y-82540000D01*
X131040000Y-83581000D02*
X130109000Y-83581000D01*
X134641000Y-82220000D02*
X133120000Y-82220000D01*
X131040000Y-82821000D02*
X129666000Y-82821000D01*
X134508000Y-82781000D02*
X133120000Y-82781000D01*
X134636000Y-82260000D02*
X133120000Y-82260000D01*
X134658000Y-82020000D02*
X129502000Y-82020000D01*
X134145000Y-83461000D02*
X133120000Y-83461000D01*
X131040000Y-83221000D02*
X129856000Y-83221000D01*
X134660000Y-81940000D02*
X129500000Y-81940000D01*
X134591000Y-82500000D02*
X133120000Y-82500000D01*
X131040000Y-82140000D02*
X129511000Y-82140000D01*
X131040000Y-83421000D02*
X129985000Y-83421000D01*
X131040000Y-82781000D02*
X129652000Y-82781000D01*
X134478000Y-82861000D02*
X133120000Y-82861000D01*
X134653000Y-82100000D02*
X129507000Y-82100000D01*
X134255000Y-83301000D02*
X133120000Y-83301000D01*
X133178000Y-84261000D02*
X130982000Y-84261000D01*
X134084000Y-83541000D02*
X133120000Y-83541000D01*
X133685000Y-83941000D02*
X133120000Y-83941000D01*
X134327000Y-83181000D02*
X133120000Y-83181000D01*
X131040000Y-82540000D02*
X129579000Y-82540000D01*
X131040000Y-82300000D02*
X129530000Y-82300000D01*
X131040000Y-82220000D02*
X129519000Y-82220000D01*
X131040000Y-82420000D02*
X129552000Y-82420000D01*
X134608000Y-82420000D02*
X133120000Y-82420000D01*
X131040000Y-82861000D02*
X129682000Y-82861000D01*
X131040000Y-82701000D02*
X129625000Y-82701000D01*
X134623000Y-82340000D02*
X133120000Y-82340000D01*
X131040000Y-83101000D02*
X129790000Y-83101000D01*
X131040000Y-83541000D02*
X130076000Y-83541000D01*
X134616000Y-82380000D02*
X133120000Y-82380000D01*
X131040000Y-84021000D02*
X130580000Y-84021000D01*
X133463000Y-84101000D02*
X133120000Y-84101000D01*
X134348000Y-83141000D02*
X133120000Y-83141000D01*
X133944000Y-83701000D02*
X133120000Y-83701000D01*
X133331000Y-84181000D02*
X133120000Y-84181000D01*
X133823000Y-83821000D02*
X133120000Y-83821000D01*
X134494000Y-82821000D02*
X133120000Y-82821000D01*
X131040000Y-82500000D02*
X129569000Y-82500000D01*
X134462000Y-82901000D02*
X133120000Y-82901000D01*
X131040000Y-83021000D02*
X129751000Y-83021000D01*
X131040000Y-83781000D02*
X130295000Y-83781000D01*
X131040000Y-83981000D02*
X130526000Y-83981000D01*
X134428000Y-82981000D02*
X133120000Y-82981000D01*
X131040000Y-82621000D02*
X129600000Y-82621000D01*
X134522000Y-82741000D02*
X133120000Y-82741000D01*
X131040000Y-83301000D02*
X129905000Y-83301000D01*
X134017000Y-83621000D02*
X133120000Y-83621000D01*
X131040000Y-84101000D02*
X130697000Y-84101000D01*
X134280000Y-83261000D02*
X133120000Y-83261000D01*
X131040000Y-83741000D02*
X130254000Y-83741000D01*
X133399000Y-84141000D02*
X133120000Y-84141000D01*
X132757000Y-84421000D02*
X131403000Y-84421000D01*
X131040000Y-82901000D02*
X129698000Y-82901000D01*
X131040000Y-83261000D02*
X129880000Y-83261000D01*
X131040000Y-82580000D02*
X129589000Y-82580000D01*
X133258000Y-84221000D02*
X130902000Y-84221000D01*
X134535000Y-82701000D02*
X133120000Y-82701000D01*
X134700000Y-81900000D02*
G75*
G03*
X134700000Y-81900000I-2620000J0D01*
G01*
X147110000Y-88860000D02*
G75*
G03*
X147110000Y-88860000I-4870000J0D01*
G01*
X158060000Y-120540000D02*
X158060000Y-120490000D01*
X157560000Y-122190000D02*
X158060000Y-122440000D01*
X157560000Y-120740000D02*
X157560000Y-115340000D01*
X157560000Y-123140000D02*
X157560000Y-122190000D01*
X158060000Y-120490000D02*
X157560000Y-120740000D01*
X158060000Y-122440000D02*
X158060000Y-120540000D01*
X158060000Y-110540000D02*
X147210000Y-110540000D01*
X157560000Y-115340000D02*
X158060000Y-115640000D01*
X158060000Y-115640000D02*
X158060000Y-110540000D01*
X147210000Y-110540000D02*
X147210000Y-123140000D01*
X147210000Y-123140000D02*
X157560000Y-123140000D01*
D12*
X206125000Y-50165000D02*
X206125000Y-56515000D01*
X225675000Y-50165000D02*
X225675000Y-56515000D01*
D13*
X224890000Y-48305000D02*
G75*
G03*
X224890000Y-48305000I-100000J0D01*
G01*
D12*
X206125000Y-111125000D02*
X206125000Y-117475000D01*
X225675000Y-111125000D02*
X225675000Y-117475000D01*
D13*
X224890000Y-109265000D02*
G75*
G03*
X224890000Y-109265000I-100000J0D01*
G01*
D12*
X171420000Y-56320000D02*
X171420000Y-111320000D01*
X171420000Y-56320000D02*
X199420000Y-56320000D01*
X199420000Y-56320000D02*
X199420000Y-111320000D01*
X171420000Y-111320000D02*
X199420000Y-111320000D01*
D14*
X127496000Y-96899000D02*
X130839000Y-96899000D01*
X129641000Y-94619000D02*
X134519000Y-94619000D01*
X128560000Y-95419000D02*
X130839000Y-95419000D01*
X131481000Y-94019000D02*
X132679000Y-94019000D01*
X131218000Y-94059000D02*
X132942000Y-94059000D01*
X129250000Y-94859000D02*
X134910000Y-94859000D01*
X128091000Y-95939000D02*
X130839000Y-95939000D01*
X127062000Y-98299000D02*
X137098000Y-98299000D01*
X133321000Y-95819000D02*
X135972000Y-95819000D01*
X133321000Y-96859000D02*
X136644000Y-96859000D01*
X133321000Y-96419000D02*
X136403000Y-96419000D01*
X127833000Y-96299000D02*
X130839000Y-96299000D01*
X127914000Y-96179000D02*
X130839000Y-96179000D01*
X127000000Y-99100000D02*
X137160000Y-99100000D01*
X133321000Y-97779000D02*
X136987000Y-97779000D01*
X128401000Y-95579000D02*
X130839000Y-95579000D01*
X127326000Y-97299000D02*
X130839000Y-97299000D01*
X127056000Y-98339000D02*
X137104000Y-98339000D01*
X130702000Y-94179000D02*
X133458000Y-94179000D01*
X127390000Y-97139000D02*
X130839000Y-97139000D01*
X127297000Y-97379000D02*
X130839000Y-97379000D01*
X127045000Y-98420000D02*
X137115000Y-98420000D01*
X133321000Y-97739000D02*
X136977000Y-97739000D01*
X133321000Y-96019000D02*
X136130000Y-96019000D01*
X127195000Y-97699000D02*
X130839000Y-97699000D01*
X133321000Y-96899000D02*
X136664000Y-96899000D01*
X127018000Y-98660000D02*
X137142000Y-98660000D01*
X133321000Y-95659000D02*
X135833000Y-95659000D01*
X133321000Y-95899000D02*
X136037000Y-95899000D01*
X127083000Y-98179000D02*
X137077000Y-98179000D01*
X129310000Y-94819000D02*
X134850000Y-94819000D01*
X129715000Y-94579000D02*
X134445000Y-94579000D01*
X127733000Y-96459000D02*
X130839000Y-96459000D01*
X127010000Y-98780000D02*
X137150000Y-98780000D01*
X128644000Y-95339000D02*
X135516000Y-95339000D01*
X128479000Y-95499000D02*
X130839000Y-95499000D01*
X127069000Y-98259000D02*
X137091000Y-98259000D01*
X127663000Y-96579000D02*
X130839000Y-96579000D01*
X127970000Y-96099000D02*
X130839000Y-96099000D01*
X133321000Y-97459000D02*
X136891000Y-97459000D01*
X128519000Y-95459000D02*
X130839000Y-95459000D01*
X128779000Y-95219000D02*
X135381000Y-95219000D01*
X127576000Y-96739000D02*
X130839000Y-96739000D01*
X133321000Y-96379000D02*
X136378000Y-96379000D01*
X133321000Y-95699000D02*
X135869000Y-95699000D01*
X133321000Y-95939000D02*
X136069000Y-95939000D01*
X133321000Y-95739000D02*
X135904000Y-95739000D01*
X133321000Y-96299000D02*
X136327000Y-96299000D01*
X127312000Y-97339000D02*
X130839000Y-97339000D01*
X127342000Y-97259000D02*
X130839000Y-97259000D01*
X133321000Y-96099000D02*
X136190000Y-96099000D01*
X133321000Y-97219000D02*
X136803000Y-97219000D01*
X129205000Y-104579646D02*
X129205000Y-103579646D01*
X127076000Y-98219000D02*
X137084000Y-98219000D01*
X127230000Y-97579000D02*
X130839000Y-97579000D01*
X133321000Y-96339000D02*
X136353000Y-96339000D01*
X133321000Y-97179000D02*
X136787000Y-97179000D01*
X133321000Y-96059000D02*
X136160000Y-96059000D01*
X133321000Y-95459000D02*
X135641000Y-95459000D01*
X133321000Y-97299000D02*
X136834000Y-97299000D01*
X133321000Y-95859000D02*
X136005000Y-95859000D01*
X128440000Y-95539000D02*
X130839000Y-95539000D01*
X133321000Y-95379000D02*
X135558000Y-95379000D01*
X133321000Y-97019000D02*
X136719000Y-97019000D01*
X133321000Y-95779000D02*
X135938000Y-95779000D01*
X133321000Y-97259000D02*
X136818000Y-97259000D01*
X127555000Y-96779000D02*
X130839000Y-96779000D01*
X127030000Y-98540000D02*
X137130000Y-98540000D01*
X129135000Y-94939000D02*
X135025000Y-94939000D01*
X128000000Y-96059000D02*
X130839000Y-96059000D01*
X129191000Y-94899000D02*
X134969000Y-94899000D01*
X133321000Y-96699000D02*
X136563000Y-96699000D01*
X127026000Y-98580000D02*
X137134000Y-98580000D01*
X133321000Y-96499000D02*
X136451000Y-96499000D01*
X133321000Y-96779000D02*
X136605000Y-96779000D01*
X133321000Y-95979000D02*
X136100000Y-95979000D01*
X128688000Y-95299000D02*
X135472000Y-95299000D01*
X128733000Y-95259000D02*
X135427000Y-95259000D01*
X129435000Y-94739000D02*
X134725000Y-94739000D01*
X127152000Y-97859000D02*
X137008000Y-97859000D01*
X127000000Y-99020000D02*
X137160000Y-99020000D01*
X127256000Y-97499000D02*
X130839000Y-97499000D01*
X128291000Y-95699000D02*
X130839000Y-95699000D01*
X133321000Y-95579000D02*
X135759000Y-95579000D01*
X128364000Y-95619000D02*
X130839000Y-95619000D01*
X133321000Y-97139000D02*
X136770000Y-97139000D01*
X127618000Y-96659000D02*
X130839000Y-96659000D01*
X127003000Y-98900000D02*
X137157000Y-98900000D01*
X133321000Y-97659000D02*
X136954000Y-97659000D01*
X127115000Y-98019000D02*
X137045000Y-98019000D01*
X133321000Y-96939000D02*
X136683000Y-96939000D01*
X127459000Y-96979000D02*
X130839000Y-96979000D01*
X130450000Y-94259000D02*
X133710000Y-94259000D01*
X127142000Y-97899000D02*
X137018000Y-97899000D01*
X129871000Y-94499000D02*
X134289000Y-94499000D01*
X128123000Y-95899000D02*
X130839000Y-95899000D01*
X127133000Y-97939000D02*
X137027000Y-97939000D01*
X127183000Y-97739000D02*
X130839000Y-97739000D01*
X133321000Y-96539000D02*
X136475000Y-96539000D01*
X127098000Y-98099000D02*
X137062000Y-98099000D01*
X130136000Y-94379000D02*
X134024000Y-94379000D01*
X133321000Y-97819000D02*
X136998000Y-97819000D01*
X127423000Y-97059000D02*
X130839000Y-97059000D01*
X130043000Y-94419000D02*
X134117000Y-94419000D01*
X129791000Y-94539000D02*
X134369000Y-94539000D01*
X129501000Y-94699000D02*
X134659000Y-94699000D01*
X133321000Y-97099000D02*
X136754000Y-97099000D01*
X133321000Y-96579000D02*
X136497000Y-96579000D01*
X133321000Y-96979000D02*
X136701000Y-96979000D01*
X133321000Y-95619000D02*
X135796000Y-95619000D01*
X133321000Y-96619000D02*
X136520000Y-96619000D01*
X133321000Y-97339000D02*
X136848000Y-97339000D01*
X127709000Y-96499000D02*
X130839000Y-96499000D01*
X127106000Y-98059000D02*
X137054000Y-98059000D01*
X133321000Y-96139000D02*
X136218000Y-96139000D01*
X133321000Y-96179000D02*
X136246000Y-96179000D01*
X127243000Y-97539000D02*
X130839000Y-97539000D01*
X133321000Y-96259000D02*
X136301000Y-96259000D01*
X127269000Y-97459000D02*
X130839000Y-97459000D01*
X127218000Y-97619000D02*
X130839000Y-97619000D01*
X128602000Y-95379000D02*
X130839000Y-95379000D01*
X127090000Y-98139000D02*
X137070000Y-98139000D01*
X128974000Y-95059000D02*
X135186000Y-95059000D01*
X133321000Y-96739000D02*
X136584000Y-96739000D01*
X128924000Y-95099000D02*
X135236000Y-95099000D01*
X127477000Y-96939000D02*
X130839000Y-96939000D01*
X133321000Y-96659000D02*
X136542000Y-96659000D01*
X127685000Y-96539000D02*
X130839000Y-96539000D01*
X129955000Y-94459000D02*
X134205000Y-94459000D01*
X130850000Y-94139000D02*
X133310000Y-94139000D01*
X128826000Y-95179000D02*
X135334000Y-95179000D01*
X127357000Y-97219000D02*
X130839000Y-97219000D01*
X127757000Y-96419000D02*
X130839000Y-96419000D01*
X129570000Y-94659000D02*
X134590000Y-94659000D01*
X127807000Y-96339000D02*
X130839000Y-96339000D01*
X133321000Y-96819000D02*
X136625000Y-96819000D01*
X133321000Y-95539000D02*
X135720000Y-95539000D01*
X127007000Y-98820000D02*
X137153000Y-98820000D01*
X133321000Y-96219000D02*
X136274000Y-96219000D01*
X127000000Y-99060000D02*
X137160000Y-99060000D01*
X127283000Y-97419000D02*
X130839000Y-97419000D01*
X127162000Y-97819000D02*
X130839000Y-97819000D01*
X128155000Y-95859000D02*
X130839000Y-95859000D01*
X128222000Y-95779000D02*
X130839000Y-95779000D01*
X130338000Y-94299000D02*
X133822000Y-94299000D01*
X127001000Y-98980000D02*
X137159000Y-98980000D01*
X127942000Y-96139000D02*
X130839000Y-96139000D01*
X128188000Y-95819000D02*
X130839000Y-95819000D01*
X127002000Y-98940000D02*
X137158000Y-98940000D01*
X128327000Y-95659000D02*
X130839000Y-95659000D01*
X127886000Y-96219000D02*
X130839000Y-96219000D01*
X127022000Y-98620000D02*
X137138000Y-98620000D01*
X127005000Y-98860000D02*
X137155000Y-98860000D01*
X127373000Y-97179000D02*
X130839000Y-97179000D01*
X127012000Y-98740000D02*
X137148000Y-98740000D01*
X133321000Y-95419000D02*
X135600000Y-95419000D01*
X127124000Y-97979000D02*
X137036000Y-97979000D01*
X133321000Y-97499000D02*
X136904000Y-97499000D01*
X128256000Y-95739000D02*
X130839000Y-95739000D01*
X129026000Y-95019000D02*
X135134000Y-95019000D01*
X130570000Y-94219000D02*
X133590000Y-94219000D01*
X129371000Y-94779000D02*
X134789000Y-94779000D01*
X127040000Y-98460000D02*
X137120000Y-98460000D01*
X131018000Y-94099000D02*
X133142000Y-94099000D01*
X133321000Y-97579000D02*
X136930000Y-97579000D01*
X127441000Y-97019000D02*
X130839000Y-97019000D01*
X127597000Y-96699000D02*
X130839000Y-96699000D01*
X129080000Y-94979000D02*
X135080000Y-94979000D01*
X127535000Y-96819000D02*
X130839000Y-96819000D01*
X127859000Y-96259000D02*
X130839000Y-96259000D01*
X127406000Y-97099000D02*
X130839000Y-97099000D01*
X127015000Y-98700000D02*
X137145000Y-98700000D01*
X127035000Y-98500000D02*
X137125000Y-98500000D01*
X133321000Y-97059000D02*
X136737000Y-97059000D01*
X133321000Y-97379000D02*
X136863000Y-97379000D01*
X128874000Y-95139000D02*
X135286000Y-95139000D01*
X128705000Y-104079646D02*
X129705000Y-104079646D01*
X133321000Y-97699000D02*
X136965000Y-97699000D01*
X133321000Y-97619000D02*
X136942000Y-97619000D01*
X127173000Y-97779000D02*
X130839000Y-97779000D01*
X127782000Y-96379000D02*
X130839000Y-96379000D01*
X128060000Y-95979000D02*
X130839000Y-95979000D01*
X127206000Y-97659000D02*
X130839000Y-97659000D01*
X133321000Y-96459000D02*
X136427000Y-96459000D01*
X133321000Y-97419000D02*
X136877000Y-97419000D01*
X130234000Y-94339000D02*
X133926000Y-94339000D01*
X128030000Y-96019000D02*
X130839000Y-96019000D01*
X133321000Y-97539000D02*
X136917000Y-97539000D01*
X127050000Y-98379000D02*
X137110000Y-98379000D01*
X127516000Y-96859000D02*
X130839000Y-96859000D01*
X127640000Y-96619000D02*
X130839000Y-96619000D01*
X133321000Y-95499000D02*
X135681000Y-95499000D01*
X137200000Y-99100000D02*
G75*
G03*
X137200000Y-99100000I-5120000J0D01*
G01*
G36*
X162089225Y-65276927D02*
G01*
X162166765Y-65277137D01*
X162255141Y-65277465D01*
X162355125Y-65277855D01*
X162365510Y-65277894D01*
X162466612Y-65278273D01*
X162556128Y-65278643D01*
X162634931Y-65279056D01*
X162703891Y-65279566D01*
X162763880Y-65280227D01*
X162815769Y-65281091D01*
X162860431Y-65282214D01*
X162898736Y-65283648D01*
X162931556Y-65285446D01*
X162959762Y-65287663D01*
X162984227Y-65290352D01*
X163005821Y-65293566D01*
X163025416Y-65297359D01*
X163043883Y-65301784D01*
X163062095Y-65306895D01*
X163080921Y-65312746D01*
X163101235Y-65319390D01*
X163114963Y-65323933D01*
X163200860Y-65358104D01*
X163277805Y-65400899D01*
X163345820Y-65452345D01*
X163404925Y-65512469D01*
X163455142Y-65581296D01*
X163496492Y-65658854D01*
X163528995Y-65745168D01*
X163552673Y-65840266D01*
X163560664Y-65887358D01*
X163564352Y-65921334D01*
X163567033Y-65964472D01*
X163568742Y-66014587D01*
X163569514Y-66069497D01*
X163569386Y-66127018D01*
X163568393Y-66184967D01*
X163566571Y-66241160D01*
X163563955Y-66293414D01*
X163560581Y-66339546D01*
X163556486Y-66377372D01*
X163552245Y-66402360D01*
X163527519Y-66494106D01*
X163496180Y-66575934D01*
X163457837Y-66648719D01*
X163414602Y-66710243D01*
X163357106Y-66773015D01*
X163292998Y-66826120D01*
X163221490Y-66870040D01*
X163141797Y-66905259D01*
X163053130Y-66932259D01*
X163052360Y-66932449D01*
X162984489Y-66949136D01*
X163257604Y-67404526D01*
X163310411Y-67492716D01*
X163356961Y-67570764D01*
X163397524Y-67639138D01*
X163432368Y-67698305D01*
X163461763Y-67748735D01*
X163485979Y-67790894D01*
X163505285Y-67825252D01*
X163519951Y-67852276D01*
X163530246Y-67872433D01*
X163536440Y-67886193D01*
X163538490Y-67892312D01*
X163543417Y-67937115D01*
X163536291Y-67979119D01*
X163517341Y-68017623D01*
X163486795Y-68051924D01*
X163486694Y-68052013D01*
X163445038Y-68082528D01*
X163402722Y-68101751D01*
X163360723Y-68109471D01*
X163320019Y-68105477D01*
X163290432Y-68094418D01*
X163260214Y-68074392D01*
X163234585Y-68048831D01*
X163234375Y-68048565D01*
X163227982Y-68039175D01*
X163215677Y-68019860D01*
X163197932Y-67991390D01*
X163175215Y-67954541D01*
X163147998Y-67910083D01*
X163116751Y-67858789D01*
X163081944Y-67801433D01*
X163044046Y-67738786D01*
X163003529Y-67671621D01*
X162960861Y-67600712D01*
X162916514Y-67526830D01*
X162893850Y-67489002D01*
X162576194Y-66958498D01*
X162006640Y-66958088D01*
X162004904Y-67454814D01*
X162004582Y-67545125D01*
X162004275Y-67623831D01*
X162003958Y-67691783D01*
X162003607Y-67749833D01*
X162003199Y-67798832D01*
X162002709Y-67839633D01*
X162002114Y-67873086D01*
X162001390Y-67900044D01*
X162000512Y-67921358D01*
X161999458Y-67937880D01*
X161998201Y-67950461D01*
X161996720Y-67959953D01*
X161994990Y-67967207D01*
X161992987Y-67973076D01*
X161990687Y-67978411D01*
X161990152Y-67979569D01*
X161971790Y-68008467D01*
X161946295Y-68034697D01*
X161917671Y-68054524D01*
X161902769Y-68061101D01*
X161884571Y-68065116D01*
X161859116Y-68067977D01*
X161831592Y-68069122D01*
X161828769Y-68069119D01*
X161779792Y-68064879D01*
X161739596Y-68052356D01*
X161707163Y-68030962D01*
X161681478Y-68000108D01*
X161668718Y-67976454D01*
X161654370Y-67945312D01*
X161654370Y-66680917D01*
X161654374Y-66609960D01*
X162006283Y-66609960D01*
X162459409Y-66607705D01*
X162545487Y-66607269D01*
X162620052Y-66606856D01*
X162684046Y-66606438D01*
X162738413Y-66605984D01*
X162784097Y-66605465D01*
X162822039Y-66604850D01*
X162853184Y-66604110D01*
X162878476Y-66603214D01*
X162898856Y-66602134D01*
X162915269Y-66600838D01*
X162928658Y-66599297D01*
X162939965Y-66597482D01*
X162950135Y-66595362D01*
X162960111Y-66592907D01*
X162964777Y-66591688D01*
X163015701Y-66575029D01*
X163062214Y-66553540D01*
X163101520Y-66528701D01*
X163127758Y-66505430D01*
X163151260Y-66474247D01*
X163173385Y-66434382D01*
X163192318Y-66389605D01*
X163206246Y-66343683D01*
X163206821Y-66341243D01*
X163210095Y-66325160D01*
X163212646Y-66307389D01*
X163214552Y-66286228D01*
X163215890Y-66259976D01*
X163216740Y-66226932D01*
X163217178Y-66185396D01*
X163217284Y-66133665D01*
X163217259Y-66114120D01*
X163217093Y-66060826D01*
X163216745Y-66018253D01*
X163216112Y-65984663D01*
X163215091Y-65958321D01*
X163213578Y-65937490D01*
X163211470Y-65920433D01*
X163208663Y-65905415D01*
X163205055Y-65890698D01*
X163203655Y-65885554D01*
X163182520Y-65823655D01*
X163156011Y-65772335D01*
X163123403Y-65730614D01*
X163083977Y-65697515D01*
X163050548Y-65678273D01*
X163030895Y-65669045D01*
X163011557Y-65660953D01*
X162991607Y-65653924D01*
X162970117Y-65647883D01*
X162946159Y-65642755D01*
X162918806Y-65638466D01*
X162887131Y-65634942D01*
X162850205Y-65632109D01*
X162807102Y-65629891D01*
X162756893Y-65628215D01*
X162698652Y-65627006D01*
X162631450Y-65626189D01*
X162554361Y-65625691D01*
X162466455Y-65625437D01*
X162390895Y-65625361D01*
X162006283Y-65625179D01*
X162006283Y-66609960D01*
X161654374Y-66609960D01*
X161654379Y-66530666D01*
X161654411Y-66392380D01*
X161654467Y-66265568D01*
X161654552Y-66149739D01*
X161654669Y-66044401D01*
X161654820Y-65949062D01*
X161655011Y-65863232D01*
X161655243Y-65786418D01*
X161655521Y-65718129D01*
X161655847Y-65657874D01*
X161656082Y-65625179D01*
X161656226Y-65605161D01*
X161656660Y-65559499D01*
X161657153Y-65520396D01*
X161657709Y-65487360D01*
X161658330Y-65459901D01*
X161659020Y-65437526D01*
X161659783Y-65419744D01*
X161660621Y-65406065D01*
X161661539Y-65395995D01*
X161662540Y-65389044D01*
X161663304Y-65385725D01*
X161678892Y-65352420D01*
X161700676Y-65325555D01*
X161708456Y-65317353D01*
X161715475Y-65310099D01*
X161722506Y-65303739D01*
X161730322Y-65298217D01*
X161739696Y-65293477D01*
X161751401Y-65289465D01*
X161766211Y-65286124D01*
X161784899Y-65283400D01*
X161808237Y-65281236D01*
X161836999Y-65279578D01*
X161871958Y-65278369D01*
X161913887Y-65277555D01*
X161963559Y-65277081D01*
X162021748Y-65276890D01*
X162089225Y-65276927D01*
G37*
G36*
X156264377Y-67622619D02*
G01*
X156264041Y-67552634D01*
X156263804Y-67474186D01*
X156263649Y-67386763D01*
X156263561Y-67289854D01*
X156263524Y-67182947D01*
X156263522Y-67065532D01*
X156263539Y-66937098D01*
X156263558Y-66797134D01*
X156263565Y-66674548D01*
X156263560Y-66525655D01*
X156263550Y-66388703D01*
X156263550Y-66385400D01*
X156612364Y-66385400D01*
X157140233Y-66383674D01*
X157668102Y-66381947D01*
X157702898Y-66365630D01*
X157740558Y-66343237D01*
X157771475Y-66313918D01*
X157796680Y-66276253D01*
X157817205Y-66228819D01*
X157828292Y-66192937D01*
X157832649Y-66175585D01*
X157835931Y-66158354D01*
X157838289Y-66139109D01*
X157839872Y-66115716D01*
X157840830Y-66086040D01*
X157841313Y-66047948D01*
X157841464Y-66005120D01*
X157841313Y-65954676D01*
X157840652Y-65914726D01*
X157839371Y-65883313D01*
X157837359Y-65858482D01*
X157834508Y-65838276D01*
X157831226Y-65822803D01*
X157814061Y-65770020D01*
X157790496Y-65727140D01*
X157759414Y-65693077D01*
X157719701Y-65666748D01*
X157670245Y-65647069D01*
X157643079Y-65639752D01*
X157633809Y-65637835D01*
X157622654Y-65636149D01*
X157608751Y-65634675D01*
X157591233Y-65633391D01*
X157569239Y-65632277D01*
X157541902Y-65631311D01*
X157508359Y-65630474D01*
X157467746Y-65629743D01*
X157419198Y-65629100D01*
X157361851Y-65628522D01*
X157294841Y-65627989D01*
X157217303Y-65627480D01*
X157128373Y-65626975D01*
X157105976Y-65626856D01*
X156612364Y-65624258D01*
X156612364Y-66385400D01*
X156263550Y-66385400D01*
X156263551Y-66263174D01*
X156263573Y-66148553D01*
X156263631Y-66044323D01*
X156263736Y-65949967D01*
X156263902Y-65864970D01*
X156264140Y-65788813D01*
X156264465Y-65720982D01*
X156264889Y-65660959D01*
X156265261Y-65624258D01*
X156265424Y-65608228D01*
X156266083Y-65562273D01*
X156266879Y-65522576D01*
X156267825Y-65488622D01*
X156268933Y-65459893D01*
X156270216Y-65435874D01*
X156271687Y-65416047D01*
X156273359Y-65399897D01*
X156275244Y-65386906D01*
X156277356Y-65376559D01*
X156279706Y-65368338D01*
X156282308Y-65361728D01*
X156285175Y-65356211D01*
X156288318Y-65351272D01*
X156291752Y-65346393D01*
X156295488Y-65341058D01*
X156296509Y-65339534D01*
X156311287Y-65322958D01*
X156332291Y-65306154D01*
X156345208Y-65298096D01*
X156378794Y-65279495D01*
X156967391Y-65277545D01*
X157081103Y-65277228D01*
X157182803Y-65277077D01*
X157272936Y-65277093D01*
X157351948Y-65277280D01*
X157420283Y-65277643D01*
X157478385Y-65278184D01*
X157526699Y-65278908D01*
X157565670Y-65279818D01*
X157595743Y-65280917D01*
X157617362Y-65282209D01*
X157624502Y-65282860D01*
X157719517Y-65298025D01*
X157806336Y-65322434D01*
X157884827Y-65355975D01*
X157954861Y-65398537D01*
X158016307Y-65450008D01*
X158069035Y-65510275D01*
X158112913Y-65579228D01*
X158147813Y-65656754D01*
X158173602Y-65742741D01*
X158176604Y-65756027D01*
X158180954Y-65777138D01*
X158184326Y-65796850D01*
X158186847Y-65817190D01*
X158188641Y-65840185D01*
X158189833Y-65867863D01*
X158190550Y-65902250D01*
X158190916Y-65945374D01*
X158191044Y-65989549D01*
X158191048Y-66040863D01*
X158190810Y-66081619D01*
X158190212Y-66113719D01*
X158189139Y-66139061D01*
X158187473Y-66159546D01*
X158185097Y-66177074D01*
X158181896Y-66193543D01*
X158177752Y-66210854D01*
X158177366Y-66212371D01*
X158151624Y-66293237D01*
X158118052Y-66364754D01*
X158076768Y-66426693D01*
X158053588Y-66453662D01*
X158025466Y-66483727D01*
X158061669Y-66508325D01*
X158126520Y-66559156D01*
X158182848Y-66617911D01*
X158230951Y-66685067D01*
X158271128Y-66761102D01*
X158303677Y-66846492D01*
X158326797Y-66932187D01*
X158330343Y-66948713D01*
X158333214Y-66964544D01*
X158335483Y-66981206D01*
X158337222Y-67000226D01*
X158338502Y-67023131D01*
X158339397Y-67051448D01*
X158339978Y-67086702D01*
X158340317Y-67130421D01*
X158340487Y-67184131D01*
X158340538Y-67222801D01*
X158340560Y-67283109D01*
X158340448Y-67332507D01*
X158340129Y-67372545D01*
X158339529Y-67404770D01*
X158338573Y-67430729D01*
X158337187Y-67451972D01*
X158335297Y-67470045D01*
X158332829Y-67486497D01*
X158329708Y-67502875D01*
X158326357Y-67518483D01*
X158314328Y-67569313D01*
X158302149Y-67611997D01*
X158288377Y-67650779D01*
X158271570Y-67689903D01*
X158259652Y-67714856D01*
X158216755Y-67788540D01*
X158164554Y-67853959D01*
X158103092Y-67911084D01*
X158032408Y-67959885D01*
X157952546Y-68000334D01*
X157863545Y-68032402D01*
X157767759Y-68055621D01*
X157756388Y-68057743D01*
X157745186Y-68059625D01*
X157733364Y-68061286D01*
X157720136Y-68062741D01*
X157704715Y-68064006D01*
X157686314Y-68065099D01*
X157664145Y-68066034D01*
X157637421Y-68066830D01*
X157605356Y-68067501D01*
X157567162Y-68068064D01*
X157522052Y-68068536D01*
X157469239Y-68068934D01*
X157407937Y-68069272D01*
X157337356Y-68069569D01*
X157256712Y-68069839D01*
X157165216Y-68070100D01*
X157062082Y-68070368D01*
X157057705Y-68070379D01*
X156968817Y-68070553D01*
X156883079Y-68070619D01*
X156801359Y-68070584D01*
X156724522Y-68070452D01*
X156653436Y-68070228D01*
X156588967Y-68069916D01*
X156531982Y-68069522D01*
X156483347Y-68069050D01*
X156443929Y-68068505D01*
X156414595Y-68067892D01*
X156396210Y-68067215D01*
X156390169Y-68066678D01*
X156355773Y-68056210D01*
X156327502Y-68038908D01*
X156305492Y-68017714D01*
X156300651Y-68012675D01*
X156296196Y-68008373D01*
X156292111Y-68004296D01*
X156288380Y-67999933D01*
X156284987Y-67994773D01*
X156281916Y-67988306D01*
X156279151Y-67980019D01*
X156276677Y-67969402D01*
X156274476Y-67955943D01*
X156272534Y-67939132D01*
X156270834Y-67918458D01*
X156269360Y-67893408D01*
X156268097Y-67863473D01*
X156267028Y-67828141D01*
X156266137Y-67786900D01*
X156265410Y-67739240D01*
X156265188Y-67718425D01*
X156612364Y-67718425D01*
X157152690Y-67716517D01*
X157247164Y-67716178D01*
X157330023Y-67715856D01*
X157402108Y-67715529D01*
X157464261Y-67715175D01*
X157517324Y-67714772D01*
X157562138Y-67714298D01*
X157599545Y-67713732D01*
X157630387Y-67713050D01*
X157655504Y-67712232D01*
X157675740Y-67711254D01*
X157691935Y-67710096D01*
X157704932Y-67708735D01*
X157715571Y-67707148D01*
X157724695Y-67705315D01*
X157733146Y-67703213D01*
X157740624Y-67701142D01*
X157803723Y-67678695D01*
X157856604Y-67649558D01*
X157900016Y-67612952D01*
X157934708Y-67568097D01*
X157961429Y-67514211D01*
X157980867Y-67450776D01*
X157985057Y-67425248D01*
X157988374Y-67389599D01*
X157990821Y-67346134D01*
X157992399Y-67297158D01*
X157993110Y-67244977D01*
X157992957Y-67191896D01*
X157991939Y-67140221D01*
X157990060Y-67092256D01*
X157987321Y-67050307D01*
X157983724Y-67016679D01*
X157980525Y-66998573D01*
X157962400Y-66937331D01*
X157937934Y-66885451D01*
X157906357Y-66842302D01*
X157866898Y-66807253D01*
X157818786Y-66779674D01*
X157761251Y-66758934D01*
X157693523Y-66744403D01*
X157665151Y-66740402D01*
X157648278Y-66739129D01*
X157619504Y-66737978D01*
X157579386Y-66736954D01*
X157528480Y-66736065D01*
X157467343Y-66735316D01*
X157396531Y-66734715D01*
X157316599Y-66734269D01*
X157228105Y-66733982D01*
X157131605Y-66733863D01*
X157112368Y-66733860D01*
X156612364Y-66733860D01*
X156612364Y-67718425D01*
X156265188Y-67718425D01*
X156264828Y-67684650D01*
X156264377Y-67622619D01*
G37*
G36*
X147680221Y-65277078D02*
G01*
X147745961Y-65277249D01*
X147803171Y-65277603D01*
X147852508Y-65278172D01*
X147894625Y-65278989D01*
X147930176Y-65280085D01*
X147959817Y-65281492D01*
X147984203Y-65283243D01*
X148003987Y-65285369D01*
X148019825Y-65287903D01*
X148032371Y-65290877D01*
X148042280Y-65294322D01*
X148050207Y-65298272D01*
X148056806Y-65302757D01*
X148062732Y-65307811D01*
X148068639Y-65313465D01*
X148075183Y-65319752D01*
X148076282Y-65320772D01*
X148100133Y-65348890D01*
X148115730Y-65382521D01*
X148123759Y-65423581D01*
X148125242Y-65457795D01*
X148120075Y-65505758D01*
X148105265Y-65546878D01*
X148081308Y-65580372D01*
X148048700Y-65605456D01*
X148024772Y-65616293D01*
X148018953Y-65617652D01*
X148009111Y-65618865D01*
X147994603Y-65619940D01*
X147974788Y-65620884D01*
X147949026Y-65621706D01*
X147916672Y-65622414D01*
X147877088Y-65623014D01*
X147829629Y-65623516D01*
X147773656Y-65623927D01*
X147708525Y-65624256D01*
X147633596Y-65624509D01*
X147548226Y-65624695D01*
X147451775Y-65624823D01*
X147343599Y-65624899D01*
X147327163Y-65624906D01*
X146652923Y-65625179D01*
X146652923Y-66484315D01*
X147087364Y-66486074D01*
X147171441Y-66486421D01*
X147243978Y-66486754D01*
X147305894Y-66487101D01*
X147358106Y-66487493D01*
X147401532Y-66487959D01*
X147437090Y-66488529D01*
X147465697Y-66489232D01*
X147488271Y-66490099D01*
X147505730Y-66491159D01*
X147518992Y-66492442D01*
X147528974Y-66493978D01*
X147536594Y-66495796D01*
X147542770Y-66497926D01*
X147548420Y-66500399D01*
X147549833Y-66501062D01*
X147585970Y-66524601D01*
X147613619Y-66556323D01*
X147632217Y-66594800D01*
X147641203Y-66638606D01*
X147640012Y-66686312D01*
X147634356Y-66715528D01*
X147620492Y-66754315D01*
X147599987Y-66784196D01*
X147570672Y-66807891D01*
X147552677Y-66817945D01*
X147515576Y-66836631D01*
X147084250Y-66838466D01*
X146652923Y-66840302D01*
X146652923Y-67717701D01*
X147327163Y-67719516D01*
X147435906Y-67719791D01*
X147532904Y-67720030D01*
X147618869Y-67720278D01*
X147694512Y-67720579D01*
X147760546Y-67720981D01*
X147817682Y-67721528D01*
X147866632Y-67722266D01*
X147908107Y-67723241D01*
X147942820Y-67724498D01*
X147971483Y-67726083D01*
X147994807Y-67728041D01*
X148013503Y-67730418D01*
X148028285Y-67733260D01*
X148039863Y-67736611D01*
X148048949Y-67740518D01*
X148056256Y-67745027D01*
X148062494Y-67750182D01*
X148068376Y-67756030D01*
X148074614Y-67762615D01*
X148079577Y-67767692D01*
X148102271Y-67795684D01*
X148116815Y-67827581D01*
X148124092Y-67865970D01*
X148125296Y-67901712D01*
X148119512Y-67949041D01*
X148104135Y-67990372D01*
X148079945Y-68024470D01*
X148047722Y-68050099D01*
X148024915Y-68060874D01*
X148019742Y-68062197D01*
X148011279Y-68063390D01*
X147998906Y-68064460D01*
X147982006Y-68065416D01*
X147959956Y-68066266D01*
X147932139Y-68067016D01*
X147897934Y-68067674D01*
X147856722Y-68068249D01*
X147807882Y-68068747D01*
X147750796Y-68069176D01*
X147684844Y-68069544D01*
X147609406Y-68069858D01*
X147523862Y-68070127D01*
X147427592Y-68070357D01*
X147319978Y-68070557D01*
X147225949Y-68070698D01*
X147128200Y-68070792D01*
X147033601Y-68070802D01*
X146942933Y-68070732D01*
X146856975Y-68070585D01*
X146776511Y-68070367D01*
X146702320Y-68070080D01*
X146635185Y-68069729D01*
X146575885Y-68069319D01*
X146525202Y-68068852D01*
X146483918Y-68068334D01*
X146452813Y-68067767D01*
X146432668Y-68067157D01*
X146424500Y-68066563D01*
X146383301Y-68052228D01*
X146348412Y-68027584D01*
X146321278Y-67993793D01*
X146312226Y-67976454D01*
X146310911Y-67973111D01*
X146309701Y-67968819D01*
X146308591Y-67963066D01*
X146307576Y-67955337D01*
X146306650Y-67945116D01*
X146305809Y-67931890D01*
X146305047Y-67915143D01*
X146304359Y-67894360D01*
X146303740Y-67869028D01*
X146303185Y-67838631D01*
X146302689Y-67802656D01*
X146302246Y-67760586D01*
X146301852Y-67711907D01*
X146301501Y-67656106D01*
X146301187Y-67592667D01*
X146300907Y-67521075D01*
X146300654Y-67440816D01*
X146300424Y-67351375D01*
X146300211Y-67252237D01*
X146300010Y-67142888D01*
X146299817Y-67022814D01*
X146299625Y-66891498D01*
X146299430Y-66748428D01*
X146299357Y-66693375D01*
X146299165Y-66526215D01*
X146299044Y-66371350D01*
X146298996Y-66228619D01*
X146299021Y-66097860D01*
X146299119Y-65978911D01*
X146299291Y-65871610D01*
X146299539Y-65775797D01*
X146299861Y-65691309D01*
X146300260Y-65617984D01*
X146300735Y-65555662D01*
X146301287Y-65504179D01*
X146301918Y-65463376D01*
X146302626Y-65433089D01*
X146303414Y-65413158D01*
X146304282Y-65403421D01*
X146304309Y-65403287D01*
X146318244Y-65361258D01*
X146341032Y-65327870D01*
X146373002Y-65302677D01*
X146382918Y-65297385D01*
X146419353Y-65279495D01*
X147200671Y-65277843D01*
X147318877Y-65277581D01*
X147425280Y-65277341D01*
X147520535Y-65277156D01*
X147605297Y-65277057D01*
X147680221Y-65277078D01*
G37*
G36*
X139582456Y-65276377D02*
G01*
X139655978Y-65276381D01*
X139785770Y-65276427D01*
X139903334Y-65276566D01*
X140008898Y-65276801D01*
X140102690Y-65277132D01*
X140184939Y-65277563D01*
X140255873Y-65278095D01*
X140315721Y-65278730D01*
X140364710Y-65279470D01*
X140403070Y-65280317D01*
X140431029Y-65281272D01*
X140448815Y-65282338D01*
X140455484Y-65283183D01*
X140493049Y-65297336D01*
X140525917Y-65321627D01*
X140551287Y-65353880D01*
X140554839Y-65360357D01*
X140562385Y-65376542D01*
X140567112Y-65391948D01*
X140569654Y-65410283D01*
X140570641Y-65435256D01*
X140570750Y-65453728D01*
X140569321Y-65492883D01*
X140564238Y-65523123D01*
X140554313Y-65547743D01*
X140538356Y-65570038D01*
X140523002Y-65585986D01*
X140516900Y-65592009D01*
X140511372Y-65597382D01*
X140505710Y-65602142D01*
X140499208Y-65606328D01*
X140491157Y-65609974D01*
X140480850Y-65613119D01*
X140467579Y-65615800D01*
X140450637Y-65618053D01*
X140429316Y-65619915D01*
X140402908Y-65621424D01*
X140370707Y-65622615D01*
X140332004Y-65623527D01*
X140286091Y-65624196D01*
X140232262Y-65624660D01*
X140169808Y-65624954D01*
X140098023Y-65625116D01*
X140016198Y-65625184D01*
X139923625Y-65625193D01*
X139819598Y-65625182D01*
X139772714Y-65625179D01*
X139097700Y-65625179D01*
X139097700Y-66484315D01*
X139966582Y-66487833D01*
X140001505Y-66504209D01*
X140037253Y-66527109D01*
X140063475Y-66557881D01*
X140080245Y-66596659D01*
X140087638Y-66643574D01*
X140088038Y-66658911D01*
X140084125Y-66708706D01*
X140072064Y-66749585D01*
X140051371Y-66782451D01*
X140021564Y-66808207D01*
X140002448Y-66819019D01*
X139966582Y-66836631D01*
X139532141Y-66838465D01*
X139097700Y-66840298D01*
X139097700Y-67717650D01*
X140452408Y-67721084D01*
X140488274Y-67738696D01*
X140523548Y-67761730D01*
X140549236Y-67791795D01*
X140565686Y-67829531D01*
X140573249Y-67875576D01*
X140573865Y-67895483D01*
X140569604Y-67944870D01*
X140556588Y-67985703D01*
X140534468Y-68018621D01*
X140502896Y-68044265D01*
X140488274Y-68052271D01*
X140452408Y-68069883D01*
X139676954Y-68070828D01*
X139579181Y-68070904D01*
X139484542Y-68070894D01*
X139393818Y-68070801D01*
X139307794Y-68070631D01*
X139227250Y-68070387D01*
X139152970Y-68070074D01*
X139085737Y-68069696D01*
X139026332Y-68069258D01*
X138975540Y-68068764D01*
X138934141Y-68068218D01*
X138902919Y-68067624D01*
X138882656Y-68066988D01*
X138874386Y-68066372D01*
X138832854Y-68052228D01*
X138798211Y-68028353D01*
X138771793Y-67995967D01*
X138755346Y-67957769D01*
X138754467Y-67950858D01*
X138753667Y-67936449D01*
X138752944Y-67914228D01*
X138752298Y-67883877D01*
X138751726Y-67845080D01*
X138751228Y-67797521D01*
X138750803Y-67740884D01*
X138750449Y-67674853D01*
X138750165Y-67599111D01*
X138749949Y-67513341D01*
X138749801Y-67417229D01*
X138749719Y-67310457D01*
X138749702Y-67192709D01*
X138749749Y-67063669D01*
X138749858Y-66923021D01*
X138750028Y-66770449D01*
X138750179Y-66659118D01*
X138752016Y-65385380D01*
X138765849Y-65359512D01*
X138779840Y-65338858D01*
X138797819Y-65318983D01*
X138803220Y-65314176D01*
X138809672Y-65308712D01*
X138815565Y-65303801D01*
X138821562Y-65299414D01*
X138828328Y-65295520D01*
X138836526Y-65292090D01*
X138846819Y-65289096D01*
X138859871Y-65286507D01*
X138876345Y-65284294D01*
X138896904Y-65282428D01*
X138922213Y-65280879D01*
X138952934Y-65279619D01*
X138989731Y-65278616D01*
X139033267Y-65277843D01*
X139084207Y-65277270D01*
X139143212Y-65276867D01*
X139210947Y-65276605D01*
X139288076Y-65276454D01*
X139375261Y-65276386D01*
X139473167Y-65276370D01*
X139582456Y-65276377D01*
G37*
G36*
X152797381Y-56684105D02*
G01*
X152847209Y-56698183D01*
X152930282Y-56728054D01*
X153008121Y-56769014D01*
X153079580Y-56820386D01*
X153124956Y-56861943D01*
X153183070Y-56929174D01*
X153232408Y-57003903D01*
X153272607Y-57084625D01*
X153303303Y-57169835D01*
X153324133Y-57258027D01*
X153334733Y-57347696D01*
X153334737Y-57437337D01*
X153323784Y-57525444D01*
X153304053Y-57602815D01*
X153274983Y-57675488D01*
X153234706Y-57749433D01*
X153184195Y-57823310D01*
X153124422Y-57895780D01*
X153056361Y-57965505D01*
X153010982Y-58006293D01*
X153001503Y-58013944D01*
X152982937Y-58028495D01*
X152955922Y-58049460D01*
X152921100Y-58076350D01*
X152879108Y-58108677D01*
X152830588Y-58145954D01*
X152776179Y-58187693D01*
X152716520Y-58233406D01*
X152652251Y-58282606D01*
X152584013Y-58334804D01*
X152512444Y-58389513D01*
X152438184Y-58446245D01*
X152361873Y-58504513D01*
X152284151Y-58563828D01*
X152205657Y-58623702D01*
X152127031Y-58683649D01*
X152048914Y-58743180D01*
X151971943Y-58801808D01*
X151896760Y-58859044D01*
X151824004Y-58914401D01*
X151754314Y-58967392D01*
X151688331Y-59017528D01*
X151626694Y-59064321D01*
X151570042Y-59107285D01*
X151519016Y-59145931D01*
X151474254Y-59179771D01*
X151436398Y-59208317D01*
X151406086Y-59231083D01*
X151383958Y-59247579D01*
X151370654Y-59257319D01*
X151366996Y-59259822D01*
X151356999Y-59261856D01*
X151353803Y-59257937D01*
X151351213Y-59250949D01*
X151344669Y-59233229D01*
X151334524Y-59205736D01*
X151321132Y-59169426D01*
X151304846Y-59125258D01*
X151286017Y-59074188D01*
X151265001Y-59017175D01*
X151242149Y-58955176D01*
X151217814Y-58889148D01*
X151199765Y-58840170D01*
X151170615Y-58761035D01*
X151145508Y-58692758D01*
X151124172Y-58634512D01*
X151106333Y-58585468D01*
X151091716Y-58544799D01*
X151080048Y-58511679D01*
X151071056Y-58485280D01*
X151064465Y-58464775D01*
X151060002Y-58449336D01*
X151057392Y-58438136D01*
X151056364Y-58430348D01*
X151056642Y-58425145D01*
X151057952Y-58421698D01*
X151060022Y-58419182D01*
X151060359Y-58418854D01*
X151066813Y-58413534D01*
X151082425Y-58401087D01*
X151106522Y-58382041D01*
X151138433Y-58356921D01*
X151177485Y-58326255D01*
X151223008Y-58290568D01*
X151274328Y-58250387D01*
X151330775Y-58206238D01*
X151391676Y-58158649D01*
X151456359Y-58108145D01*
X151524153Y-58055253D01*
X151573472Y-58016799D01*
X151643277Y-57962355D01*
X151710591Y-57909793D01*
X151774727Y-57859653D01*
X151834996Y-57812475D01*
X151890713Y-57768799D01*
X151941189Y-57729165D01*
X151985738Y-57694113D01*
X152023673Y-57664182D01*
X152054306Y-57639913D01*
X152076949Y-57621845D01*
X152090917Y-57610519D01*
X152095113Y-57606939D01*
X152110668Y-57589225D01*
X152114698Y-57575692D01*
X152107161Y-57565691D01*
X152091999Y-57559583D01*
X152083177Y-57558878D01*
X152061928Y-57558176D01*
X152028279Y-57557479D01*
X151982259Y-57556785D01*
X151923898Y-57556097D01*
X151853224Y-57555413D01*
X151770267Y-57554733D01*
X151675054Y-57554059D01*
X151567616Y-57553390D01*
X151447980Y-57552726D01*
X151316175Y-57552068D01*
X151172232Y-57551415D01*
X151016177Y-57550768D01*
X150848041Y-57550128D01*
X150667852Y-57549493D01*
X150475640Y-57548865D01*
X150271432Y-57548243D01*
X150086207Y-57547713D01*
X149929835Y-57547270D01*
X149776682Y-57546818D01*
X149627217Y-57546361D01*
X149481908Y-57545899D01*
X149341224Y-57545434D01*
X149205632Y-57544969D01*
X149075602Y-57544506D01*
X148951600Y-57544047D01*
X148834097Y-57543593D01*
X148723559Y-57543146D01*
X148620456Y-57542709D01*
X148525255Y-57542284D01*
X148438425Y-57541872D01*
X148360434Y-57541475D01*
X148291751Y-57541096D01*
X148232844Y-57540736D01*
X148184180Y-57540398D01*
X148146229Y-57540083D01*
X148119459Y-57539793D01*
X148104338Y-57539530D01*
X148100925Y-57539358D01*
X148102444Y-57533155D01*
X148107739Y-57516119D01*
X148116498Y-57489180D01*
X148128405Y-57453270D01*
X148143148Y-57409322D01*
X148160413Y-57358267D01*
X148179885Y-57301038D01*
X148201251Y-57238566D01*
X148224197Y-57171783D01*
X148245939Y-57108763D01*
X148393801Y-56681015D01*
X152797381Y-56684105D01*
G37*
G36*
X137762139Y-65283374D02*
G01*
X137848697Y-65283526D01*
X137925115Y-65283762D01*
X137991781Y-65284085D01*
X138049079Y-65284496D01*
X138097397Y-65284998D01*
X138137120Y-65285591D01*
X138168634Y-65286279D01*
X138192327Y-65287063D01*
X138208584Y-65287945D01*
X138217791Y-65288927D01*
X138218549Y-65289075D01*
X138241799Y-65296084D01*
X138261645Y-65307640D01*
X138281811Y-65325240D01*
X138302466Y-65348730D01*
X138316228Y-65373882D01*
X138324233Y-65403872D01*
X138327620Y-65441877D01*
X138327890Y-65453894D01*
X138325178Y-65500650D01*
X138315332Y-65538851D01*
X138297671Y-65570601D01*
X138285332Y-65585095D01*
X138276955Y-65593771D01*
X138269090Y-65601290D01*
X138260828Y-65607734D01*
X138251258Y-65613188D01*
X138239471Y-65617732D01*
X138224556Y-65621451D01*
X138205605Y-65624426D01*
X138181707Y-65626741D01*
X138151952Y-65628479D01*
X138115430Y-65629721D01*
X138071233Y-65630552D01*
X138018449Y-65631053D01*
X137956168Y-65631308D01*
X137883482Y-65631399D01*
X137799480Y-65631408D01*
X137360097Y-65631408D01*
X137358460Y-66791474D01*
X137356822Y-67951540D01*
X137343806Y-67979569D01*
X137326395Y-68007276D01*
X137302478Y-68032472D01*
X137275762Y-68051747D01*
X137256049Y-68060286D01*
X137224035Y-68066698D01*
X137187466Y-68069856D01*
X137152238Y-68069467D01*
X137129760Y-68066571D01*
X137088579Y-68052241D01*
X137055177Y-68028210D01*
X137029722Y-67994602D01*
X137026805Y-67989146D01*
X137008024Y-67952425D01*
X137006355Y-66791916D01*
X137004686Y-65631408D01*
X136588475Y-65631408D01*
X136502673Y-65631397D01*
X136428399Y-65631320D01*
X136364726Y-65631115D01*
X136310726Y-65630718D01*
X136265469Y-65630064D01*
X136228027Y-65629090D01*
X136197473Y-65627732D01*
X136172877Y-65625927D01*
X136153312Y-65623610D01*
X136137850Y-65620719D01*
X136125561Y-65617188D01*
X136115518Y-65612955D01*
X136106792Y-65607955D01*
X136098455Y-65602126D01*
X136092089Y-65597315D01*
X136070979Y-65577321D01*
X136056152Y-65553226D01*
X136046662Y-65522643D01*
X136041564Y-65483186D01*
X136040676Y-65467620D01*
X136041622Y-65417402D01*
X136049683Y-65376484D01*
X136065451Y-65343557D01*
X136089517Y-65317307D01*
X136116568Y-65299465D01*
X136142256Y-65285724D01*
X137163737Y-65283815D01*
X137306786Y-65283574D01*
X137437765Y-65283406D01*
X137557059Y-65283316D01*
X137665055Y-65283305D01*
X137762139Y-65283374D01*
G37*
G36*
X149786202Y-59336688D02*
G01*
X149791822Y-59354144D01*
X149800405Y-59381647D01*
X149811663Y-59418249D01*
X149825306Y-59463000D01*
X149841048Y-59514953D01*
X149858599Y-59573158D01*
X149877672Y-59636668D01*
X149897978Y-59704534D01*
X149917104Y-59768672D01*
X149941703Y-59851353D01*
X149962940Y-59922924D01*
X149981034Y-59984205D01*
X149996206Y-60036016D01*
X150008674Y-60079179D01*
X150018658Y-60114513D01*
X150026378Y-60142839D01*
X150032053Y-60164978D01*
X150035904Y-60181751D01*
X150038149Y-60193977D01*
X150039008Y-60202477D01*
X150038701Y-60208073D01*
X150037447Y-60211584D01*
X150036085Y-60213278D01*
X150030164Y-60217954D01*
X150014759Y-60229770D01*
X149990336Y-60248374D01*
X149957362Y-60273413D01*
X149916305Y-60304534D01*
X149867630Y-60341385D01*
X149811806Y-60383612D01*
X149749299Y-60430864D01*
X149680575Y-60482786D01*
X149606102Y-60539027D01*
X149526347Y-60599234D01*
X149441776Y-60663054D01*
X149352857Y-60730133D01*
X149260056Y-60800120D01*
X149163840Y-60872662D01*
X149064676Y-60947405D01*
X148985513Y-61007059D01*
X148875570Y-61089900D01*
X148763243Y-61174542D01*
X148649363Y-61260358D01*
X148534762Y-61346722D01*
X148420273Y-61433005D01*
X148306728Y-61518581D01*
X148194959Y-61602822D01*
X148085798Y-61685101D01*
X147980077Y-61764791D01*
X147878629Y-61841264D01*
X147782285Y-61913893D01*
X147691878Y-61982052D01*
X147608240Y-62045112D01*
X147532203Y-62102447D01*
X147464599Y-62153430D01*
X147415920Y-62190146D01*
X147290906Y-62284445D01*
X147175438Y-62371538D01*
X147069117Y-62451722D01*
X146971545Y-62525293D01*
X146882321Y-62592545D01*
X146801048Y-62653776D01*
X146727325Y-62709282D01*
X146660755Y-62759357D01*
X146600937Y-62804298D01*
X146547473Y-62844402D01*
X146499964Y-62879963D01*
X146458011Y-62911277D01*
X146421214Y-62938642D01*
X146389175Y-62962352D01*
X146361494Y-62982704D01*
X146337772Y-62999993D01*
X146317611Y-63014515D01*
X146300612Y-63026566D01*
X146286374Y-63036443D01*
X146274500Y-63044441D01*
X146264590Y-63050856D01*
X146256245Y-63055983D01*
X146249066Y-63060120D01*
X146242654Y-63063561D01*
X146236610Y-63066603D01*
X146230534Y-63069542D01*
X146229033Y-63070262D01*
X146143073Y-63105281D01*
X146056522Y-63127976D01*
X145968510Y-63138473D01*
X145878168Y-63136903D01*
X145823190Y-63130332D01*
X145777630Y-63121110D01*
X145727825Y-63107499D01*
X145678796Y-63091076D01*
X145635564Y-63073415D01*
X145623737Y-63067741D01*
X145552945Y-63026747D01*
X145485846Y-62977402D01*
X145424124Y-62921432D01*
X145369461Y-62860562D01*
X145323542Y-62796514D01*
X145288048Y-62731015D01*
X145282415Y-62718051D01*
X145255597Y-62640702D01*
X145238212Y-62559616D01*
X145230246Y-62473962D01*
X145231685Y-62382908D01*
X145242517Y-62285621D01*
X145262729Y-62181270D01*
X145273096Y-62138692D01*
X145276619Y-62126579D01*
X145283828Y-62103249D01*
X145294522Y-62069320D01*
X145308501Y-62025408D01*
X145325566Y-61972131D01*
X145345515Y-61910109D01*
X145368149Y-61839958D01*
X145393269Y-61762296D01*
X145420673Y-61677742D01*
X145450162Y-61586913D01*
X145481536Y-61490427D01*
X145514595Y-61388903D01*
X145549138Y-61282956D01*
X145584966Y-61173207D01*
X145621879Y-61060272D01*
X145655710Y-60956886D01*
X145704425Y-60808190D01*
X145749404Y-60671112D01*
X145790726Y-60545413D01*
X145828471Y-60430851D01*
X145862721Y-60327189D01*
X145893554Y-60234185D01*
X145921053Y-60151600D01*
X145945297Y-60079195D01*
X145966367Y-60016730D01*
X145984342Y-59963964D01*
X145999304Y-59920658D01*
X146011333Y-59886573D01*
X146020509Y-59861468D01*
X146026913Y-59845105D01*
X146030625Y-59837242D01*
X146031452Y-59836414D01*
X146038341Y-59839827D01*
X146054615Y-59849343D01*
X146079244Y-59864304D01*
X146111202Y-59884055D01*
X146149461Y-59907938D01*
X146192994Y-59935296D01*
X146240773Y-59965471D01*
X146291771Y-59997807D01*
X146344961Y-60031647D01*
X146399314Y-60066334D01*
X146453803Y-60101210D01*
X146507402Y-60135619D01*
X146559082Y-60168904D01*
X146607816Y-60200407D01*
X146652576Y-60229471D01*
X146692336Y-60255440D01*
X146726067Y-60277656D01*
X146752742Y-60295462D01*
X146771334Y-60308202D01*
X146780815Y-60315218D01*
X146781822Y-60316263D01*
X146780356Y-60323065D01*
X146775350Y-60341043D01*
X146767020Y-60369495D01*
X146755581Y-60407722D01*
X146741249Y-60455020D01*
X146724240Y-60510690D01*
X146704770Y-60574030D01*
X146683054Y-60644338D01*
X146659308Y-60720914D01*
X146633749Y-60803055D01*
X146606591Y-60890062D01*
X146578050Y-60981232D01*
X146548343Y-61075864D01*
X146538124Y-61108357D01*
X146506942Y-61207627D01*
X146477114Y-61302923D01*
X146448838Y-61393592D01*
X146422314Y-61478982D01*
X146397740Y-61558444D01*
X146375316Y-61631324D01*
X146355242Y-61696972D01*
X146337715Y-61754736D01*
X146322936Y-61803965D01*
X146311103Y-61844006D01*
X146302416Y-61874210D01*
X146297073Y-61893923D01*
X146295274Y-61902495D01*
X146295308Y-61902750D01*
X146304448Y-61911289D01*
X146320186Y-61911969D01*
X146336716Y-61905964D01*
X146342640Y-61901734D01*
X146358164Y-61890300D01*
X146382927Y-61871932D01*
X146416563Y-61846904D01*
X146458712Y-61815486D01*
X146509008Y-61777950D01*
X146567089Y-61734568D01*
X146632592Y-61685612D01*
X146705154Y-61631353D01*
X146784412Y-61572064D01*
X146870002Y-61508016D01*
X146961561Y-61439481D01*
X147058726Y-61366731D01*
X147161134Y-61290037D01*
X147268422Y-61209671D01*
X147380227Y-61125905D01*
X147496186Y-61039011D01*
X147615934Y-60949260D01*
X147739110Y-60856925D01*
X147865350Y-60762277D01*
X147994292Y-60665588D01*
X148064876Y-60612652D01*
X148195004Y-60515074D01*
X148322580Y-60419450D01*
X148447243Y-60326047D01*
X148568632Y-60235134D01*
X148686388Y-60146981D01*
X148800149Y-60061855D01*
X148909555Y-59980027D01*
X149014246Y-59901765D01*
X149113861Y-59827337D01*
X149208040Y-59757014D01*
X149296423Y-59691063D01*
X149378648Y-59629753D01*
X149454356Y-59573354D01*
X149523187Y-59522135D01*
X149584779Y-59476363D01*
X149638772Y-59436309D01*
X149684806Y-59402241D01*
X149722521Y-59374428D01*
X149751556Y-59353139D01*
X149771550Y-59338642D01*
X149782143Y-59331208D01*
X149783833Y-59330227D01*
X149786202Y-59336688D01*
G37*
G36*
X143622470Y-65277904D02*
G01*
X143662358Y-65285347D01*
X143699113Y-65301765D01*
X143735459Y-65328495D01*
X143746851Y-65338876D01*
X143753742Y-65346703D01*
X143767883Y-65363901D01*
X143788899Y-65389994D01*
X143816415Y-65424502D01*
X143850055Y-65466947D01*
X143889444Y-65516850D01*
X143934207Y-65573733D01*
X143983970Y-65637118D01*
X144038357Y-65706526D01*
X144096992Y-65781477D01*
X144159502Y-65861495D01*
X144225510Y-65946100D01*
X144294642Y-66034814D01*
X144366523Y-66127158D01*
X144440777Y-66222654D01*
X144517029Y-66320824D01*
X144563247Y-66380375D01*
X145348043Y-67391895D01*
X145351157Y-66388638D01*
X145354272Y-65385380D01*
X145367919Y-65359877D01*
X145393172Y-65325085D01*
X145426459Y-65299587D01*
X145467246Y-65283630D01*
X145514997Y-65277465D01*
X145542623Y-65278229D01*
X145589174Y-65286296D01*
X145627158Y-65303045D01*
X145657322Y-65328890D01*
X145672651Y-65350033D01*
X145684185Y-65371998D01*
X145692947Y-65394008D01*
X145695940Y-65405510D01*
X145696325Y-65413997D01*
X145696701Y-65434336D01*
X145697065Y-65465926D01*
X145697415Y-65508161D01*
X145697750Y-65560440D01*
X145698068Y-65622157D01*
X145698367Y-65692709D01*
X145698644Y-65771493D01*
X145698898Y-65857904D01*
X145699128Y-65951340D01*
X145699331Y-66051197D01*
X145699506Y-66156870D01*
X145699650Y-66267757D01*
X145699762Y-66383254D01*
X145699839Y-66502756D01*
X145699881Y-66625661D01*
X145699887Y-66678230D01*
X145699907Y-66827797D01*
X145699939Y-66965419D01*
X145699966Y-67091607D01*
X145699970Y-67206874D01*
X145699936Y-67311731D01*
X145699845Y-67406691D01*
X145699682Y-67492264D01*
X145699428Y-67568962D01*
X145699068Y-67637298D01*
X145698584Y-67697783D01*
X145697959Y-67750930D01*
X145697176Y-67797249D01*
X145696219Y-67837253D01*
X145695070Y-67871454D01*
X145693713Y-67900363D01*
X145692130Y-67924492D01*
X145690305Y-67944353D01*
X145688220Y-67960457D01*
X145685859Y-67973318D01*
X145683204Y-67983446D01*
X145680240Y-67991353D01*
X145676948Y-67997551D01*
X145673312Y-68002552D01*
X145669315Y-68006867D01*
X145664940Y-68011009D01*
X145660170Y-68015489D01*
X145655448Y-68020318D01*
X145627291Y-68044783D01*
X145594992Y-68060415D01*
X145556091Y-68068141D01*
X145525147Y-68069355D01*
X145482950Y-68065560D01*
X145446748Y-68053872D01*
X145412798Y-68032760D01*
X145391827Y-68014816D01*
X145382902Y-68005137D01*
X145367174Y-67986561D01*
X145345427Y-67960069D01*
X145318446Y-67926643D01*
X145287015Y-67887266D01*
X145251920Y-67842918D01*
X145213945Y-67794582D01*
X145173874Y-67743238D01*
X145144266Y-67705090D01*
X145113762Y-67665705D01*
X145076286Y-67617338D01*
X145032506Y-67560850D01*
X144983089Y-67497099D01*
X144928701Y-67426946D01*
X144870008Y-67351250D01*
X144807678Y-67270871D01*
X144742377Y-67186668D01*
X144674771Y-67099502D01*
X144605527Y-67010231D01*
X144535313Y-66919715D01*
X144464793Y-66828814D01*
X144394636Y-66738389D01*
X144357705Y-66690791D01*
X143790907Y-65960313D01*
X143787793Y-66955927D01*
X143784679Y-67951540D01*
X143771449Y-67979569D01*
X143750640Y-68012216D01*
X143722888Y-68039424D01*
X143693623Y-68056853D01*
X143668181Y-68064083D01*
X143635864Y-68068634D01*
X143602050Y-68070083D01*
X143572115Y-68068011D01*
X143565707Y-68066860D01*
X143523312Y-68053318D01*
X143489871Y-68031897D01*
X143463790Y-68001350D01*
X143450199Y-67976377D01*
X143435880Y-67945312D01*
X143435880Y-66680917D01*
X143435890Y-66530666D01*
X143435921Y-66392380D01*
X143435978Y-66265568D01*
X143436062Y-66149739D01*
X143436179Y-66044401D01*
X143436331Y-65949062D01*
X143436521Y-65863232D01*
X143436754Y-65786418D01*
X143437031Y-65718129D01*
X143437358Y-65657874D01*
X143437736Y-65605161D01*
X143438171Y-65559499D01*
X143438664Y-65520396D01*
X143439219Y-65487360D01*
X143439840Y-65459901D01*
X143440531Y-65437526D01*
X143441293Y-65419744D01*
X143442132Y-65406065D01*
X143443050Y-65395995D01*
X143444050Y-65389044D01*
X143444815Y-65385725D01*
X143461606Y-65349088D01*
X143487931Y-65318903D01*
X143522112Y-65296189D01*
X143562476Y-65281960D01*
X143607347Y-65277236D01*
X143622470Y-65277904D01*
G37*
G36*
X153793808Y-66964510D02*
G01*
X153834905Y-66863440D01*
X153876663Y-66760792D01*
X153918817Y-66657220D01*
X153961099Y-66553377D01*
X154003245Y-66449916D01*
X154044988Y-66347489D01*
X154086062Y-66246751D01*
X154126202Y-66148354D01*
X154165141Y-66052950D01*
X154202614Y-65961194D01*
X154238355Y-65873738D01*
X154272097Y-65791236D01*
X154303575Y-65714339D01*
X154332523Y-65643703D01*
X154358675Y-65579979D01*
X154381765Y-65523820D01*
X154401528Y-65475880D01*
X154417696Y-65436812D01*
X154430005Y-65407269D01*
X154438188Y-65387904D01*
X154441980Y-65379369D01*
X154442099Y-65379152D01*
X154472490Y-65338951D01*
X154510636Y-65308118D01*
X154555232Y-65287470D01*
X154603727Y-65277920D01*
X154649044Y-65279356D01*
X154692934Y-65290119D01*
X154732673Y-65309029D01*
X154765536Y-65334902D01*
X154782232Y-65355365D01*
X154786108Y-65363360D01*
X154794505Y-65382331D01*
X154807198Y-65411738D01*
X154823960Y-65451040D01*
X154844566Y-65499697D01*
X154868790Y-65557169D01*
X154896405Y-65622914D01*
X154927187Y-65696392D01*
X154960908Y-65777063D01*
X154997343Y-65864386D01*
X155036266Y-65957821D01*
X155077451Y-66056827D01*
X155120672Y-66160863D01*
X155165703Y-66269390D01*
X155212319Y-66381865D01*
X155260292Y-66497750D01*
X155307731Y-66612470D01*
X155365788Y-66752954D01*
X155419270Y-66882398D01*
X155468365Y-67001273D01*
X155513262Y-67110050D01*
X155554150Y-67209198D01*
X155591216Y-67299190D01*
X155624650Y-67380494D01*
X155654641Y-67453582D01*
X155681376Y-67518925D01*
X155705044Y-67576992D01*
X155725834Y-67628255D01*
X155743934Y-67673185D01*
X155759533Y-67712250D01*
X155772819Y-67745924D01*
X155783981Y-67774675D01*
X155793208Y-67798974D01*
X155800687Y-67819292D01*
X155806609Y-67836100D01*
X155811160Y-67849869D01*
X155814530Y-67861067D01*
X155816907Y-67870168D01*
X155818480Y-67877640D01*
X155819437Y-67883954D01*
X155819966Y-67889582D01*
X155820070Y-67891195D01*
X155819427Y-67932535D01*
X155811379Y-67965996D01*
X155794874Y-67994409D01*
X155773512Y-68016618D01*
X155736126Y-68042888D01*
X155695099Y-68060297D01*
X155652582Y-68068771D01*
X155610726Y-68068236D01*
X155571682Y-68058618D01*
X155537601Y-68039842D01*
X155521481Y-68025296D01*
X155515733Y-68018764D01*
X155510078Y-68011294D01*
X155504073Y-68001907D01*
X155497277Y-67989626D01*
X155489248Y-67973471D01*
X155479544Y-67952465D01*
X155467722Y-67925629D01*
X155453342Y-67891986D01*
X155435961Y-67850556D01*
X155415138Y-67800363D01*
X155390429Y-67740426D01*
X155366481Y-67682156D01*
X155258413Y-67419000D01*
X153985919Y-67419000D01*
X153871572Y-67707070D01*
X153845669Y-67772281D01*
X153823868Y-67826966D01*
X153805686Y-67872179D01*
X153790641Y-67908977D01*
X153778251Y-67938416D01*
X153768032Y-67961552D01*
X153759503Y-67979440D01*
X153752181Y-67993137D01*
X153745584Y-68003699D01*
X153739229Y-68012181D01*
X153732634Y-68019639D01*
X153725375Y-68027072D01*
X153704964Y-68045892D01*
X153687365Y-68057398D01*
X153668036Y-68064333D01*
X153660902Y-68066000D01*
X153637352Y-68070595D01*
X153619834Y-68072078D01*
X153602777Y-68070279D01*
X153580609Y-68065032D01*
X153574482Y-68063395D01*
X153524295Y-68045539D01*
X153484252Y-68021880D01*
X153454828Y-67992762D01*
X153439251Y-67965755D01*
X153432719Y-67940685D01*
X153429949Y-67909301D01*
X153431060Y-67877198D01*
X153436169Y-67849973D01*
X153436764Y-67848142D01*
X153440686Y-67837728D01*
X153448992Y-67816594D01*
X153461416Y-67785393D01*
X153477691Y-67744777D01*
X153497553Y-67695400D01*
X153520735Y-67637915D01*
X153546972Y-67572975D01*
X153575996Y-67501232D01*
X153607543Y-67423341D01*
X153641347Y-67339954D01*
X153677141Y-67251725D01*
X153714660Y-67159305D01*
X153752751Y-67065530D01*
X154127048Y-67065530D01*
X154133140Y-67066260D01*
X154150754Y-67066955D01*
X154178954Y-67067606D01*
X154216802Y-67068204D01*
X154263365Y-67068741D01*
X154317704Y-67069207D01*
X154378886Y-67069595D01*
X154445973Y-67069894D01*
X154518030Y-67070097D01*
X154594121Y-67070194D01*
X154621981Y-67070201D01*
X155116786Y-67070201D01*
X155071409Y-66959645D01*
X155029192Y-66856860D01*
X154987510Y-66755518D01*
X154946629Y-66656261D01*
X154906815Y-66559727D01*
X154868334Y-66466556D01*
X154831451Y-66377389D01*
X154796434Y-66292864D01*
X154763548Y-66213621D01*
X154733058Y-66140300D01*
X154705232Y-66073542D01*
X154680334Y-66013985D01*
X154658630Y-65962269D01*
X154640387Y-65919034D01*
X154625871Y-65884920D01*
X154615348Y-65860567D01*
X154609083Y-65846614D01*
X154607333Y-65843359D01*
X154604686Y-65849029D01*
X154597876Y-65865382D01*
X154587266Y-65891494D01*
X154573219Y-65926440D01*
X154556097Y-65969298D01*
X154536264Y-66019144D01*
X154514083Y-66075053D01*
X154489917Y-66136103D01*
X154464129Y-66201370D01*
X154437081Y-66269931D01*
X154409136Y-66340861D01*
X154380659Y-66413237D01*
X154352010Y-66486135D01*
X154323555Y-66558633D01*
X154295654Y-66629805D01*
X154268672Y-66698730D01*
X154242972Y-66764482D01*
X154218916Y-66826138D01*
X154196867Y-66882776D01*
X154177188Y-66933470D01*
X154160242Y-66977298D01*
X154146393Y-67013336D01*
X154136002Y-67040661D01*
X154129434Y-67058348D01*
X154127051Y-67065474D01*
X154127048Y-67065530D01*
X153752751Y-67065530D01*
X153753637Y-67063349D01*
X153793808Y-66964510D01*
G37*
G36*
X149687182Y-57811201D02*
G01*
X149715086Y-57812126D01*
X149751852Y-57813550D01*
X149796287Y-57815414D01*
X149847199Y-57817660D01*
X149903396Y-57820228D01*
X149963685Y-57823059D01*
X150026874Y-57826092D01*
X150091771Y-57829269D01*
X150157183Y-57832531D01*
X150221919Y-57835817D01*
X150284785Y-57839069D01*
X150344590Y-57842227D01*
X150400140Y-57845232D01*
X150450245Y-57848025D01*
X150493711Y-57850546D01*
X150529347Y-57852735D01*
X150555959Y-57854534D01*
X150572356Y-57855882D01*
X150577381Y-57856640D01*
X150579801Y-57863132D01*
X150585812Y-57881002D01*
X150595253Y-57909748D01*
X150607967Y-57948868D01*
X150623795Y-57997860D01*
X150642576Y-58056224D01*
X150664153Y-58123456D01*
X150688367Y-58199056D01*
X150715057Y-58282521D01*
X150744066Y-58373350D01*
X150775233Y-58471042D01*
X150808401Y-58575094D01*
X150843411Y-58685004D01*
X150880102Y-58800271D01*
X150918316Y-58920394D01*
X150957895Y-59044870D01*
X150998679Y-59173198D01*
X151040508Y-59304876D01*
X151083225Y-59439403D01*
X151126670Y-59576275D01*
X151170684Y-59714993D01*
X151215107Y-59855054D01*
X151259782Y-59995956D01*
X151304549Y-60137198D01*
X151349248Y-60278278D01*
X151393722Y-60418694D01*
X151437810Y-60557945D01*
X151481355Y-60695528D01*
X151524196Y-60830943D01*
X151566175Y-60963686D01*
X151607133Y-61093257D01*
X151646910Y-61219155D01*
X151685349Y-61340876D01*
X151722289Y-61457919D01*
X151757572Y-61569783D01*
X151791039Y-61675966D01*
X151822530Y-61775967D01*
X151851887Y-61869283D01*
X151878951Y-61955412D01*
X151903562Y-62033853D01*
X151925562Y-62104105D01*
X151944792Y-62165665D01*
X151961092Y-62218033D01*
X151974304Y-62260705D01*
X151984268Y-62293180D01*
X151990826Y-62314957D01*
X151993819Y-62325535D01*
X151993956Y-62326156D01*
X152002312Y-62396672D01*
X152002177Y-62472210D01*
X151993822Y-62548939D01*
X151977516Y-62623027D01*
X151971632Y-62642559D01*
X151939112Y-62724127D01*
X151896041Y-62800702D01*
X151843537Y-62871432D01*
X151782722Y-62935463D01*
X151714716Y-62991942D01*
X151640640Y-63040016D01*
X151561614Y-63078831D01*
X151478758Y-63107535D01*
X151393193Y-63125273D01*
X151330559Y-63130776D01*
X151275288Y-63130881D01*
X151224269Y-63127246D01*
X151204425Y-63124510D01*
X151128267Y-63107284D01*
X151047566Y-63080116D01*
X150964132Y-63043778D01*
X150879778Y-62999044D01*
X150811974Y-62957154D01*
X150800081Y-62948867D01*
X150779218Y-62933801D01*
X150749978Y-62912402D01*
X150712948Y-62885111D01*
X150668720Y-62852372D01*
X150617884Y-62814629D01*
X150561029Y-62772325D01*
X150498747Y-62725902D01*
X150431627Y-62675806D01*
X150360259Y-62622477D01*
X150285233Y-62566362D01*
X150207140Y-62507901D01*
X150126570Y-62447539D01*
X150044113Y-62385720D01*
X149960359Y-62322886D01*
X149875898Y-62259480D01*
X149791321Y-62195947D01*
X149707217Y-62132729D01*
X149624177Y-62070270D01*
X149542790Y-62009013D01*
X149463648Y-61949401D01*
X149387340Y-61891878D01*
X149314456Y-61836887D01*
X149245586Y-61784871D01*
X149181321Y-61736275D01*
X149122251Y-61691540D01*
X149068966Y-61651110D01*
X149022055Y-61615430D01*
X148982110Y-61584941D01*
X148949721Y-61560088D01*
X148925477Y-61541313D01*
X148909968Y-61529061D01*
X148903786Y-61523773D01*
X148903701Y-61523639D01*
X148908192Y-61518964D01*
X148921649Y-61507468D01*
X148943128Y-61489881D01*
X148971686Y-61466933D01*
X149006382Y-61439353D01*
X149046272Y-61407873D01*
X149090413Y-61373221D01*
X149137864Y-61336127D01*
X149187681Y-61297322D01*
X149238921Y-61257535D01*
X149290642Y-61217497D01*
X149341902Y-61177937D01*
X149391757Y-61139585D01*
X149439265Y-61103171D01*
X149483484Y-61069425D01*
X149523470Y-61039077D01*
X149558280Y-61012856D01*
X149586973Y-60991494D01*
X149608606Y-60975719D01*
X149622235Y-60966261D01*
X149626811Y-60963733D01*
X149632536Y-60967465D01*
X149647639Y-60978209D01*
X149671523Y-60995523D01*
X149703586Y-61018963D01*
X149743229Y-61048085D01*
X149789853Y-61082446D01*
X149842856Y-61121604D01*
X149901639Y-61165115D01*
X149965602Y-61212535D01*
X150034146Y-61263422D01*
X150106670Y-61317332D01*
X150182574Y-61373822D01*
X150261259Y-61432448D01*
X150269521Y-61438608D01*
X150348598Y-61497495D01*
X150425071Y-61554301D01*
X150498330Y-61608581D01*
X150567766Y-61659889D01*
X150632770Y-61707780D01*
X150692732Y-61751808D01*
X150747043Y-61791528D01*
X150795093Y-61826494D01*
X150836274Y-61856261D01*
X150869977Y-61880383D01*
X150895591Y-61898414D01*
X150912507Y-61909910D01*
X150920117Y-61914424D01*
X150920325Y-61914473D01*
X150929032Y-61914443D01*
X150933318Y-61909859D01*
X150934635Y-61897716D01*
X150934594Y-61884939D01*
X150933540Y-61878696D01*
X150930415Y-61866054D01*
X150925138Y-61846753D01*
X150917630Y-61820536D01*
X150907810Y-61787144D01*
X150895598Y-61746319D01*
X150880913Y-61697802D01*
X150863677Y-61641336D01*
X150843808Y-61576662D01*
X150821226Y-61503522D01*
X150795850Y-61421657D01*
X150767602Y-61330810D01*
X150736400Y-61230721D01*
X150702164Y-61121133D01*
X150664815Y-61001788D01*
X150624271Y-60872426D01*
X150580453Y-60732790D01*
X150533280Y-60582622D01*
X150482673Y-60421663D01*
X150428550Y-60249654D01*
X150370832Y-60066339D01*
X150309439Y-59871457D01*
X150297454Y-59833424D01*
X150248868Y-59679223D01*
X150201260Y-59528083D01*
X150154768Y-59380435D01*
X150109525Y-59236712D01*
X150065669Y-59097345D01*
X150023333Y-58962765D01*
X149982655Y-58833406D01*
X149943768Y-58709697D01*
X149906810Y-58592072D01*
X149871915Y-58480962D01*
X149839218Y-58376799D01*
X149808856Y-58280014D01*
X149780964Y-58191040D01*
X149755677Y-58110307D01*
X149733131Y-58038249D01*
X149713461Y-57975296D01*
X149696804Y-57921880D01*
X149683294Y-57878434D01*
X149673066Y-57845388D01*
X149666257Y-57823176D01*
X149663002Y-57812227D01*
X149662729Y-57811091D01*
X149669332Y-57810837D01*
X149687182Y-57811201D01*
G37*
G36*
X148785932Y-65277904D02*
G01*
X148825827Y-65285348D01*
X148862581Y-65301771D01*
X148898917Y-65328506D01*
X148910313Y-65338897D01*
X148917204Y-65346726D01*
X148931345Y-65363927D01*
X148952360Y-65390022D01*
X148979874Y-65424533D01*
X149013512Y-65466982D01*
X149052899Y-65516889D01*
X149097660Y-65573776D01*
X149147420Y-65637165D01*
X149201804Y-65706577D01*
X149260436Y-65781534D01*
X149322943Y-65861557D01*
X149388948Y-65946167D01*
X149458077Y-66034886D01*
X149529954Y-66127236D01*
X149604205Y-66222738D01*
X149680455Y-66320913D01*
X149726709Y-66380518D01*
X150511506Y-67392140D01*
X150514620Y-66388760D01*
X150515031Y-66257758D01*
X150515418Y-66138635D01*
X150515790Y-66030810D01*
X150516154Y-65933706D01*
X150516520Y-65846744D01*
X150516894Y-65769344D01*
X150517286Y-65700928D01*
X150517704Y-65640917D01*
X150518156Y-65588732D01*
X150518651Y-65543794D01*
X150519195Y-65505524D01*
X150519799Y-65473344D01*
X150520470Y-65446674D01*
X150521216Y-65424936D01*
X150522046Y-65407551D01*
X150522968Y-65393940D01*
X150523989Y-65383524D01*
X150525120Y-65375724D01*
X150526367Y-65369961D01*
X150527739Y-65365656D01*
X150529244Y-65362232D01*
X150529274Y-65362170D01*
X150541191Y-65343666D01*
X150557724Y-65324185D01*
X150564831Y-65317262D01*
X150596191Y-65296307D01*
X150633465Y-65283083D01*
X150674100Y-65277377D01*
X150715543Y-65278975D01*
X150755243Y-65287662D01*
X150790646Y-65303224D01*
X150819202Y-65325449D01*
X150830475Y-65339534D01*
X150834291Y-65345072D01*
X150837802Y-65350019D01*
X150841020Y-65354894D01*
X150843957Y-65360211D01*
X150846626Y-65366488D01*
X150849041Y-65374240D01*
X150851213Y-65383985D01*
X150853156Y-65396240D01*
X150854882Y-65411520D01*
X150856404Y-65430342D01*
X150857735Y-65453222D01*
X150858888Y-65480678D01*
X150859874Y-65513225D01*
X150860708Y-65551381D01*
X150861401Y-65595661D01*
X150861967Y-65646583D01*
X150862419Y-65704662D01*
X150862768Y-65770415D01*
X150863028Y-65844359D01*
X150863211Y-65927011D01*
X150863331Y-66018886D01*
X150863400Y-66120502D01*
X150863430Y-66232374D01*
X150863435Y-66355020D01*
X150863427Y-66488955D01*
X150863419Y-66634697D01*
X150863418Y-66674548D01*
X150863430Y-66824338D01*
X150863454Y-66962182D01*
X150863474Y-67088591D01*
X150863473Y-67204075D01*
X150863433Y-67309147D01*
X150863338Y-67404317D01*
X150863171Y-67490096D01*
X150862915Y-67566996D01*
X150862553Y-67635526D01*
X150862068Y-67696199D01*
X150861444Y-67749525D01*
X150860663Y-67796015D01*
X150859709Y-67836180D01*
X150858564Y-67870532D01*
X150857212Y-67899581D01*
X150855635Y-67923839D01*
X150853818Y-67943816D01*
X150851743Y-67960024D01*
X150849392Y-67972973D01*
X150846750Y-67983175D01*
X150843800Y-67991140D01*
X150840523Y-67997380D01*
X150836905Y-68002405D01*
X150832927Y-68006727D01*
X150828572Y-68010857D01*
X150823824Y-68015305D01*
X150818910Y-68020318D01*
X150790753Y-68044783D01*
X150758455Y-68060415D01*
X150719554Y-68068141D01*
X150688610Y-68069355D01*
X150646186Y-68065470D01*
X150609668Y-68053571D01*
X150575776Y-68032215D01*
X150548877Y-68007885D01*
X150542025Y-67999905D01*
X150527924Y-67982553D01*
X150506950Y-67956312D01*
X150479478Y-67921660D01*
X150445885Y-67879078D01*
X150406544Y-67829047D01*
X150361833Y-67772046D01*
X150312127Y-67708557D01*
X150257801Y-67639060D01*
X150199231Y-67564034D01*
X150136792Y-67483961D01*
X150070861Y-67399321D01*
X150001813Y-67310593D01*
X149930023Y-67218259D01*
X149855867Y-67122799D01*
X149779720Y-67024693D01*
X149736052Y-66968394D01*
X148954370Y-65960373D01*
X148951256Y-66955957D01*
X148948141Y-67951540D01*
X148934912Y-67979569D01*
X148914103Y-68012216D01*
X148886350Y-68039424D01*
X148857085Y-68056853D01*
X148831643Y-68064083D01*
X148799327Y-68068634D01*
X148765513Y-68070083D01*
X148735577Y-68068011D01*
X148729169Y-68066860D01*
X148686775Y-68053318D01*
X148653333Y-68031897D01*
X148627252Y-68001350D01*
X148613661Y-67976377D01*
X148599343Y-67945312D01*
X148599343Y-66680917D01*
X148599353Y-66530666D01*
X148599384Y-66392380D01*
X148599440Y-66265568D01*
X148599525Y-66149739D01*
X148599642Y-66044401D01*
X148599793Y-65949062D01*
X148599984Y-65863232D01*
X148600216Y-65786418D01*
X148600494Y-65718129D01*
X148600820Y-65657874D01*
X148601199Y-65605161D01*
X148601633Y-65559499D01*
X148602126Y-65520396D01*
X148602682Y-65487360D01*
X148603303Y-65459901D01*
X148603993Y-65437526D01*
X148604756Y-65419744D01*
X148605594Y-65406065D01*
X148606512Y-65395995D01*
X148607513Y-65389044D01*
X148608278Y-65385725D01*
X148625069Y-65349088D01*
X148651393Y-65318903D01*
X148685575Y-65296189D01*
X148725939Y-65281960D01*
X148770810Y-65277236D01*
X148785932Y-65277904D01*
G37*
G36*
X145262777Y-56711576D02*
G01*
X145378057Y-56711669D01*
X145504557Y-56711799D01*
X145642874Y-56711949D01*
X145653201Y-56711960D01*
X145767388Y-56712087D01*
X145878177Y-56712223D01*
X145984930Y-56712366D01*
X146087009Y-56712514D01*
X146183775Y-56712667D01*
X146274591Y-56712823D01*
X146358817Y-56712981D01*
X146435816Y-56713139D01*
X146504949Y-56713296D01*
X146565577Y-56713451D01*
X146617063Y-56713603D01*
X146658768Y-56713749D01*
X146690054Y-56713889D01*
X146710281Y-56714022D01*
X146718813Y-56714146D01*
X146719059Y-56714169D01*
X146717673Y-56720366D01*
X146713109Y-56737355D01*
X146705704Y-56763976D01*
X146695795Y-56799070D01*
X146683719Y-56841478D01*
X146669813Y-56890039D01*
X146654414Y-56943596D01*
X146637858Y-57000988D01*
X146620482Y-57061056D01*
X146602623Y-57122640D01*
X146584618Y-57184582D01*
X146566804Y-57245722D01*
X146549518Y-57304900D01*
X146533096Y-57360958D01*
X146517875Y-57412735D01*
X146504193Y-57459073D01*
X146492385Y-57498812D01*
X146482790Y-57530792D01*
X146475743Y-57553855D01*
X146471581Y-57566840D01*
X146470609Y-57569313D01*
X146463861Y-57570014D01*
X146445464Y-57570829D01*
X146416224Y-57571741D01*
X146376951Y-57572735D01*
X146328449Y-57573798D01*
X146271527Y-57574914D01*
X146206992Y-57576067D01*
X146135651Y-57577244D01*
X146058312Y-57578428D01*
X145975781Y-57579605D01*
X145888866Y-57580760D01*
X145798374Y-57581877D01*
X145788583Y-57581993D01*
X145676680Y-57583369D01*
X145573447Y-57584754D01*
X145479266Y-57586139D01*
X145394516Y-57587517D01*
X145319576Y-57588881D01*
X145254828Y-57590221D01*
X145200652Y-57591531D01*
X145157427Y-57592802D01*
X145125533Y-57594027D01*
X145105351Y-57595197D01*
X145097344Y-57596264D01*
X145086339Y-57603080D01*
X145084599Y-57611483D01*
X145092028Y-57624488D01*
X145096263Y-57630034D01*
X145100302Y-57633698D01*
X145110019Y-57641581D01*
X145125576Y-57653806D01*
X145147137Y-57670495D01*
X145174862Y-57691769D01*
X145208917Y-57717752D01*
X145249462Y-57748566D01*
X145296662Y-57784332D01*
X145350678Y-57825174D01*
X145411673Y-57871213D01*
X145479811Y-57922573D01*
X145555253Y-57979374D01*
X145638162Y-58041739D01*
X145728702Y-58109791D01*
X145827035Y-58183652D01*
X145933323Y-58263444D01*
X146047729Y-58349290D01*
X146170417Y-58441311D01*
X146301548Y-58539631D01*
X146441286Y-58644370D01*
X146589793Y-58755653D01*
X146747232Y-58873600D01*
X146913766Y-58998334D01*
X147089556Y-59129978D01*
X147274767Y-59268654D01*
X147469561Y-59414483D01*
X147674100Y-59567589D01*
X147769129Y-59638716D01*
X147845365Y-59695801D01*
X147918772Y-59750818D01*
X147988739Y-59803307D01*
X148054655Y-59852806D01*
X148115908Y-59898855D01*
X148171889Y-59940994D01*
X148221985Y-59978762D01*
X148265586Y-60011699D01*
X148302080Y-60039343D01*
X148330857Y-60061235D01*
X148351306Y-60076914D01*
X148362814Y-60085918D01*
X148365224Y-60088004D01*
X148360185Y-60092054D01*
X148345744Y-60102302D01*
X148322896Y-60118085D01*
X148292636Y-60138739D01*
X148255960Y-60163602D01*
X148213861Y-60192009D01*
X148167336Y-60223298D01*
X148117379Y-60256804D01*
X148064985Y-60291866D01*
X148011150Y-60327819D01*
X147956868Y-60363999D01*
X147903134Y-60399744D01*
X147850944Y-60434391D01*
X147801293Y-60467275D01*
X147755175Y-60497734D01*
X147713585Y-60525104D01*
X147677520Y-60548722D01*
X147647973Y-60567924D01*
X147625940Y-60582048D01*
X147612415Y-60590429D01*
X147608397Y-60592554D01*
X147602027Y-60588943D01*
X147586823Y-60578669D01*
X147563917Y-60562547D01*
X147534440Y-60541387D01*
X147499524Y-60516004D01*
X147460300Y-60487211D01*
X147417899Y-60455821D01*
X147411171Y-60450817D01*
X147189686Y-60285975D01*
X146977970Y-60128403D01*
X146775797Y-59977930D01*
X146582945Y-59834387D01*
X146399189Y-59697605D01*
X146224305Y-59567414D01*
X146058069Y-59443644D01*
X145900257Y-59326127D01*
X145750645Y-59214693D01*
X145609008Y-59109171D01*
X145475123Y-59009394D01*
X145348766Y-58915191D01*
X145229712Y-58826393D01*
X145117738Y-58742830D01*
X145012619Y-58664333D01*
X144914132Y-58590733D01*
X144822052Y-58521860D01*
X144736155Y-58457544D01*
X144656217Y-58397616D01*
X144582014Y-58341906D01*
X144513323Y-58290246D01*
X144449918Y-58242465D01*
X144391576Y-58198395D01*
X144338073Y-58157865D01*
X144289185Y-58120706D01*
X144244687Y-58086749D01*
X144204356Y-58055825D01*
X144167968Y-58027763D01*
X144135298Y-58002394D01*
X144106123Y-57979549D01*
X144080218Y-57959059D01*
X144057359Y-57940753D01*
X144037322Y-57924463D01*
X144019884Y-57910019D01*
X144004819Y-57897251D01*
X143991905Y-57885991D01*
X143980917Y-57876067D01*
X143971630Y-57867312D01*
X143963821Y-57859556D01*
X143957266Y-57852628D01*
X143951741Y-57846361D01*
X143947022Y-57840583D01*
X143942883Y-57835126D01*
X143939103Y-57829820D01*
X143935456Y-57824496D01*
X143931944Y-57819316D01*
X143891566Y-57749251D01*
X143860658Y-57672501D01*
X143839452Y-57590737D01*
X143828177Y-57505631D01*
X143827068Y-57418856D01*
X143836354Y-57332082D01*
X143853788Y-57255382D01*
X143886639Y-57161607D01*
X143928622Y-57076251D01*
X143979554Y-56999493D01*
X144039250Y-56931514D01*
X144107526Y-56872491D01*
X144184198Y-56822605D01*
X144269080Y-56782034D01*
X144361991Y-56750958D01*
X144376390Y-56747181D01*
X144393967Y-56742707D01*
X144410225Y-56738614D01*
X144425762Y-56734888D01*
X144441175Y-56731510D01*
X144457061Y-56728466D01*
X144474017Y-56725737D01*
X144492640Y-56723309D01*
X144513528Y-56721164D01*
X144537276Y-56719286D01*
X144564483Y-56717659D01*
X144595746Y-56716265D01*
X144631661Y-56715089D01*
X144672826Y-56714114D01*
X144719837Y-56713324D01*
X144773292Y-56712702D01*
X144833788Y-56712231D01*
X144901922Y-56711895D01*
X144978290Y-56711679D01*
X145063491Y-56711564D01*
X145158121Y-56711536D01*
X145262777Y-56711576D01*
G37*
G36*
X151685481Y-65281362D02*
G01*
X151726982Y-65295826D01*
X151761264Y-65319054D01*
X151787041Y-65350327D01*
X151794067Y-65363581D01*
X151807043Y-65391609D01*
X151808680Y-66554610D01*
X151810317Y-67717610D01*
X152407066Y-67719347D01*
X153003814Y-67721084D01*
X153040532Y-67739865D01*
X153073610Y-67761911D01*
X153096850Y-67789902D01*
X153111337Y-67825480D01*
X153116789Y-67855239D01*
X153119492Y-67910862D01*
X153113469Y-67957829D01*
X153098575Y-67996517D01*
X153074662Y-68027301D01*
X153041584Y-68050558D01*
X153040531Y-68051102D01*
X153003812Y-68069883D01*
X152305771Y-68070836D01*
X152213017Y-68070914D01*
X152123396Y-68070897D01*
X152037737Y-68070788D01*
X151956870Y-68070594D01*
X151881623Y-68070319D01*
X151812825Y-68069968D01*
X151751306Y-68069546D01*
X151697893Y-68069059D01*
X151653417Y-68068512D01*
X151618706Y-68067909D01*
X151594589Y-68067256D01*
X151581896Y-68066558D01*
X151580615Y-68066379D01*
X151539909Y-68053277D01*
X151507827Y-68031684D01*
X151483985Y-68001148D01*
X151467999Y-67961220D01*
X151461095Y-67926085D01*
X151460209Y-67913219D01*
X151459408Y-67888676D01*
X151458692Y-67852398D01*
X151458062Y-67804325D01*
X151457516Y-67744398D01*
X151457055Y-67672556D01*
X151456678Y-67588741D01*
X151456385Y-67492893D01*
X151456177Y-67384953D01*
X151456052Y-67264862D01*
X151456010Y-67132559D01*
X151456052Y-66987986D01*
X151456177Y-66831084D01*
X151456385Y-66661792D01*
X151456421Y-66637318D01*
X151458244Y-65397838D01*
X151474830Y-65362455D01*
X151496888Y-65327907D01*
X151526684Y-65302384D01*
X151564705Y-65285631D01*
X151611437Y-65277390D01*
X151638048Y-65276381D01*
X151685481Y-65281362D01*
G37*
G36*
X148721401Y-53821979D02*
G01*
X148812551Y-53837592D01*
X148839415Y-53844292D01*
X148925814Y-53873121D01*
X149005714Y-53911747D01*
X149079365Y-53960414D01*
X149147015Y-54019367D01*
X149208912Y-54088854D01*
X149265304Y-54169118D01*
X149316439Y-54260406D01*
X149361714Y-54360859D01*
X149366019Y-54372629D01*
X149373774Y-54395117D01*
X149384736Y-54427574D01*
X149398662Y-54469251D01*
X149415310Y-54519400D01*
X149434435Y-54577271D01*
X149455794Y-54642117D01*
X149479144Y-54713188D01*
X149504242Y-54789736D01*
X149530845Y-54871013D01*
X149558709Y-54956269D01*
X149587591Y-55044756D01*
X149617248Y-55135726D01*
X149647436Y-55228429D01*
X149677913Y-55322118D01*
X149708435Y-55416043D01*
X149738758Y-55509456D01*
X149768640Y-55601608D01*
X149797837Y-55691751D01*
X149826106Y-55779136D01*
X149853204Y-55863014D01*
X149878887Y-55942637D01*
X149902913Y-56017256D01*
X149925037Y-56086122D01*
X149945018Y-56148487D01*
X149962610Y-56203603D01*
X149977572Y-56250720D01*
X149989660Y-56289090D01*
X149998630Y-56317964D01*
X150004240Y-56336593D01*
X150006246Y-56344230D01*
X150006229Y-56344376D01*
X149999810Y-56344870D01*
X149982152Y-56345541D01*
X149954462Y-56346367D01*
X149917947Y-56347324D01*
X149873814Y-56348390D01*
X149823269Y-56349540D01*
X149767520Y-56350753D01*
X149707774Y-56352004D01*
X149645237Y-56353271D01*
X149581116Y-56354530D01*
X149516618Y-56355759D01*
X149452950Y-56356934D01*
X149391319Y-56358033D01*
X149332931Y-56359031D01*
X149278995Y-56359907D01*
X149230716Y-56360636D01*
X149189301Y-56361196D01*
X149155957Y-56361563D01*
X149131892Y-56361715D01*
X149118312Y-56361628D01*
X149115683Y-56361440D01*
X149113590Y-56355502D01*
X149107755Y-56338530D01*
X149098439Y-56311287D01*
X149085901Y-56274536D01*
X149070400Y-56229041D01*
X149052196Y-56175564D01*
X149031549Y-56114868D01*
X149008718Y-56047718D01*
X148983964Y-55974875D01*
X148957546Y-55897103D01*
X148929723Y-55815164D01*
X148900755Y-55729823D01*
X148899216Y-55725288D01*
X148870066Y-55639564D01*
X148841902Y-55557070D01*
X148814994Y-55478583D01*
X148789614Y-55404881D01*
X148766034Y-55336741D01*
X148744525Y-55274940D01*
X148725359Y-55220255D01*
X148708807Y-55173464D01*
X148695140Y-55135345D01*
X148684630Y-55106674D01*
X148677549Y-55088228D01*
X148674167Y-55080786D01*
X148674125Y-55080740D01*
X148661811Y-55075139D01*
X148648715Y-55081597D01*
X148635386Y-55099785D01*
X148632343Y-55105599D01*
X148629455Y-55113108D01*
X148622593Y-55131919D01*
X148611914Y-55161583D01*
X148597578Y-55201652D01*
X148579744Y-55251676D01*
X148558570Y-55311206D01*
X148534216Y-55379792D01*
X148506839Y-55456988D01*
X148476600Y-55542342D01*
X148443657Y-55635406D01*
X148408169Y-55735731D01*
X148370294Y-55842868D01*
X148330191Y-55956369D01*
X148288020Y-56075783D01*
X148243939Y-56200662D01*
X148198107Y-56330558D01*
X148150683Y-56465020D01*
X148101826Y-56603600D01*
X148051694Y-56745849D01*
X148000446Y-56891318D01*
X147967034Y-56986190D01*
X147915224Y-57133291D01*
X147864462Y-57277366D01*
X147814905Y-57417971D01*
X147766709Y-57554662D01*
X147720032Y-57686994D01*
X147675031Y-57814526D01*
X147631862Y-57936812D01*
X147590683Y-58053409D01*
X147551650Y-58163873D01*
X147514921Y-58267761D01*
X147480652Y-58364629D01*
X147449001Y-58454033D01*
X147420124Y-58535530D01*
X147394178Y-58608675D01*
X147371320Y-58673026D01*
X147351707Y-58728138D01*
X147335497Y-58773567D01*
X147322845Y-58808871D01*
X147313910Y-58833605D01*
X147308847Y-58847325D01*
X147307703Y-58850133D01*
X147302191Y-58847137D01*
X147287715Y-58836975D01*
X147265053Y-58820244D01*
X147234982Y-58797541D01*
X147198280Y-58769464D01*
X147155724Y-58736610D01*
X147108091Y-58699577D01*
X147056160Y-58658962D01*
X147000707Y-58615362D01*
X146948416Y-58574052D01*
X146890500Y-58528071D01*
X146835570Y-58484213D01*
X146784392Y-58443106D01*
X146737730Y-58405376D01*
X146696352Y-58371650D01*
X146661022Y-58342554D01*
X146632505Y-58318715D01*
X146611569Y-58300761D01*
X146598978Y-58289317D01*
X146595413Y-58285112D01*
X146597571Y-58278664D01*
X146603657Y-58260976D01*
X146613492Y-58232564D01*
X146626893Y-58193946D01*
X146643680Y-58145642D01*
X146663671Y-58088170D01*
X146686687Y-58022047D01*
X146712546Y-57947792D01*
X146741068Y-57865923D01*
X146772070Y-57776958D01*
X146805373Y-57681416D01*
X146840796Y-57579815D01*
X146878157Y-57472673D01*
X146917275Y-57360508D01*
X146957971Y-57243838D01*
X147000062Y-57123182D01*
X147043368Y-56999058D01*
X147087708Y-56871984D01*
X147132902Y-56742478D01*
X147178767Y-56611059D01*
X147225124Y-56478245D01*
X147271791Y-56344554D01*
X147318588Y-56210504D01*
X147365333Y-56076613D01*
X147411846Y-55943400D01*
X147457945Y-55811383D01*
X147503451Y-55681081D01*
X147548181Y-55553010D01*
X147591955Y-55427691D01*
X147634592Y-55305640D01*
X147675912Y-55187376D01*
X147715732Y-55073417D01*
X147753873Y-54964282D01*
X147790154Y-54860489D01*
X147824393Y-54762555D01*
X147856410Y-54671000D01*
X147886023Y-54586341D01*
X147913052Y-54509097D01*
X147937316Y-54439786D01*
X147958634Y-54378926D01*
X147976825Y-54327035D01*
X147991708Y-54284631D01*
X148003103Y-54252234D01*
X148010827Y-54230360D01*
X148014599Y-54219808D01*
X148026852Y-54188834D01*
X148040899Y-54157196D01*
X148054403Y-54130044D01*
X148059428Y-54121084D01*
X148106703Y-54053102D01*
X148162920Y-53992965D01*
X148227061Y-53941034D01*
X148298111Y-53897670D01*
X148375052Y-53863234D01*
X148456869Y-53838086D01*
X148542543Y-53822587D01*
X148631060Y-53817098D01*
X148721401Y-53821979D01*
G37*
G36*
X134786074Y-65279526D02*
G01*
X134854220Y-65279637D01*
X134912121Y-65279857D01*
X134960883Y-65280214D01*
X135001611Y-65280737D01*
X135035411Y-65281454D01*
X135063389Y-65282394D01*
X135086651Y-65283586D01*
X135106303Y-65285057D01*
X135123450Y-65286837D01*
X135139199Y-65288954D01*
X135151918Y-65290973D01*
X135248578Y-65312096D01*
X135336044Y-65341579D01*
X135414425Y-65379498D01*
X135483830Y-65425928D01*
X135544367Y-65480944D01*
X135596146Y-65544621D01*
X135639276Y-65617037D01*
X135647796Y-65634533D01*
X135659928Y-65663517D01*
X135672376Y-65698543D01*
X135684278Y-65736553D01*
X135694774Y-65774488D01*
X135703005Y-65809290D01*
X135708111Y-65837898D01*
X135709372Y-65853542D01*
X135704091Y-65897563D01*
X135688649Y-65934783D01*
X135663646Y-65964676D01*
X135629683Y-65986714D01*
X135587360Y-66000371D01*
X135537278Y-66005120D01*
X135536601Y-66005120D01*
X135493366Y-66002522D01*
X135458629Y-65994115D01*
X135429430Y-65978978D01*
X135414285Y-65967125D01*
X135395799Y-65948021D01*
X135381384Y-65925751D01*
X135369613Y-65897423D01*
X135359057Y-65860149D01*
X135356849Y-65850861D01*
X135342490Y-65804903D01*
X135322197Y-65762193D01*
X135297950Y-65726657D01*
X135289494Y-65717252D01*
X135270738Y-65699751D01*
X135250265Y-65684540D01*
X135227128Y-65671469D01*
X135200382Y-65660388D01*
X135169082Y-65651147D01*
X135132280Y-65643597D01*
X135089033Y-65637587D01*
X135038393Y-65632968D01*
X134979416Y-65629589D01*
X134911156Y-65627302D01*
X134832666Y-65625955D01*
X134743002Y-65625399D01*
X134709691Y-65625364D01*
X134622922Y-65625582D01*
X134547494Y-65626305D01*
X134482296Y-65627643D01*
X134426220Y-65629701D01*
X134378154Y-65632587D01*
X134336989Y-65636408D01*
X134301615Y-65641272D01*
X134270922Y-65647285D01*
X134243800Y-65654554D01*
X134219139Y-65663187D01*
X134195830Y-65673292D01*
X134191426Y-65675404D01*
X134152889Y-65699570D01*
X134121413Y-65731593D01*
X134096318Y-65772495D01*
X134076921Y-65823298D01*
X134067062Y-65862045D01*
X134061494Y-65897293D01*
X134057628Y-65941408D01*
X134055439Y-65991426D01*
X134054906Y-66044382D01*
X134056004Y-66097314D01*
X134058711Y-66147255D01*
X134063003Y-66191242D01*
X134068857Y-66226310D01*
X134069949Y-66230941D01*
X134081898Y-66273225D01*
X134095104Y-66306627D01*
X134111336Y-66334711D01*
X134132365Y-66361042D01*
X134137093Y-66366189D01*
X134170165Y-66395561D01*
X134209501Y-66418789D01*
X134257631Y-66437271D01*
X134274786Y-66442270D01*
X134285092Y-66444969D01*
X134295497Y-66447296D01*
X134307015Y-66449290D01*
X134320661Y-66450992D01*
X134337449Y-66452441D01*
X134358393Y-66453678D01*
X134384509Y-66454741D01*
X134416810Y-66455673D01*
X134456311Y-66456511D01*
X134504027Y-66457297D01*
X134560971Y-66458070D01*
X134628159Y-66458871D01*
X134706604Y-66459739D01*
X134722148Y-66459907D01*
X134803317Y-66460804D01*
X134873110Y-66461640D01*
X134932608Y-66462456D01*
X134982895Y-66463292D01*
X135025049Y-66464188D01*
X135060154Y-66465187D01*
X135089290Y-66466328D01*
X135113538Y-66467651D01*
X135133981Y-66469198D01*
X135151698Y-66471009D01*
X135167772Y-66473125D01*
X135183283Y-66475586D01*
X135195205Y-66477684D01*
X135259946Y-66490743D01*
X135315501Y-66505034D01*
X135365136Y-66521479D01*
X135399730Y-66535471D01*
X135475592Y-66574313D01*
X135542639Y-66621072D01*
X135601119Y-66676089D01*
X135651279Y-66739708D01*
X135693366Y-66812271D01*
X135727627Y-66894120D01*
X135754309Y-66985600D01*
X135766664Y-67044598D01*
X135772895Y-67089136D01*
X135777387Y-67142848D01*
X135780139Y-67202715D01*
X135781149Y-67265720D01*
X135780417Y-67328845D01*
X135777939Y-67389073D01*
X135773717Y-67443386D01*
X135767747Y-67488767D01*
X135766863Y-67493742D01*
X135744119Y-67591215D01*
X135713473Y-67679108D01*
X135674771Y-67757594D01*
X135627858Y-67826848D01*
X135572581Y-67887045D01*
X135508784Y-67938358D01*
X135436314Y-67980962D01*
X135355016Y-68015031D01*
X135287201Y-68035331D01*
X135261435Y-68041779D01*
X135237778Y-68047338D01*
X135215091Y-68052078D01*
X135192238Y-68056070D01*
X135168082Y-68059384D01*
X135141484Y-68062090D01*
X135111309Y-68064258D01*
X135076417Y-68065958D01*
X135035672Y-68067260D01*
X134987937Y-68068235D01*
X134932075Y-68068953D01*
X134866947Y-68069484D01*
X134791417Y-68069898D01*
X134722148Y-68070195D01*
X134651295Y-68070394D01*
X134582547Y-68070422D01*
X134517187Y-68070291D01*
X134456502Y-68070010D01*
X134401775Y-68069589D01*
X134354292Y-68069038D01*
X134315336Y-68068367D01*
X134286193Y-68067587D01*
X134268147Y-68066707D01*
X134267464Y-68066653D01*
X134160582Y-68053566D01*
X134063249Y-68032567D01*
X133975278Y-68003516D01*
X133896484Y-67966273D01*
X133826681Y-67920699D01*
X133765682Y-67866653D01*
X133713302Y-67803995D01*
X133669353Y-67732586D01*
X133633651Y-67652286D01*
X133608099Y-67571093D01*
X133595591Y-67512431D01*
X133591266Y-67462370D01*
X133595249Y-67420004D01*
X133607672Y-67384431D01*
X133628664Y-67354744D01*
X133640603Y-67343353D01*
X133663823Y-67326503D01*
X133688770Y-67315450D01*
X133718672Y-67309262D01*
X133756758Y-67307007D01*
X133766789Y-67306947D01*
X133815339Y-67311042D01*
X133855075Y-67323626D01*
X133886853Y-67345336D01*
X133911528Y-67376809D01*
X133929957Y-67418680D01*
X133933755Y-67431083D01*
X133942115Y-67460525D01*
X133951257Y-67492770D01*
X133956680Y-67511925D01*
X133977426Y-67564239D01*
X134007593Y-67609551D01*
X134046106Y-67646656D01*
X134091890Y-67674350D01*
X134107687Y-67680947D01*
X134124584Y-67687198D01*
X134140417Y-67692630D01*
X134156159Y-67697300D01*
X134172785Y-67701266D01*
X134191267Y-67704585D01*
X134212579Y-67707314D01*
X134237696Y-67709512D01*
X134267589Y-67711236D01*
X134303233Y-67712543D01*
X134345602Y-67713491D01*
X134395668Y-67714137D01*
X134454406Y-67714539D01*
X134522790Y-67714755D01*
X134601791Y-67714841D01*
X134681663Y-67714856D01*
X134767303Y-67714833D01*
X134841440Y-67714752D01*
X134905029Y-67714590D01*
X134959024Y-67714326D01*
X135004379Y-67713939D01*
X135042049Y-67713407D01*
X135072987Y-67712708D01*
X135098148Y-67711821D01*
X135118487Y-67710724D01*
X135134957Y-67709397D01*
X135148513Y-67707817D01*
X135160110Y-67705962D01*
X135170603Y-67703834D01*
X135233972Y-67685287D01*
X135287331Y-67659611D01*
X135331245Y-67626258D01*
X135366281Y-67584679D01*
X135393007Y-67534325D01*
X135411988Y-67474648D01*
X135413330Y-67468828D01*
X135421572Y-67420889D01*
X135427085Y-67364978D01*
X135429886Y-67304273D01*
X135429993Y-67241954D01*
X135427425Y-67181198D01*
X135422198Y-67125182D01*
X135414332Y-67077085D01*
X135411054Y-67063079D01*
X135391244Y-67002657D01*
X135365035Y-66952308D01*
X135331436Y-66911048D01*
X135289456Y-66877897D01*
X135238105Y-66851873D01*
X135178372Y-66832501D01*
X135167389Y-66829790D01*
X135156290Y-66827454D01*
X135144044Y-66825451D01*
X135129619Y-66823739D01*
X135111985Y-66822278D01*
X135090109Y-66821026D01*
X135062960Y-66819942D01*
X135029506Y-66818983D01*
X134988718Y-66818109D01*
X134939562Y-66817278D01*
X134881007Y-66816448D01*
X134812023Y-66815579D01*
X134734605Y-66814664D01*
X134650678Y-66813638D01*
X134578193Y-66812631D01*
X134516138Y-66811610D01*
X134463498Y-66810542D01*
X134419260Y-66809392D01*
X134382410Y-66808129D01*
X134351933Y-66806717D01*
X134326816Y-66805126D01*
X134306046Y-66803320D01*
X134288608Y-66801267D01*
X134277915Y-66799677D01*
X134196702Y-66783321D01*
X134123199Y-66761457D01*
X134053424Y-66732865D01*
X134042271Y-66727550D01*
X133971046Y-66686991D01*
X133908568Y-66638564D01*
X133854637Y-66581946D01*
X133809052Y-66516818D01*
X133771610Y-66442857D01*
X133742111Y-66359743D01*
X133720353Y-66267154D01*
X133709599Y-66196348D01*
X133706457Y-66159294D01*
X133704723Y-66113671D01*
X133704313Y-66062307D01*
X133705140Y-66008030D01*
X133707119Y-65953668D01*
X133710163Y-65902051D01*
X133714188Y-65856006D01*
X133719107Y-65818363D01*
X133721450Y-65805586D01*
X133745178Y-65713354D01*
X133776440Y-65630774D01*
X133815563Y-65557535D01*
X133862875Y-65493325D01*
X133918703Y-65437836D01*
X133983375Y-65390756D01*
X134057218Y-65351775D01*
X134140561Y-65320582D01*
X134233730Y-65296868D01*
X134264417Y-65291029D01*
X134279094Y-65288606D01*
X134294254Y-65286544D01*
X134310994Y-65284815D01*
X134330412Y-65283390D01*
X134353603Y-65282240D01*
X134381664Y-65281337D01*
X134415694Y-65280652D01*
X134456787Y-65280156D01*
X134506042Y-65279821D01*
X134564555Y-65279618D01*
X134633422Y-65279519D01*
X134706577Y-65279495D01*
X134786074Y-65279526D01*
G37*
G36*
X141833321Y-65279506D02*
G01*
X141922679Y-65279563D01*
X142001312Y-65279700D01*
X142070088Y-65279952D01*
X142129874Y-65280352D01*
X142181535Y-65280937D01*
X142225939Y-65281739D01*
X142263951Y-65282794D01*
X142296440Y-65284136D01*
X142324270Y-65285799D01*
X142348310Y-65287819D01*
X142369425Y-65290229D01*
X142388482Y-65293064D01*
X142406347Y-65296359D01*
X142423888Y-65300148D01*
X142441971Y-65304466D01*
X142457584Y-65308368D01*
X142546501Y-65336670D01*
X142627682Y-65374636D01*
X142700821Y-65421977D01*
X142765612Y-65478402D01*
X142821752Y-65543623D01*
X142868934Y-65617350D01*
X142906853Y-65699292D01*
X142924864Y-65751727D01*
X142935603Y-65789433D01*
X142944143Y-65825312D01*
X142950767Y-65861664D01*
X142955755Y-65900789D01*
X142959389Y-65944990D01*
X142961950Y-65996567D01*
X142963720Y-66057821D01*
X142964011Y-66071765D01*
X142964874Y-66147285D01*
X142964139Y-66212567D01*
X142961638Y-66269748D01*
X142957200Y-66320963D01*
X142950658Y-66368350D01*
X142941843Y-66414046D01*
X142934548Y-66444910D01*
X142905899Y-66535870D01*
X142868018Y-66618566D01*
X142821101Y-66692797D01*
X142765348Y-66758362D01*
X142700955Y-66815058D01*
X142628120Y-66862685D01*
X142547041Y-66901040D01*
X142458749Y-66929707D01*
X142431675Y-66936462D01*
X142408248Y-66941794D01*
X142391650Y-66945008D01*
X142386118Y-66945631D01*
X142385540Y-66948231D01*
X142388551Y-66956363D01*
X142395436Y-66970519D01*
X142406478Y-66991193D01*
X142421962Y-67018877D01*
X142442173Y-67054066D01*
X142467395Y-67097254D01*
X142497911Y-67148932D01*
X142534006Y-67209596D01*
X142575965Y-67279738D01*
X142624072Y-67359852D01*
X142639983Y-67386300D01*
X142681109Y-67454716D01*
X142720634Y-67520630D01*
X142758047Y-67583180D01*
X142792839Y-67641506D01*
X142824498Y-67694747D01*
X142852515Y-67742042D01*
X142876378Y-67782530D01*
X142895578Y-67815351D01*
X142909603Y-67839644D01*
X142917944Y-67854547D01*
X142919778Y-67858112D01*
X142930176Y-67887413D01*
X142934193Y-67919798D01*
X142934361Y-67929740D01*
X142929884Y-67972674D01*
X142915951Y-68009772D01*
X142891807Y-68042104D01*
X142856695Y-68070740D01*
X142819817Y-68091898D01*
X142778730Y-68106631D01*
X142737582Y-68110321D01*
X142698683Y-68102848D01*
X142688455Y-68098714D01*
X142669928Y-68087435D01*
X142649482Y-68070877D01*
X142638237Y-68059771D01*
X142631518Y-68050620D01*
X142618890Y-68031535D01*
X142600821Y-68003280D01*
X142577784Y-67966619D01*
X142550249Y-67922317D01*
X142518686Y-67871139D01*
X142483567Y-67813849D01*
X142445361Y-67751212D01*
X142404539Y-67683992D01*
X142361572Y-67612953D01*
X142316930Y-67538861D01*
X142290672Y-67495148D01*
X141968410Y-66958088D01*
X141396318Y-66958088D01*
X141394618Y-67461043D01*
X141394307Y-67551905D01*
X141394013Y-67631151D01*
X141393712Y-67699620D01*
X141393379Y-67758153D01*
X141392992Y-67807589D01*
X141392525Y-67848770D01*
X141391956Y-67882534D01*
X141391259Y-67909723D01*
X141390411Y-67931176D01*
X141389387Y-67947733D01*
X141388164Y-67960236D01*
X141386717Y-67969523D01*
X141385023Y-67976436D01*
X141383058Y-67981814D01*
X141380797Y-67986497D01*
X141379510Y-67988912D01*
X141355254Y-68022736D01*
X141323668Y-68047176D01*
X141284175Y-68062532D01*
X141236203Y-68069101D01*
X141224747Y-68069394D01*
X141180410Y-68066860D01*
X141144579Y-68057773D01*
X141114623Y-68041161D01*
X141091742Y-68020318D01*
X141086596Y-68015081D01*
X141081861Y-68010649D01*
X141077519Y-68006512D01*
X141073553Y-68002158D01*
X141069947Y-67997075D01*
X141066684Y-67990751D01*
X141063747Y-67982674D01*
X141061118Y-67972333D01*
X141058781Y-67959215D01*
X141056719Y-67942809D01*
X141054915Y-67922603D01*
X141053352Y-67898086D01*
X141052013Y-67868745D01*
X141050882Y-67834068D01*
X141049940Y-67793544D01*
X141049172Y-67746661D01*
X141048559Y-67692908D01*
X141048086Y-67631771D01*
X141047736Y-67562741D01*
X141047491Y-67485304D01*
X141047334Y-67398948D01*
X141047249Y-67303163D01*
X141047218Y-67197436D01*
X141047226Y-67081256D01*
X141047253Y-66954110D01*
X141047285Y-66815487D01*
X141047303Y-66678230D01*
X141047317Y-66609289D01*
X141396032Y-66609289D01*
X141814902Y-66609272D01*
X141908571Y-66609156D01*
X141993368Y-66608822D01*
X142068793Y-66608278D01*
X142134344Y-66607530D01*
X142189518Y-66606585D01*
X142233815Y-66605452D01*
X142266733Y-66604136D01*
X142287771Y-66602646D01*
X142289828Y-66602413D01*
X142361256Y-66589626D01*
X142422689Y-66569684D01*
X142474604Y-66542181D01*
X142517478Y-66506710D01*
X142551787Y-66462862D01*
X142578009Y-66410230D01*
X142596621Y-66348408D01*
X142598738Y-66338549D01*
X142606057Y-66292483D01*
X142611215Y-66238195D01*
X142614240Y-66178447D01*
X142615155Y-66116003D01*
X142613986Y-66053623D01*
X142610759Y-65994071D01*
X142605499Y-65940110D01*
X142598231Y-65894501D01*
X142594504Y-65878178D01*
X142573899Y-65817569D01*
X142545308Y-65766085D01*
X142508258Y-65723285D01*
X142462276Y-65688730D01*
X142406890Y-65661983D01*
X142341627Y-65642605D01*
X142340597Y-65642374D01*
X142329069Y-65639920D01*
X142317372Y-65637791D01*
X142304539Y-65635957D01*
X142289602Y-65634388D01*
X142271594Y-65633054D01*
X142249546Y-65631925D01*
X142222490Y-65630971D01*
X142189460Y-65630162D01*
X142149487Y-65629469D01*
X142101604Y-65628860D01*
X142044844Y-65628307D01*
X141978237Y-65627779D01*
X141900817Y-65627245D01*
X141839816Y-65626854D01*
X141396032Y-65624058D01*
X141396032Y-66609289D01*
X141047317Y-66609289D01*
X141047328Y-66554074D01*
X141047391Y-66433067D01*
X141047489Y-66315812D01*
X141047620Y-66202912D01*
X141047782Y-66094972D01*
X141047973Y-65992595D01*
X141048192Y-65896385D01*
X141048436Y-65806945D01*
X141048704Y-65724879D01*
X141048994Y-65650791D01*
X141049121Y-65624058D01*
X141049304Y-65585284D01*
X141049632Y-65528962D01*
X141049976Y-65482429D01*
X141050334Y-65446288D01*
X141050705Y-65421143D01*
X141051087Y-65407597D01*
X141051250Y-65405510D01*
X141062803Y-65370127D01*
X141084073Y-65336793D01*
X141112424Y-65309165D01*
X141128205Y-65298761D01*
X141162462Y-65279495D01*
X141732374Y-65279495D01*
X141833321Y-65279506D01*
G37*
G36*
X158786817Y-66331886D02*
G01*
X158787687Y-66260772D01*
X158788734Y-66195647D01*
X158789960Y-66137663D01*
X158791362Y-66087974D01*
X158792942Y-66047732D01*
X158794698Y-66018090D01*
X158795828Y-66005948D01*
X158813223Y-65896335D01*
X158838884Y-65795992D01*
X158872914Y-65704818D01*
X158915413Y-65622716D01*
X158966486Y-65549587D01*
X159026235Y-65485332D01*
X159094762Y-65429854D01*
X159172171Y-65383053D01*
X159258562Y-65344832D01*
X159354040Y-65315091D01*
X159458707Y-65293732D01*
X159549122Y-65282614D01*
X159571903Y-65281182D01*
X159605549Y-65279944D01*
X159648505Y-65278898D01*
X159699216Y-65278045D01*
X159756126Y-65277384D01*
X159817681Y-65276916D01*
X159882324Y-65276640D01*
X159948501Y-65276555D01*
X160014655Y-65276662D01*
X160079232Y-65276960D01*
X160140677Y-65277449D01*
X160197434Y-65278129D01*
X160247947Y-65278999D01*
X160290661Y-65280059D01*
X160324022Y-65281310D01*
X160346376Y-65282741D01*
X160460129Y-65297402D01*
X160563997Y-65319497D01*
X160658228Y-65349217D01*
X160743072Y-65386756D01*
X160818779Y-65432303D01*
X160885599Y-65486052D01*
X160943781Y-65548194D01*
X160993574Y-65618922D01*
X161035229Y-65698426D01*
X161068996Y-65786900D01*
X161087638Y-65852521D01*
X161093570Y-65876462D01*
X161098815Y-65898397D01*
X161103420Y-65919221D01*
X161107430Y-65939834D01*
X161110891Y-65961131D01*
X161113849Y-65984011D01*
X161116350Y-66009372D01*
X161118441Y-66038110D01*
X161120166Y-66071122D01*
X161121573Y-66109307D01*
X161122707Y-66153562D01*
X161123614Y-66204783D01*
X161124339Y-66263870D01*
X161124930Y-66331718D01*
X161125432Y-66409225D01*
X161125890Y-66497289D01*
X161126352Y-66596808D01*
X161126408Y-66609289D01*
X161126829Y-66721570D01*
X161127037Y-66824744D01*
X161127034Y-66918405D01*
X161126823Y-67002148D01*
X161126407Y-67075569D01*
X161125788Y-67138261D01*
X161124968Y-67189821D01*
X161123950Y-67229842D01*
X161122737Y-67257919D01*
X161122384Y-67263286D01*
X161110251Y-67376720D01*
X161091005Y-67480236D01*
X161064487Y-67574252D01*
X161030540Y-67659185D01*
X160989004Y-67735454D01*
X160939721Y-67803475D01*
X160900998Y-67845937D01*
X160841437Y-67898296D01*
X160774364Y-67943494D01*
X160699076Y-67981836D01*
X160614867Y-68013624D01*
X160521034Y-68039164D01*
X160416871Y-68058757D01*
X160402433Y-68060898D01*
X160385852Y-68062381D01*
X160358233Y-68063772D01*
X160320991Y-68065062D01*
X160275546Y-68066240D01*
X160223314Y-68067296D01*
X160165714Y-68068221D01*
X160104162Y-68069004D01*
X160040077Y-68069634D01*
X159974876Y-68070103D01*
X159909976Y-68070398D01*
X159846796Y-68070512D01*
X159786753Y-68070432D01*
X159731264Y-68070150D01*
X159681747Y-68069654D01*
X159639619Y-68068936D01*
X159606299Y-68067984D01*
X159583204Y-68066789D01*
X159582863Y-68066763D01*
X159469752Y-68053964D01*
X159366121Y-68033572D01*
X159271463Y-68005440D01*
X159185270Y-67969422D01*
X159118102Y-67932382D01*
X159086953Y-67910415D01*
X159052055Y-67881541D01*
X159016287Y-67848541D01*
X158982532Y-67814195D01*
X158953671Y-67781286D01*
X158933823Y-67754520D01*
X158892312Y-67682806D01*
X158858209Y-67606171D01*
X158830991Y-67523021D01*
X158810132Y-67431760D01*
X158795406Y-67333356D01*
X158793559Y-67310744D01*
X158791896Y-67276829D01*
X158790415Y-67232765D01*
X158789118Y-67179702D01*
X158788004Y-67118796D01*
X158787071Y-67051197D01*
X158786321Y-66978059D01*
X158785751Y-66900535D01*
X158785363Y-66819778D01*
X158785156Y-66736940D01*
X158785129Y-66653174D01*
X158785282Y-66569633D01*
X158785615Y-66487469D01*
X158785964Y-66433228D01*
X159135768Y-66433228D01*
X159135867Y-66524059D01*
X159136170Y-66626466D01*
X159136641Y-66733860D01*
X159137144Y-66833691D01*
X159137631Y-66921924D01*
X159138140Y-66999420D01*
X159138712Y-67067039D01*
X159139386Y-67125641D01*
X159140203Y-67176085D01*
X159141202Y-67219232D01*
X159142423Y-67255940D01*
X159143906Y-67287071D01*
X159145691Y-67313484D01*
X159147818Y-67336039D01*
X159150326Y-67355596D01*
X159153255Y-67373014D01*
X159156645Y-67389154D01*
X159160537Y-67404875D01*
X159164969Y-67421038D01*
X159169165Y-67435672D01*
X159192755Y-67497303D01*
X159225629Y-67552618D01*
X159266684Y-67600243D01*
X159314817Y-67638803D01*
X159346833Y-67657113D01*
X159394447Y-67676748D01*
X159450819Y-67693468D01*
X159512399Y-67706303D01*
X159542894Y-67710814D01*
X159559934Y-67712151D01*
X159587996Y-67713331D01*
X159625646Y-67714354D01*
X159671449Y-67715220D01*
X159723970Y-67715926D01*
X159781777Y-67716472D01*
X159843433Y-67716858D01*
X159907505Y-67717082D01*
X159972559Y-67717143D01*
X160037160Y-67717041D01*
X160099874Y-67716775D01*
X160159266Y-67716343D01*
X160213903Y-67715745D01*
X160262349Y-67714980D01*
X160303171Y-67714047D01*
X160334935Y-67712945D01*
X160356205Y-67711673D01*
X160359683Y-67711332D01*
X160441113Y-67698400D01*
X160512330Y-67678614D01*
X160573829Y-67651484D01*
X160626106Y-67616523D01*
X160669655Y-67573241D01*
X160704971Y-67521149D01*
X160732550Y-67459758D01*
X160752886Y-67388581D01*
X160766126Y-67310000D01*
X160767341Y-67293583D01*
X160768442Y-67265824D01*
X160769429Y-67227836D01*
X160770302Y-67180732D01*
X160771062Y-67125628D01*
X160771708Y-67063636D01*
X160772240Y-66995871D01*
X160772659Y-66923446D01*
X160772964Y-66847475D01*
X160773155Y-66769073D01*
X160773233Y-66689353D01*
X160773197Y-66609428D01*
X160773047Y-66530414D01*
X160772784Y-66453423D01*
X160772407Y-66379569D01*
X160771916Y-66309967D01*
X160771312Y-66245730D01*
X160770594Y-66187972D01*
X160769762Y-66137807D01*
X160768817Y-66096348D01*
X160767757Y-66064710D01*
X160766585Y-66044007D01*
X160766126Y-66039377D01*
X160751927Y-65957293D01*
X160730607Y-65885311D01*
X160702019Y-65823217D01*
X160666020Y-65770792D01*
X160622464Y-65727819D01*
X160571205Y-65694082D01*
X160520033Y-65672007D01*
X160472122Y-65657520D01*
X160421263Y-65646414D01*
X160364571Y-65638196D01*
X160299161Y-65632375D01*
X160280990Y-65631230D01*
X160244717Y-65629573D01*
X160198673Y-65628207D01*
X160144743Y-65627130D01*
X160084811Y-65626342D01*
X160020760Y-65625842D01*
X159954476Y-65625628D01*
X159887843Y-65625699D01*
X159822744Y-65626054D01*
X159761064Y-65626691D01*
X159704687Y-65627610D01*
X159655496Y-65628810D01*
X159615378Y-65630289D01*
X159591199Y-65631663D01*
X159506094Y-65641044D01*
X159431407Y-65656581D01*
X159366582Y-65678832D01*
X159311065Y-65708353D01*
X159264301Y-65745702D01*
X159225734Y-65791436D01*
X159194809Y-65846111D01*
X159170973Y-65910285D01*
X159153669Y-65984515D01*
X159142343Y-66069357D01*
X159141090Y-66083455D01*
X159139664Y-66105947D01*
X159138466Y-66136842D01*
X159137491Y-66176594D01*
X159136737Y-66225655D01*
X159136200Y-66284479D01*
X159135879Y-66353519D01*
X159135768Y-66433228D01*
X158785964Y-66433228D01*
X158786127Y-66407836D01*
X158786817Y-66331886D01*
G37*
X159840000Y-89110000D02*
X159840000Y-98850000D01*
X165280000Y-90775000D02*
X159840000Y-90775000D01*
X159840000Y-98850000D02*
X165280000Y-98850000D01*
X165280000Y-90535000D02*
X159840000Y-90535000D01*
X162560000Y-88200000D02*
X162560000Y-89110000D01*
X165280000Y-98850000D02*
X165280000Y-89110000D01*
X165280000Y-90655000D02*
X159840000Y-90655000D01*
X162560000Y-99760000D02*
X162560000Y-98850000D01*
X165280000Y-89110000D02*
X159840000Y-89110000D01*
D12*
X206125000Y-95885000D02*
X206125000Y-102235000D01*
X225675000Y-95885000D02*
X225675000Y-102235000D01*
D13*
X224890000Y-94025000D02*
G75*
G03*
X224890000Y-94025000I-100000J0D01*
G01*
%LPC*%
D15*
X152400000Y-85500000D03*
X152400000Y-87200000D03*
X152400000Y-88900000D03*
X152400000Y-90600000D03*
X152400000Y-92300000D03*
D16*
X129540000Y-48260000D03*
D17*
X224790000Y-79850000D03*
D18*
X222250000Y-79850000D03*
X219710000Y-79850000D03*
X217170000Y-79850000D03*
X214630000Y-79850000D03*
X212090000Y-79850000D03*
X209550000Y-79850000D03*
X207010000Y-79850000D03*
X207010000Y-87790000D03*
X209550000Y-87790000D03*
X212090000Y-87790000D03*
X214630000Y-87790000D03*
X217170000Y-87790000D03*
X219710000Y-87790000D03*
X222250000Y-87790000D03*
X224790000Y-87790000D03*
D19*
X233680000Y-58420000D03*
D20*
X233680000Y-60960000D03*
X233680000Y-63500000D03*
X233680000Y-66040000D03*
X233680000Y-68580000D03*
X233680000Y-71120000D03*
X233680000Y-73660000D03*
X233680000Y-76200000D03*
X233680000Y-78740000D03*
X233680000Y-81280000D03*
X233680000Y-83820000D03*
X233680000Y-86360000D03*
X233680000Y-88900000D03*
X233680000Y-91440000D03*
X233680000Y-93980000D03*
X233680000Y-96520000D03*
X233680000Y-99060000D03*
X233680000Y-101600000D03*
X233680000Y-104140000D03*
X233680000Y-106680000D03*
X233680000Y-109220000D03*
X233680000Y-111760000D03*
D17*
X224790000Y-64610000D03*
D18*
X222250000Y-64610000D03*
X219710000Y-64610000D03*
X217170000Y-64610000D03*
X214630000Y-64610000D03*
X212090000Y-64610000D03*
X209550000Y-64610000D03*
X207010000Y-64610000D03*
X207010000Y-72550000D03*
X209550000Y-72550000D03*
X212090000Y-72550000D03*
X214630000Y-72550000D03*
X217170000Y-72550000D03*
X219710000Y-72550000D03*
X222250000Y-72550000D03*
X224790000Y-72550000D03*
D21*
X132080000Y-80650000D03*
D22*
X132080000Y-83150000D03*
D23*
X142240000Y-86360000D03*
X142240000Y-91360000D03*
D24*
X149860000Y-116840000D03*
D25*
X154860000Y-116840000D03*
D17*
X224790000Y-49370000D03*
D18*
X222250000Y-49370000D03*
X219710000Y-49370000D03*
X217170000Y-49370000D03*
X214630000Y-49370000D03*
X212090000Y-49370000D03*
X209550000Y-49370000D03*
X207010000Y-49370000D03*
X207010000Y-57310000D03*
X209550000Y-57310000D03*
X212090000Y-57310000D03*
X214630000Y-57310000D03*
X217170000Y-57310000D03*
X219710000Y-57310000D03*
X222250000Y-57310000D03*
X224790000Y-57310000D03*
D16*
X129540000Y-121920000D03*
X233680000Y-121920000D03*
D17*
X224790000Y-110330000D03*
D18*
X222250000Y-110330000D03*
X219710000Y-110330000D03*
X217170000Y-110330000D03*
X214630000Y-110330000D03*
X212090000Y-110330000D03*
X209550000Y-110330000D03*
X207010000Y-110330000D03*
X207010000Y-118270000D03*
X209550000Y-118270000D03*
X212090000Y-118270000D03*
X214630000Y-118270000D03*
X217170000Y-118270000D03*
X219710000Y-118270000D03*
X222250000Y-118270000D03*
X224790000Y-118270000D03*
D26*
X172920000Y-57820000D03*
X172920000Y-109820000D03*
X197920000Y-109820000D03*
X197920000Y-57820000D03*
D27*
X198420000Y-60960000D03*
D28*
X198420000Y-63500000D03*
X198420000Y-66040000D03*
X198420000Y-68580000D03*
X198420000Y-71120000D03*
X198420000Y-73660000D03*
X198420000Y-76200000D03*
X198420000Y-78740000D03*
X198420000Y-81280000D03*
X198420000Y-83820000D03*
X198420000Y-86360000D03*
X198420000Y-88900000D03*
X198420000Y-91440000D03*
X198420000Y-93980000D03*
X198420000Y-96520000D03*
X198420000Y-99060000D03*
X198420000Y-101600000D03*
X198420000Y-104140000D03*
X198420000Y-106680000D03*
D27*
X172420000Y-106680000D03*
D28*
X172420000Y-104140000D03*
X172420000Y-101600000D03*
X172420000Y-99060000D03*
X172420000Y-96520000D03*
X172420000Y-93980000D03*
X172420000Y-91440000D03*
X172420000Y-88900000D03*
X172420000Y-86360000D03*
X172420000Y-83820000D03*
X172420000Y-81280000D03*
X172420000Y-78740000D03*
X172420000Y-76200000D03*
X172420000Y-73660000D03*
X172420000Y-71120000D03*
X172420000Y-68580000D03*
X172420000Y-66040000D03*
X172420000Y-63500000D03*
X172420000Y-60960000D03*
D16*
X233680000Y-48260000D03*
D29*
X132080000Y-101600000D03*
D30*
X132080000Y-96600000D03*
D31*
X162560000Y-86360000D03*
D32*
X162560000Y-101600000D03*
D17*
X224790000Y-95090000D03*
D18*
X222250000Y-95090000D03*
X219710000Y-95090000D03*
X217170000Y-95090000D03*
X214630000Y-95090000D03*
X212090000Y-95090000D03*
X209550000Y-95090000D03*
X207010000Y-95090000D03*
X207010000Y-103030000D03*
X209550000Y-103030000D03*
X212090000Y-103030000D03*
X214630000Y-103030000D03*
X217170000Y-103030000D03*
X219710000Y-103030000D03*
X222250000Y-103030000D03*
X224790000Y-103030000D03*
M02*
